<svg width="32" height="33" viewBox="0 0 32 33" fill="none" xmlns="http://www.w3.org/2000/svg">
<path d="M22.4202 6.02246H12.4502C11.7872 6.02246 11.1513 6.28585 10.6824 6.75469C10.2136 7.22353 9.9502 7.85942 9.9502 8.52246V22.1725C9.9502 22.8355 10.2136 23.4714 10.6824 23.9402C11.1513 24.4091 11.7872 24.6725 12.4502 24.6725H22.4202C23.0832 24.6725 23.7191 24.4091 24.188 23.9402C24.6568 23.4714 24.9202 22.8355 24.9202 22.1725V8.50246C24.9149 7.84289 24.6492 7.21213 24.1809 6.74761C23.7127 6.28308 23.0798 6.02244 22.4202 6.02246ZM23.4202 22.1725C23.4202 22.4377 23.3148 22.692 23.1273 22.8796C22.9398 23.0671 22.6854 23.1725 22.4202 23.1725H12.4502C12.185 23.1725 11.9306 23.0671 11.7431 22.8796C11.5556 22.692 11.4502 22.4377 11.4502 22.1725V8.50246C11.4502 8.23724 11.5556 7.98289 11.7431 7.79535C11.9306 7.60782 12.185 7.50246 12.4502 7.50246H22.4202C22.6854 7.50246 22.9398 7.60782 23.1273 7.79535C23.3148 7.98289 23.4202 8.23724 23.4202 8.50246V22.1725Z" fill="white"/>
<path d="M19.5348 26.0225H9.58984C9.32463 26.0225 9.07027 25.9171 8.88274 25.7296C8.6952 25.542 8.58984 25.2877 8.58984 25.0225V11.3875C8.58984 11.1885 8.51083 10.9978 8.37017 10.8571C8.22952 10.7165 8.03876 10.6375 7.83984 10.6375C7.64093 10.6375 7.45017 10.7165 7.30951 10.8571C7.16886 10.9978 7.08984 11.1885 7.08984 11.3875V25.0275C7.08984 25.6905 7.35324 26.3264 7.82208 26.7952C8.29092 27.2641 8.9268 27.5275 9.58984 27.5275H19.5348C19.7344 27.5275 19.9258 27.4482 20.0669 27.307C20.2081 27.1659 20.2873 26.9745 20.2873 26.775C20.2873 26.5754 20.2081 26.384 20.0669 26.2429C19.9258 26.1017 19.7344 26.0225 19.5348 26.0225Z" fill="white"/>
</svg>
