<svg width="20" height="21" viewBox="0 0 20 21" fill="none" xmlns="http://www.w3.org/2000/svg">
<path d="M4.11484 13.9708C3.89364 13.9708 3.71484 14.15 3.71484 14.3708V16.824C3.71484 17.0448 3.89364 17.224 4.11484 17.224H15.3148C15.536 17.224 15.7148 17.0448 15.7148 16.824V14.3708C15.7148 14.15 15.536 13.9708 15.3148 13.9708C15.0936 13.9708 14.9148 14.15 14.9148 14.3708V16.424H4.51484V14.3708C4.51484 14.15 4.33604 13.9708 4.11484 13.9708Z" fill="#D1D1F0"/>
<path d="M9.73355 14.7709C9.95475 14.7709 10.1335 14.5917 10.1335 14.3709V5.76687L12.6707 8.21767C12.7479 8.29287 12.8483 8.33007 12.9483 8.33007C13.0531 8.33007 13.1575 8.28927 13.2359 8.20807C13.3895 8.04927 13.3851 7.79607 13.2263 7.64247L10.0171 4.54207L10.0163 4.54127L10.0111 4.53647C9.99675 4.52247 9.97875 4.51647 9.96315 4.50527C9.93755 4.48687 9.91395 4.46647 9.88475 4.45447C9.83915 4.43567 9.79075 4.42687 9.74195 4.42567C9.73915 4.42567 9.73635 4.42407 9.73355 4.42407C9.73075 4.42407 9.72795 4.42567 9.72515 4.42567C9.67635 4.42687 9.62835 4.43567 9.58235 4.45447C9.55315 4.46647 9.52955 4.48687 9.50395 4.50487C9.48835 4.51647 9.47035 4.52247 9.45595 4.53647L9.45115 4.54087L9.45035 4.54167L6.24115 7.64207C6.08235 7.79567 6.07795 8.04887 6.23155 8.20767C6.38435 8.36647 6.63875 8.37127 6.79675 8.21727L9.33395 5.76647V14.3705C9.33355 14.5917 9.51235 14.7709 9.73355 14.7709Z" fill="#D1D1F0"/>
</svg>
