<svg width="24" height="24" viewBox="0 0 24 24" fill="none" xmlns="http://www.w3.org/2000/svg">
<path d="M19.1025 18.9375H4.5C4.35082 18.9375 4.20774 18.9968 4.10225 19.1023C3.99676 19.2077 3.9375 19.3508 3.9375 19.5C3.9375 19.6492 3.99676 19.7923 4.10225 19.8977C4.20774 20.0032 4.35082 20.0625 4.5 20.0625H19.1025C19.2517 20.0625 19.3948 20.0032 19.5002 19.8977C19.6057 19.7923 19.665 19.6492 19.665 19.5C19.665 19.3508 19.6057 19.2077 19.5002 19.1023C19.3948 18.9968 19.2517 18.9375 19.1025 18.9375Z" fill="#CD14EB"/>
<path d="M19.38 4.64249C18.3188 3.58124 16.425 3.74624 15.1575 5.01749L7.59002 12.5812C7.51967 12.6504 7.46916 12.7372 7.44377 12.8325L6.31877 17.0175C6.2949 17.1127 6.29617 17.2124 6.32245 17.3069C6.34873 17.4015 6.39913 17.4876 6.4687 17.5568C6.53827 17.6259 6.62463 17.6759 6.71931 17.7016C6.81399 17.7274 6.91373 17.7281 7.00877 17.7037L11.19 16.5787C11.2855 16.5557 11.3725 16.5063 11.4413 16.4362L17.9475 9.92249L19.0088 8.86124C20.1563 7.76624 20.5313 5.77499 19.38 4.64249Z" fill="#CD14EB"/>
</svg>
