<svg width="24" height="24" viewBox="0 0 24 24" fill="none" xmlns="http://www.w3.org/2000/svg">
<path d="M18.7239 6.49875H15.7014V4.5C15.7014 4.35082 15.6421 4.20774 15.5366 4.10225C15.4311 3.99676 15.2881 3.9375 15.1389 3.9375H8.86137C8.71218 3.9375 8.56911 3.99676 8.46362 4.10225C8.35813 4.20774 8.29887 4.35082 8.29887 4.5V6.49875H5.27637C5.12718 6.49875 4.98411 6.55801 4.87862 6.6635C4.77313 6.76899 4.71387 6.91207 4.71387 7.06125C4.71387 7.21043 4.77313 7.35351 4.87862 7.459C4.98411 7.56449 5.12718 7.62375 5.27637 7.62375H6.00012V18C6.00111 18.5454 6.21845 19.0681 6.60444 19.4533C6.99042 19.8386 7.5135 20.055 8.05887 20.055H15.9714C16.5115 20.0471 17.0269 19.8273 17.4065 19.4428C17.786 19.0584 17.9992 18.5402 18.0001 18V7.62375H18.7089C18.8581 7.62574 19.0019 7.56838 19.1088 7.4643C19.2157 7.36022 19.2769 7.21793 19.2789 7.06875C19.2809 6.91957 19.2235 6.7757 19.1194 6.66881C19.0153 6.56191 18.8731 6.50074 18.7239 6.49875ZM9.42387 5.0625H14.5764V6.49875H9.42387V5.0625ZM11.0626 16.3125C11.0626 16.4617 11.0034 16.6048 10.8979 16.7102C10.7924 16.8157 10.6493 16.875 10.5001 16.875C10.3509 16.875 10.2079 16.8157 10.1024 16.7102C9.99688 16.6048 9.93762 16.4617 9.93762 16.3125V10.2638C9.93762 10.1146 9.99688 9.97149 10.1024 9.866C10.2079 9.76051 10.3509 9.70125 10.5001 9.70125C10.6493 9.70125 10.7924 9.76051 10.8979 9.866C11.0034 9.97149 11.0626 10.1146 11.0626 10.2638V16.3125ZM14.0626 16.3125C14.0626 16.4617 14.0034 16.6048 13.8979 16.7102C13.7924 16.8157 13.6493 16.875 13.5001 16.875C13.3509 16.875 13.2079 16.8157 13.1024 16.7102C12.9969 16.6048 12.9376 16.4617 12.9376 16.3125V10.2638C12.9376 10.1146 12.9969 9.97149 13.1024 9.866C13.2079 9.76051 13.3509 9.70125 13.5001 9.70125C13.6493 9.70125 13.7924 9.76051 13.8979 9.866C14.0034 9.97149 14.0626 10.1146 14.0626 10.2638V16.3125Z" fill="#A80F0F"/>
</svg>
