<svg width="30" height="31" viewBox="0 0 30 31" fill="none" xmlns="http://www.w3.org/2000/svg">
<path d="M10.993 4.60455H12.6703C12.8627 4.60453 13.0501 4.54364 13.2057 4.43059C13.3613 4.31753 13.4772 4.15813 13.5367 3.9752L14.055 2.37986C14.1144 2.19692 14.2302 2.0375 14.3858 1.92444C14.5415 1.81138 14.7289 1.75049 14.9212 1.75049C15.1136 1.75049 15.301 1.81138 15.4566 1.92444C15.6122 2.0375 15.728 2.19692 15.7875 2.37986L16.3058 3.9752C16.3653 4.15813 16.4811 4.31754 16.6367 4.43059C16.7923 4.54364 16.9798 4.60454 17.1721 4.60455H18.8495C19.0418 4.60461 19.2291 4.66553 19.3847 4.77859C19.5403 4.89165 19.6561 5.05104 19.7155 5.23394C19.7749 5.41683 19.7749 5.61384 19.7155 5.79675C19.6561 5.97965 19.5404 6.13907 19.3848 6.25216L18.0278 7.23803C17.8722 7.3511 17.7564 7.51052 17.6969 7.69345C17.6375 7.87637 17.6375 8.07341 17.6969 8.25634L18.2152 9.85164C18.2747 10.0346 18.2747 10.2316 18.2152 10.4146C18.1558 10.5975 18.04 10.7569 17.8844 10.87C17.7288 10.9831 17.5414 11.044 17.349 11.044C17.1567 11.044 16.9693 10.9831 16.8137 10.87L15.4567 9.88403C15.301 9.77102 15.1136 9.71015 14.9213 9.71015C14.7289 9.71015 14.5415 9.77102 14.3859 9.88403L13.0288 10.87C12.8732 10.9831 12.6858 11.044 12.4934 11.044C12.3011 11.044 12.1137 10.9831 11.9581 10.87C11.8025 10.7569 11.6867 10.5975 11.6272 10.4146C11.5678 10.2316 11.5678 10.0346 11.6273 9.85164L12.1453 8.25653C12.2047 8.0736 12.2047 7.87656 12.1453 7.69363C12.0859 7.51071 11.9701 7.35129 11.8145 7.23822L10.4578 6.25216C10.3023 6.13908 10.1865 5.97968 10.1271 5.79679C10.0677 5.6139 10.0677 5.41691 10.1271 5.23403C10.1866 5.05114 10.3023 4.89175 10.4578 4.77867C10.6134 4.6656 10.8007 4.60465 10.993 4.60455Z" fill="#5F27CD"/>
<path d="M17.3719 13.4927L12.6998 13.4927C12.5472 13.4927 12.396 13.5227 12.255 13.5812C12.1139 13.6396 11.9858 13.7252 11.8778 13.8332C11.7699 13.9411 11.6843 14.0693 11.6258 14.2103C11.5674 14.3513 11.5373 14.5025 11.5373 14.6552L11.5373 28.1164C11.5373 28.4246 11.6598 28.7202 11.8778 28.9382C12.0957 29.1562 12.3914 29.2786 12.6996 29.2786H17.3714C17.6797 29.2786 17.9754 29.1561 18.1934 28.9381C18.4114 28.7201 18.5339 28.4244 18.5339 28.1161V14.6549C18.5339 14.3467 18.4114 14.0512 18.1935 13.8332C17.9756 13.6152 17.6801 13.4928 17.3719 13.4927Z" fill="#5F27CD"/>
<path d="M26.9093 17.5745H22.2375C22.0849 17.5744 21.9337 17.6045 21.7927 17.6629C21.6516 17.7213 21.5235 17.8069 21.4155 17.9148C21.3076 18.0227 21.2219 18.1509 21.1635 18.2919C21.1051 18.4329 21.075 18.5841 21.075 18.7367L21.075 28.1164C21.075 28.4247 21.1975 28.7204 21.4155 28.9384C21.6335 29.1564 21.9292 29.2789 22.2375 29.2789H26.9088C27.2171 29.2789 27.5128 29.1564 27.7308 28.9384C27.9489 28.7204 28.0713 28.4247 28.0713 28.1164L28.0713 18.7367C28.0713 18.4285 27.9489 18.1329 27.731 17.915C27.5131 17.697 27.2175 17.5745 26.9093 17.5745Z" fill="#5F27CD"/>
<path d="M7.83386 17.5745H3.16192C2.85361 17.5745 2.55792 17.6969 2.33991 17.915C2.1219 18.133 1.99942 18.4286 1.99942 18.737L1.99942 28.1163C1.99942 28.4246 2.1219 28.7203 2.33991 28.9383C2.55792 29.1563 2.85361 29.2788 3.16192 29.2788H7.83339C8.14171 29.2788 8.4374 29.1563 8.65541 28.9383C8.87342 28.7203 8.9959 28.4246 8.9959 28.1163L8.9959 18.7366C8.99586 18.4284 8.87342 18.1328 8.65551 17.9149C8.4376 17.697 8.14205 17.5745 7.83386 17.5745Z" fill="#5F27CD"/>
</svg>
