<svg width="60" height="61" viewBox="0 0 60 61" fill="none" xmlns="http://www.w3.org/2000/svg">
<path d="M52.5 3.11621H7.5C6.13324 3.11869 4.82317 3.66273 3.85672 4.62918C2.89027 5.59563 2.34622 6.9057 2.34375 8.27246V53.2725C2.34622 54.6392 2.89027 55.9493 3.85672 56.9158C4.82317 57.8821 6.13324 58.4263 7.5 58.4287H52.5C53.8668 58.4263 55.1768 57.8821 56.1433 56.9158C57.1097 55.9493 57.6538 54.6392 57.6562 53.2725V8.27246C57.6538 6.9057 57.1097 5.59563 56.1433 4.62918C55.1768 3.66273 53.8668 3.11869 52.5 3.11621ZM7.5 5.92871H52.5C53.1216 5.92871 53.7177 6.17564 54.1573 6.61518C54.5968 7.05471 54.8438 7.65086 54.8438 8.27246V44.6756L43.125 32.9475C42.8616 32.6836 42.5041 32.5353 42.1312 32.535C41.7584 32.5353 41.4009 32.6836 41.1375 32.9475L33.375 40.7193L19.6031 26.9568C19.4732 26.8253 19.3185 26.7209 19.1479 26.6496C18.9773 26.5784 18.7943 26.5416 18.6094 26.5416C18.4245 26.5416 18.2415 26.5784 18.0709 26.6496C17.9003 26.7209 17.7456 26.8253 17.6156 26.9568L5.15625 39.4162V8.27246C5.15625 7.65086 5.40318 7.05471 5.84272 6.61518C6.28225 6.17564 6.8784 5.92871 7.5 5.92871ZM5.15625 53.2725V43.3912L18.6094 29.9381L44.2875 55.6162H7.5C6.8784 55.6162 6.28225 55.3693 5.84272 54.9298C5.40318 54.4902 5.15625 53.894 5.15625 53.2725ZM52.5 55.6162H48.2625L35.3531 42.7068L42.1219 35.9287L54.8438 48.6506V53.2725C54.8438 53.894 54.5968 54.4902 54.1573 54.9298C53.7177 55.3693 53.1216 55.6162 52.5 55.6162Z" fill="#7510F5"/>
<path d="M31.0773 23.985C32.416 23.985 33.7247 23.588 34.8378 22.8443C35.9509 22.1005 36.8185 21.0434 37.3308 19.8065C37.8431 18.5698 37.9772 17.2088 37.716 15.8957C37.4548 14.5828 36.8102 13.3767 35.8636 12.4301C34.9169 11.4834 33.7108 10.8388 32.3978 10.5776C31.0848 10.3164 29.7239 10.4505 28.487 10.9628C27.2502 11.475 26.1931 12.3426 25.4492 13.4558C24.7055 14.5689 24.3086 15.8775 24.3086 17.2163C24.311 19.0107 25.0249 20.7309 26.2938 21.9998C27.5627 23.2686 29.2829 23.9825 31.0773 23.985ZM31.0773 13.26C31.8598 13.26 32.6247 13.4921 33.2753 13.9268C33.9258 14.3615 34.4329 14.9793 34.7324 15.7022C35.0318 16.4252 35.1102 17.2207 34.9576 17.9881C34.8048 18.7556 34.4281 19.4605 33.8747 20.0138C33.3215 20.567 32.6165 20.9439 31.8491 21.0965C31.0817 21.2491 30.2862 21.1708 29.5633 20.8713C28.8404 20.5719 28.2226 20.0649 27.7878 19.4143C27.3531 18.7636 27.1211 17.9987 27.1211 17.2163C27.1211 16.6967 27.2234 16.1822 27.4222 15.7022C27.6211 15.2223 27.9124 14.7861 28.2798 14.4188C28.6472 14.0514 29.0833 13.76 29.5633 13.5612C30.0433 13.3623 30.5578 13.26 31.0773 13.26Z" fill="#7510F5"/>
</svg>
