<svg width="80" height="81" viewBox="0 0 80 81" fill="none" xmlns="http://www.w3.org/2000/svg">
<path d="M47.9861 40.3613H19.0277C18.1445 40.3613 17.4277 41.0765 17.4277 41.9613V60.3229C17.4277 61.2077 18.1445 61.9229 19.0277 61.9229H47.9861C48.8693 61.9229 49.5861 61.2077 49.5861 60.3229V41.9613C49.5861 41.0765 48.8693 40.3613 47.9861 40.3613ZM46.3861 58.7229H20.6277V43.5613H46.3861V58.7229Z" fill="#7510F5"/>
<path d="M66.6424 43.3516L53.7496 46.55C53.036 46.726 52.5352 47.3676 52.5352 48.1036V54.286C52.5352 55.0268 53.0424 55.6684 53.7624 55.8428L66.6552 58.9356C66.7784 58.966 66.9048 58.9788 67.028 58.9788C67.3848 58.9788 67.7336 58.8604 68.0184 58.6348C68.404 58.3324 68.628 57.8684 68.628 57.3788V44.9052C68.628 44.4124 68.4008 43.9484 68.0136 43.6444C67.6248 43.3404 67.1192 43.2332 66.6424 43.3516ZM65.428 55.3484L55.7352 53.0252V49.3548L65.428 46.95V55.3484Z" fill="#7510F5"/>
<path d="M24.3404 37.0157C27.7148 37.0157 30.4619 34.3533 30.4619 31.0797C30.4619 27.8061 27.7164 25.1421 24.3404 25.1421C20.9644 25.1421 18.2188 27.8061 18.2188 31.0797C18.2188 34.3533 20.966 37.0157 24.3404 37.0157ZM24.3404 28.3421C25.9516 28.3421 27.2619 29.5709 27.2619 31.0797C27.2619 32.5885 25.9516 33.8157 24.3404 33.8157C22.7292 33.8157 21.4188 32.5885 21.4188 31.0797C21.4188 29.5709 22.7308 28.3421 24.3404 28.3421Z" fill="#7510F5"/>
<path d="M41.1336 20.3229C36.372 20.3229 32.5 24.0669 32.5 28.6701C32.5 33.2733 36.372 37.0173 41.1336 37.0173C45.8952 37.0173 49.7672 33.2733 49.7672 28.6701C49.7672 24.0669 45.8952 20.3229 41.1336 20.3229ZM41.1336 33.8157C38.1368 33.8157 35.7 31.5069 35.7 28.6685C35.7 25.8301 38.1368 23.5213 41.1336 23.5213C44.1304 23.5213 46.5672 25.8301 46.5672 28.6685C46.5672 31.5069 44.1304 33.8157 41.1336 33.8157Z" fill="#7510F5"/>
</svg>
