<svg width="81" height="81" viewBox="0 0 81 81" fill="none" xmlns="http://www.w3.org/2000/svg">
<path d="M40.4997 4.10571C20.281 4.10571 3.83301 20.5537 3.83301 40.7724C3.83301 60.9912 20.281 77.4391 40.4997 77.4391C60.7185 77.4391 77.1664 60.9912 77.1664 40.7724C77.1664 20.5537 60.7185 4.10571 40.4997 4.10571ZM40.4997 74.1057C22.12 74.1057 7.16645 59.1526 7.16645 40.7724C7.16645 22.3923 22.12 7.43915 40.4997 7.43915C58.8794 7.43915 73.833 22.3923 73.833 40.7724C73.833 59.1526 58.8794 74.1057 40.4997 74.1057Z" fill="#7510F5"/>
<path d="M40.5003 12.4392C24.8768 12.4392 12.167 25.1495 12.167 40.7725C12.167 56.3955 24.8768 69.1058 40.5003 69.1058C56.1237 69.1058 68.8336 56.3959 68.8336 40.7725C68.8336 25.1491 56.1237 12.4392 40.5003 12.4392ZM40.5003 65.7725C26.7153 65.7725 15.5003 54.5575 15.5003 40.7725C15.5003 26.9875 26.7153 15.7725 40.5003 15.7725C54.2853 15.7725 65.5003 26.9875 65.5003 40.7725C65.5003 54.5575 54.2853 65.7725 40.5003 65.7725Z" fill="#7510F5"/>
<path d="M42.2623 39.6815C41.8651 39.5301 41.494 39.3894 41.1734 39.2478C40.8528 39.1062 40.4654 38.9581 40.0398 38.7965C37.5554 37.8534 35.5004 36.9089 35.5004 34.8903C35.5004 33.8556 36.4128 32.6987 37.7693 32.0123C40.2442 30.7608 43.387 31.2392 46.18 33.2917C46.3562 33.423 46.5566 33.5181 46.7698 33.5716C46.9829 33.6251 47.2045 33.6359 47.4218 33.6034C47.6391 33.571 47.8479 33.4958 48.0361 33.3824C48.2242 33.2689 48.3881 33.1194 48.5183 32.9423C48.6484 32.7653 48.7423 32.5642 48.7945 32.3508C48.8466 32.1373 48.856 31.9156 48.8222 31.6985C48.7884 31.4814 48.7119 31.2731 48.5973 31.0857C48.4826 30.8982 48.332 30.7353 48.1542 30.6062C46.2521 29.2078 44.1975 28.3609 42.167 28.0865V24.9392C42.1691 24.719 42.1276 24.5005 42.0448 24.2964C41.962 24.0924 41.8396 23.9067 41.6846 23.7502C41.5296 23.5938 41.3452 23.4695 41.1419 23.3848C40.9386 23.3 40.7206 23.2563 40.5004 23.2563C40.2801 23.2563 40.0621 23.3 39.8588 23.3848C39.6555 23.4695 39.4711 23.5938 39.3161 23.7502C39.1611 23.9067 39.0387 24.0924 38.9559 24.2964C38.8731 24.5005 38.8316 24.719 38.8337 24.9392V28.1705C37.9409 28.3377 37.076 28.6297 36.2645 29.0378C33.7368 30.3167 32.167 32.559 32.167 34.8903C32.167 39.3728 36.5184 41.0251 38.8565 41.9126C39.2211 42.0509 39.5523 42.1755 39.8275 42.2976C40.1945 42.4595 40.6186 42.6223 41.0726 42.7958C43.6654 43.7862 45.5006 44.6431 45.5006 46.6551C45.5006 47.6903 44.5882 48.8467 43.2317 49.5336C40.7561 50.7828 37.614 50.3067 34.8211 48.2534C34.4649 47.9916 34.0194 47.882 33.5824 47.9487C33.1455 48.0154 32.7529 48.253 32.4911 48.6091C32.2293 48.9653 32.1197 49.4108 32.1864 49.8478C32.2531 50.2847 32.4907 50.6773 32.8468 50.9391C34.7489 52.3381 36.8034 53.1761 38.834 53.4505V56.7725C38.8383 57.2117 39.0157 57.6315 39.3278 57.9406C39.6399 58.2497 40.0614 58.4231 40.5007 58.4231C40.9399 58.4231 41.3614 58.2497 41.6735 57.9406C41.9856 57.6315 42.1631 57.2117 42.1673 56.7725V53.3662C43.0597 53.202 43.9246 52.913 44.7365 52.5078C47.2642 51.2286 48.834 48.9865 48.834 46.655C48.8337 42.1926 44.72 40.6208 42.2623 39.6815Z" fill="#7510F5"/>
</svg>
