<svg width="38" height="39" viewBox="0 0 38 39" fill="none" xmlns="http://www.w3.org/2000/svg">
<path d="M19 3.93904C27.7445 3.93904 34.8333 11.0279 34.8333 19.7724C34.8333 28.5169 27.7445 35.6057 19 35.6057C10.2555 35.6057 3.16667 28.5169 3.16667 19.7724C3.16667 11.0279 10.2555 3.93904 19 3.93904Z" stroke="#5F27CD" stroke-width="3" stroke-linecap="round" stroke-linejoin="round"/>
<path d="M19 10.2725C24.2467 10.2725 28.5 14.5258 28.5 19.7725C28.5 25.0192 24.2467 29.2725 19 29.2725C13.7533 29.2725 9.5 25.0192 9.5 19.7725C9.5 14.5258 13.7533 10.2725 19 10.2725Z" stroke="#5F27CD" stroke-width="3" stroke-linecap="round" stroke-linejoin="round"/>
<path d="M19 16.6059C20.7489 16.6059 22.1667 18.0236 22.1667 19.7725C22.1667 21.5214 20.7489 22.9392 19 22.9392C17.2511 22.9392 15.8333 21.5214 15.8333 19.7725C15.8333 18.0236 17.2511 16.6059 19 16.6059Z" stroke="#5F27CD" stroke-width="3" stroke-linecap="round" stroke-linejoin="round"/>
</svg>
