<svg width="15" height="16" viewBox="0 0 15 16" fill="none" xmlns="http://www.w3.org/2000/svg">
<path d="M7.5 2.06543C4.14001 2.06543 1.40625 4.79919 1.40625 8.15918C1.40625 11.5192 4.14001 14.2529 7.5 14.2529C10.86 14.2529 13.5938 11.5192 13.5938 8.15918C13.5938 4.79919 10.86 2.06543 7.5 2.06543ZM7.5 3.00293C10.3528 3.00293 12.6562 5.3064 12.6562 8.15918C12.6562 11.012 10.3528 13.3154 7.5 13.3154C4.64722 13.3154 2.34375 11.012 2.34375 8.15918C2.34375 5.3064 4.64722 3.00293 7.5 3.00293ZM7.45605 5.34668C5.89783 5.34668 4.64355 6.60095 4.64355 8.15918C4.64355 9.71741 5.89783 10.9717 7.45605 10.9717C8.58032 10.9717 9.54163 10.2979 9.99023 9.3457L9.14062 8.9502C8.8385 9.5929 8.20679 10.0342 7.45605 10.0342C6.38855 10.0342 5.58105 9.22668 5.58105 8.15918C5.58105 7.09167 6.38855 6.28418 7.45605 6.28418C8.20679 6.28418 8.8385 6.72546 9.14062 7.36816L9.99023 6.97266C9.54163 6.02051 8.58032 5.34668 7.45605 5.34668Z" fill="#91919E"/>
</svg>
