<svg width="15" height="16" viewBox="0 0 15 16" fill="none" xmlns="http://www.w3.org/2000/svg">
<path d="M7.5 2.10742C4.14001 2.10742 1.40625 4.84119 1.40625 8.20117C1.40625 11.5612 4.14001 14.2949 7.5 14.2949C10.86 14.2949 13.5938 11.5612 13.5938 8.20117C13.5938 4.84119 10.86 2.10742 7.5 2.10742ZM7.5 3.04492C10.3528 3.04492 12.6562 5.34839 12.6562 8.20117C12.6562 11.054 10.3528 13.3574 7.5 13.3574C4.64722 13.3574 2.34375 11.054 2.34375 8.20117C2.34375 5.34839 4.64722 3.04492 7.5 3.04492ZM7.45605 5.38867C5.89783 5.38867 4.64355 6.64294 4.64355 8.20117C4.64355 9.7594 5.89783 11.0137 7.45605 11.0137C8.58032 11.0137 9.54163 10.3398 9.99023 9.3877L9.14062 8.99219C8.8385 9.63489 8.20679 10.0762 7.45605 10.0762C6.38855 10.0762 5.58105 9.26868 5.58105 8.20117C5.58105 7.13367 6.38855 6.32617 7.45605 6.32617C8.20679 6.32617 8.8385 6.76746 9.14062 7.41016L9.99023 7.01465C9.54163 6.0625 8.58032 5.38867 7.45605 5.38867Z" fill="#91919E"/>
</svg>
