<svg width="15" height="16" viewBox="0 0 15 16" fill="none" xmlns="http://www.w3.org/2000/svg">
<path d="M7.5 2C4.14001 2 1.40625 4.73376 1.40625 8.09375C1.40625 11.4537 4.14001 14.1875 7.5 14.1875C10.86 14.1875 13.5938 11.4537 13.5938 8.09375C13.5938 4.73376 10.86 2 7.5 2ZM7.5 2.9375C10.3528 2.9375 12.6562 5.24097 12.6562 8.09375C12.6562 10.9465 10.3528 13.25 7.5 13.25C4.64722 13.25 2.34375 10.9465 2.34375 8.09375C2.34375 5.24097 4.64722 2.9375 7.5 2.9375ZM7.45605 5.28125C5.89783 5.28125 4.64355 6.53552 4.64355 8.09375C4.64355 9.65198 5.89783 10.9062 7.45605 10.9062C8.58032 10.9062 9.54163 10.2324 9.99023 9.28027L9.14062 8.88477C8.8385 9.52747 8.20679 9.96875 7.45605 9.96875C6.38855 9.96875 5.58105 9.16125 5.58105 8.09375C5.58105 7.02625 6.38855 6.21875 7.45605 6.21875C8.20679 6.21875 8.8385 6.66003 9.14062 7.30273L9.99023 6.90723C9.54163 5.95508 8.58032 5.28125 7.45605 5.28125Z" fill="#91919E"/>
</svg>
