<svg width="15" height="16" viewBox="0 0 15 16" fill="none" xmlns="http://www.w3.org/2000/svg">
<path d="M7.5 1.67871C4.14001 1.67871 1.40625 4.41248 1.40625 7.77246C1.40625 11.1324 4.14001 13.8662 7.5 13.8662C10.86 13.8662 13.5938 11.1324 13.5938 7.77246C13.5938 4.41248 10.86 1.67871 7.5 1.67871ZM7.5 2.61621C10.3528 2.61621 12.6562 4.91968 12.6562 7.77246C12.6562 10.6252 10.3528 12.9287 7.5 12.9287C4.64722 12.9287 2.34375 10.6252 2.34375 7.77246C2.34375 4.91968 4.64722 2.61621 7.5 2.61621ZM7.45605 4.95996C5.89783 4.95996 4.64355 6.21423 4.64355 7.77246C4.64355 9.33069 5.89783 10.585 7.45605 10.585C8.58032 10.585 9.54163 9.91113 9.99023 8.95898L9.14062 8.56348C8.8385 9.20618 8.20679 9.64746 7.45605 9.64746C6.38855 9.64746 5.58105 8.83997 5.58105 7.77246C5.58105 6.70496 6.38855 5.89746 7.45605 5.89746C8.20679 5.89746 8.8385 6.33875 9.14062 6.98145L9.99023 6.58594C9.54163 5.63379 8.58032 4.95996 7.45605 4.95996Z" fill="#91919E"/>
</svg>
