<svg width="15" height="16" viewBox="0 0 15 16" fill="none" xmlns="http://www.w3.org/2000/svg">
<path d="M7.5 1.90625C4.14001 1.90625 1.40625 4.64001 1.40625 8C1.40625 11.36 4.14001 14.0938 7.5 14.0938C10.86 14.0938 13.5938 11.36 13.5938 8C13.5938 4.64001 10.86 1.90625 7.5 1.90625ZM7.5 2.84375C10.3528 2.84375 12.6562 5.14722 12.6562 8C12.6562 10.8528 10.3528 13.1562 7.5 13.1562C4.64722 13.1562 2.34375 10.8528 2.34375 8C2.34375 5.14722 4.64722 2.84375 7.5 2.84375ZM7.45605 5.1875C5.89783 5.1875 4.64355 6.44177 4.64355 8C4.64355 9.55823 5.89783 10.8125 7.45605 10.8125C8.58032 10.8125 9.54163 10.1387 9.99023 9.18652L9.14062 8.79102C8.8385 9.43372 8.20679 9.875 7.45605 9.875C6.38855 9.875 5.58105 9.0675 5.58105 8C5.58105 6.9325 6.38855 6.125 7.45605 6.125C8.20679 6.125 8.8385 6.56628 9.14062 7.20898L9.99023 6.81348C9.54163 5.86133 8.58032 5.1875 7.45605 5.1875Z" fill="#91919E"/>
</svg>
