<svg width="31" height="31" viewBox="0 0 31 31" fill="none" xmlns="http://www.w3.org/2000/svg">
<path d="M16.9662 5.90032L19.325 10.6797C19.489 11.0121 19.8061 11.2425 20.173 11.2957L25.4476 12.0622C26.3715 12.1965 26.7401 13.3316 26.0718 13.9829L22.2552 17.7032C21.9899 17.9618 21.8687 18.3348 21.9315 18.7L22.8323 23.9531C22.9902 24.8732 22.0244 25.5746 21.1982 25.1406L16.4807 22.6606C16.1527 22.4882 15.7605 22.4882 15.4324 22.6606L10.715 25.1406C9.88872 25.5751 8.92289 24.8732 9.08081 23.9531L9.98164 18.7C10.0445 18.3348 9.92318 17.9618 9.65795 17.7032L5.84131 13.9829C5.17299 13.3312 5.54161 12.1961 6.46556 12.0622L11.7401 11.2957C12.107 11.2425 12.4241 11.0121 12.5882 10.6797L14.9469 5.90032C15.3596 5.06318 16.5531 5.06318 16.9662 5.90032Z" fill="#ED8A19"/>
</svg>
