<svg width="30" height="31" viewBox="0 0 30 31" fill="none" xmlns="http://www.w3.org/2000/svg">
<path d="M13.5338 5.82903L11.175 10.6084C11.011 10.9409 10.6939 11.1712 10.327 11.2244L5.05244 11.9909C4.12849 12.1252 3.75986 13.2603 4.42818 13.9116L8.24482 17.6319C8.51006 17.8906 8.63133 18.2635 8.56851 18.6287L7.66768 23.8818C7.50976 24.8019 8.47559 25.5033 9.30183 25.0693L14.0193 22.5893C14.3473 22.417 14.7395 22.417 15.0676 22.5893L19.785 25.0693C20.6113 25.5038 21.5771 24.8019 21.4192 23.8818L20.5184 18.6287C20.4555 18.2635 20.5768 17.8906 20.8421 17.6319L24.6587 13.9116C25.327 13.2599 24.9584 12.1248 24.0344 11.9909L18.7599 11.2244C18.393 11.1712 18.0759 10.9409 17.9118 10.6084L15.5531 5.82903C15.1404 4.99189 13.9469 4.99189 13.5338 5.82903Z" fill="#ED8A19"/>
</svg>
