<svg width="25" height="25" viewBox="0 0 25 25" fill="none" xmlns="http://www.w3.org/2000/svg">
<g clip-path="url(#clip0_1_514)">
<path d="M9.67348 1.79876L11.5605 5.6223C11.6917 5.88823 11.9454 6.07249 12.2389 6.11507L16.4585 6.72825C17.1977 6.83573 17.4926 7.74381 16.9579 8.26485L13.9046 11.241C13.6924 11.448 13.5954 11.7464 13.6457 12.0385L14.3663 16.241C14.4927 16.977 13.72 17.5382 13.059 17.191L9.28505 15.207C9.02261 15.0691 8.70887 15.0691 8.44643 15.207L4.67245 17.191C4.01146 17.5386 3.2388 16.977 3.36513 16.241L4.0858 12.0385C4.13605 11.7464 4.03903 11.448 3.82685 11.241L0.773535 8.26485C0.238882 7.74346 0.533779 6.83539 1.27294 6.72825L5.49258 6.11507C5.78608 6.07249 6.03979 5.88823 6.17101 5.6223L8.058 1.79876C8.38815 1.12905 9.34298 1.12905 9.67348 1.79876Z" fill="#ED8A19"/>
</g>
<defs>
<clipPath id="clip0_1_514">
<rect width="24" height="24" fill="white" transform="translate(0.5 0.772461)"/>
</clipPath>
</defs>
</svg>
