<svg width="24" height="25" viewBox="0 0 24 25" fill="none" xmlns="http://www.w3.org/2000/svg">
<path d="M9.17348 1.79879L11.0605 5.62233C11.1917 5.88826 11.4454 6.07252 11.7389 6.1151L15.9585 6.72828C16.6977 6.83576 16.9926 7.74384 16.4579 8.26488L13.4046 11.2411C13.1924 11.448 13.0954 11.7464 13.1457 12.0385L13.8663 16.241C13.9927 16.9771 13.22 17.5382 12.559 17.191L8.78505 15.207C8.52261 15.0691 8.20887 15.0691 7.94643 15.207L4.17245 17.191C3.51146 17.5386 2.7388 16.9771 2.86513 16.241L3.5858 12.0385C3.63605 11.7464 3.53903 11.448 3.32685 11.2411L0.273535 8.26488C-0.261118 7.74349 0.0337786 6.83542 0.772939 6.72828L4.99258 6.1151C5.28608 6.07252 5.53979 5.88826 5.67101 5.62233L7.558 1.79879C7.88815 1.12908 8.84298 1.12908 9.17348 1.79879Z" fill="#ED8A19"/>
</svg>
