<svg width="30" height="31" viewBox="0 0 30 31" fill="none" xmlns="http://www.w3.org/2000/svg">
<path d="M16.4662 5.90032L18.825 10.6797C18.989 11.0121 19.3061 11.2425 19.673 11.2957L24.9476 12.0622C25.8715 12.1965 26.2401 13.3316 25.5718 13.9829L21.7552 17.7032C21.4899 17.9618 21.3687 18.3348 21.4315 18.7L22.3323 23.9531C22.4902 24.8732 21.5244 25.5746 20.6982 25.1406L15.9807 22.6606C15.6527 22.4882 15.2605 22.4882 14.9324 22.6606L10.215 25.1406C9.38872 25.5751 8.42289 24.8732 8.58081 23.9531L9.48164 18.7C9.54446 18.3348 9.42318 17.9618 9.15795 17.7032L5.34131 13.9829C4.67299 13.3312 5.04161 12.1961 5.96556 12.0622L11.2401 11.2957C11.607 11.2425 11.9241 11.0121 12.0882 10.6797L14.4469 5.90032C14.8596 5.06318 16.0531 5.06318 16.4662 5.90032Z" fill="#ED8A19"/>
</svg>
