<svg width="30" height="30" viewBox="0 0 30 30" fill="none" xmlns="http://www.w3.org/2000/svg">
<path d="M13.5338 5.62785L11.175 10.4073C11.011 10.7397 10.6939 10.97 10.327 11.0232L5.05244 11.7897C4.12849 11.9241 3.75986 13.0592 4.42818 13.7105L8.24482 17.4307C8.51006 17.6894 8.63133 18.0624 8.56851 18.4275L7.66768 23.6807C7.50976 24.6007 8.47559 25.3022 9.30183 24.8681L14.0193 22.3881C14.3473 22.2158 14.7395 22.2158 15.0676 22.3881L19.785 24.8681C20.6113 25.3026 21.5771 24.6007 21.4192 23.6807L20.5184 18.4275C20.4555 18.0624 20.5768 17.6894 20.8421 17.4307L24.6587 13.7105C25.327 13.0587 24.9584 11.9236 24.0344 11.7897L18.7599 11.0232C18.393 10.97 18.0759 10.7397 17.9118 10.4073L15.5531 5.62785C15.1404 4.79072 13.9469 4.79072 13.5338 5.62785Z" fill="#ED8A19"/>
</svg>
