<svg width="24" height="25" viewBox="0 0 24 25" fill="none" xmlns="http://www.w3.org/2000/svg">
<g clip-path="url(#clip0_0_2694)">
<path d="M9.17299 1.11996L11.06 4.94349C11.1912 5.20942 11.4449 5.39369 11.7384 5.43627L15.958 6.04944C16.6972 6.15693 16.9921 7.065 16.4575 7.58605L13.4041 10.5622C13.192 10.7692 13.0949 11.0676 13.1452 11.3597L13.8659 15.5622C13.9922 16.2982 13.2195 16.8594 12.5585 16.5122L8.78456 14.5282C8.52212 14.3903 8.20838 14.3903 7.94594 14.5282L4.17196 16.5122C3.51098 16.8598 2.73831 16.2982 2.86465 15.5622L3.58531 11.3597C3.63556 11.0676 3.53855 10.7692 3.32636 10.5622L0.273046 7.58605C-0.261606 7.06465 0.0332903 6.15658 0.772451 6.04944L4.99209 5.43627C5.28559 5.39369 5.53931 5.20942 5.67053 4.94349L7.55751 1.11996C7.88766 0.450248 8.84249 0.450248 9.17299 1.11996Z" fill="#ED8A19"/>
</g>
<defs>
<clipPath id="clip0_0_2694">
<rect width="24" height="24" fill="white" transform="translate(0 0.09375)"/>
</clipPath>
</defs>
</svg>
