<svg width="24" height="24" viewBox="0 0 24 24" fill="none" xmlns="http://www.w3.org/2000/svg">
<path d="M9.17348 1.02621L11.0605 4.84974C11.1917 5.11567 11.4454 5.29994 11.7389 5.34252L15.9585 5.95569C16.6977 6.06318 16.9926 6.97125 16.4579 7.4923L13.4046 10.4685C13.1924 10.6754 13.0954 10.9738 13.1457 11.2659L13.8663 15.4685C13.9927 16.2045 13.22 16.7657 12.559 16.4184L8.78505 14.4344C8.52261 14.2966 8.20887 14.2966 7.94643 14.4344L4.17245 16.4184C3.51146 16.766 2.7388 16.2045 2.86513 15.4685L3.5858 11.2659C3.63605 10.9738 3.53903 10.6754 3.32685 10.4685L0.273535 7.4923C-0.261118 6.9709 0.0337786 6.06283 0.772939 5.95569L4.99258 5.34252C5.28608 5.29994 5.53979 5.11567 5.67101 4.84974L7.558 1.02621C7.88815 0.356498 8.84298 0.356498 9.17348 1.02621Z" fill="#ED8A19"/>
</svg>
