<svg width="30" height="31" viewBox="0 0 30 31" fill="none" xmlns="http://www.w3.org/2000/svg">
<path d="M16.4662 6.40032L18.825 11.1797C18.989 11.5121 19.3061 11.7425 19.673 11.7957L24.9476 12.5622C25.8715 12.6965 26.2401 13.8316 25.5718 14.4829L21.7552 18.2032C21.4899 18.4618 21.3687 18.8348 21.4315 19.2L22.3323 24.4531C22.4902 25.3732 21.5244 26.0746 20.6982 25.6406L15.9807 23.1606C15.6527 22.9882 15.2605 22.9882 14.9324 23.1606L10.215 25.6406C9.38872 26.0751 8.42289 25.3732 8.58081 24.4531L9.48164 19.2C9.54446 18.8348 9.42318 18.4618 9.15795 18.2032L5.34131 14.4829C4.67299 13.8312 5.04161 12.6961 5.96556 12.5622L11.2401 11.7957C11.607 11.7425 11.9241 11.5121 12.0882 11.1797L14.4469 6.40032C14.8596 5.56318 16.0531 5.56318 16.4662 6.40032Z" fill="#ED8A19"/>
</svg>
