<svg width="32" height="33" viewBox="0 0 32 33" fill="none" xmlns="http://www.w3.org/2000/svg">
<path d="M16 3.77246C18.5712 3.77246 21.0846 4.5349 23.2224 5.96336C25.3602 7.39181 27.0265 9.42214 28.0104 11.7976C28.9944 14.173 29.2518 16.7869 28.7502 19.3086C28.2486 21.8304 27.0105 24.1468 25.1924 25.9648C23.3743 27.7829 21.0579 29.0211 18.5362 29.5227C16.0144 30.0243 13.4005 29.7668 11.0251 28.7829C8.64967 27.799 6.61935 26.1327 5.19089 23.9949C3.76243 21.857 2.99999 19.3436 2.99999 16.7725C3.00363 13.3258 4.37444 10.0213 6.81163 7.58409C9.24881 5.14691 12.5533 3.7761 16 3.77246ZM16 27.7725C18.1756 27.7725 20.3023 27.1273 22.1113 25.9186C23.9202 24.7099 25.3301 22.992 26.1627 20.982C26.9952 18.972 27.2131 16.7603 26.7886 14.6265C26.3642 12.4927 25.3165 10.5327 23.7782 8.99429C22.2398 7.45591 20.2798 6.40826 18.146 5.98382C16.0122 5.55939 13.8005 5.77722 11.7905 6.60979C9.78049 7.44235 8.06252 8.85225 6.85383 10.6612C5.64513 12.4701 4.99999 14.5969 4.99999 16.7725C5.0033 19.6888 6.16329 22.4848 8.22547 24.547C10.2877 26.6092 13.0836 27.7692 16 27.7725ZM10.2925 16.065C10.1995 16.1578 10.1258 16.2681 10.0754 16.3895C10.0251 16.5109 9.99921 16.641 9.99921 16.7725C9.99921 16.9039 10.0251 17.034 10.0754 17.1554C10.1258 17.2768 10.1995 17.3871 10.2925 17.48L14.2925 21.48C14.4801 21.6676 14.7346 21.773 15 21.773C15.2654 21.773 15.5199 21.6676 15.7075 21.48C15.8951 21.2923 16.0006 21.0378 16.0006 20.7725C16.0006 20.5071 15.8951 20.2526 15.7075 20.065L13.4137 17.7725H21C21.2652 17.7725 21.5196 17.6671 21.7071 17.4796C21.8946 17.292 22 17.0377 22 16.7725C22 16.5072 21.8946 16.2529 21.7071 16.0654C21.5196 15.8778 21.2652 15.7725 21 15.7725H13.4137L15.7075 13.48C15.8951 13.2923 16.0006 13.0378 16.0006 12.7725C16.0006 12.5071 15.8951 12.2526 15.7075 12.065C15.5199 11.8773 15.2654 11.7719 15 11.7719C14.7346 11.7719 14.4801 11.8773 14.2925 12.065L10.2925 16.065Z" fill="#7510F5"/>
</svg>
