<svg width="102" height="69" viewBox="0 0 102 69" fill="none" xmlns="http://www.w3.org/2000/svg">
<rect x="0.5" y="1.27246" width="101" height="67" rx="9.5" fill="#303038"/>
<path d="M27.9058 36.7541C26.8117 41.1425 22.367 43.8132 17.9781 42.7189C13.591 41.6248 10.9203 37.1798 12.0149 32.7917C13.1085 28.4028 17.5532 25.7319 21.9408 26.8259C26.3294 27.92 28.9999 32.3655 27.9058 36.7541Z" fill="#F7931A"/>
<path d="M23.5712 33.6056C23.7342 32.5156 22.9043 31.9296 21.7695 31.5387L22.1377 30.0622L21.2389 29.8382L20.8805 31.2758C20.6442 31.217 20.4016 31.1614 20.1604 31.1064L20.5214 29.6593L19.6231 29.4353L19.2547 30.9113C19.0592 30.8668 18.8672 30.8227 18.6808 30.7764L18.6818 30.7718L17.4423 30.4623L17.2033 31.4223C17.2033 31.4223 17.8701 31.5751 17.856 31.5846C18.22 31.6754 18.2858 31.9163 18.2748 32.1073L17.8555 33.7894C17.8806 33.7958 17.9131 33.805 17.9489 33.8193C17.919 33.8119 17.887 33.8037 17.854 33.7958L17.2662 36.1521C17.2217 36.2627 17.1088 36.4286 16.8543 36.3656C16.8633 36.3787 16.2011 36.2026 16.2011 36.2026L15.7549 37.2314L16.9245 37.5229C17.1421 37.5775 17.3553 37.6346 17.5652 37.6883L17.1933 39.1817L18.091 39.4057L18.4594 37.9282C18.7046 37.9947 18.9427 38.0562 19.1756 38.114L18.8085 39.5847L19.7073 39.8086L20.0793 38.318C21.6119 38.6081 22.7643 38.4911 23.2494 37.1049C23.6403 35.9888 23.2299 35.345 22.4236 34.9252C23.0108 34.7898 23.4532 34.4035 23.5712 33.6056ZM21.5177 36.4852C21.2399 37.6013 19.3607 36.9979 18.7515 36.8466L19.245 34.8681C19.8543 35.0202 21.8079 35.3212 21.5177 36.4852ZM21.7957 33.5895C21.5422 34.6047 19.9781 34.0889 19.4708 33.9624L19.9182 32.168C20.4256 32.2944 22.0596 32.5304 21.7957 33.5895Z" fill="white"/>
<path d="M35.7747 31.5371C36.439 31.5371 37.013 31.6561 37.4952 31.8899C37.9798 32.1259 38.3797 32.4438 38.7004 32.8437C39.0168 33.2456 39.2523 33.7153 39.4044 34.2536C39.5554 34.7935 39.6312 35.3738 39.6312 35.9951C39.6312 36.9494 39.4564 37.851 39.1033 38.7009C38.7503 39.552 38.2714 40.2903 37.6621 40.92C37.0534 41.549 36.3346 42.0448 35.5057 42.4112C34.6781 42.7777 33.7783 42.961 32.8122 42.961C32.6873 42.961 32.4676 42.9574 32.1574 42.951C31.8471 42.9446 31.4905 42.9126 31.0912 42.8586C30.6893 42.8026 30.2644 42.7196 29.8156 42.6085C29.3671 42.4995 28.9412 42.3467 28.54 42.1526L32.1269 27.0811L35.3396 26.5833L34.0553 31.9316C34.3302 31.8077 34.6072 31.7117 34.8837 31.6418C35.1604 31.5729 35.4573 31.5371 35.7747 31.5371ZM33.08 40.4124C33.5638 40.4124 34.0197 40.2934 34.448 40.0597C34.8775 39.8257 35.2482 39.5098 35.5587 39.1164C35.8692 38.7211 36.115 38.276 36.2941 37.7786C36.4733 37.2812 36.564 36.7623 36.564 36.2224C36.564 35.5592 36.4531 35.0418 36.2322 34.6678C36.0113 34.2954 35.6025 34.108 35.0088 34.108C34.8143 34.108 34.5637 34.1451 34.2529 34.2114C33.9411 34.2818 33.6621 34.428 33.412 34.6479L32.0445 40.3277C32.1269 40.3423 32.1999 40.3561 32.2621 40.3692C32.323 40.3832 32.3903 40.3932 32.4574 40.4001C32.5283 40.4081 32.6095 40.4122 32.7075 40.4122C32.8056 40.4122 32.9282 40.4124 33.08 40.4124ZM42.9629 42.6725H39.8943L42.4857 31.7683H45.5752L42.9629 42.6725ZM44.456 30.4397C44.0278 30.4397 43.6394 30.3122 43.2949 30.0567C42.9475 29.8028 42.7755 29.4119 42.7755 28.8851C42.7755 28.5953 42.8344 28.3234 42.9511 28.067C43.0696 27.811 43.2245 27.5906 43.4185 27.4032C43.6123 27.2173 43.8368 27.0689 44.0918 26.957C44.3483 26.8469 44.6211 26.7919 44.9119 26.7919C45.34 26.7919 45.7262 26.9194 46.0721 27.1748C46.4166 27.4316 46.5899 27.8225 46.5899 28.3465C46.5899 28.6373 46.5313 28.9102 46.4136 29.1662C46.2966 29.4221 46.1417 29.6425 45.9477 29.8299C45.7554 30.016 45.5289 30.164 45.2744 30.2748C45.0177 30.3867 44.7458 30.4397 44.456 30.4397ZM48.2644 29.0515L51.4783 28.5536L50.6891 31.7677H54.1311L53.5095 34.2964H50.0883L49.1769 38.1106C49.093 38.4285 49.0454 38.7255 49.0321 39.0014C49.017 39.2787 49.052 39.5167 49.135 39.7172C49.2174 39.9181 49.3656 40.073 49.5806 40.1825C49.7946 40.2939 50.1011 40.35 50.503 40.35C50.8339 40.35 51.1565 40.3185 51.4683 40.256C51.7783 40.1946 52.0924 40.1091 52.4103 39.9972L52.6392 42.3615C52.2245 42.5136 51.7755 42.6444 51.2917 42.7544C50.8071 42.8661 50.2334 42.9198 49.5704 42.9198C48.6171 42.9198 47.8781 42.7782 47.3515 42.4964C46.8257 42.2125 46.454 41.8247 46.2316 41.3337C46.0122 40.8445 45.9141 40.2806 45.9415 39.6452C45.9699 39.0083 46.0659 38.3389 46.2316 37.6339L48.2644 29.0515ZM53.9959 38.3182C53.9959 37.379 54.148 36.4933 54.4518 35.6641C54.7552 34.8342 55.1921 34.1085 55.7591 33.4857C56.3241 32.8659 57.0124 32.375 57.8226 32.0145C58.629 31.6561 59.5319 31.4754 60.5269 31.4754C61.1497 31.4754 61.706 31.5343 62.1954 31.6523C62.6869 31.7713 63.1316 31.9252 63.5337 32.1182L62.4755 34.5245C62.199 34.4123 61.912 34.3135 61.6153 34.2239C61.3184 34.1326 60.9559 34.0885 60.5271 34.0885C59.5029 34.0885 58.6933 34.4415 58.0907 35.1452C57.4904 35.8495 57.1881 36.7974 57.1881 37.9864C57.1881 38.6912 57.3401 39.261 57.6452 39.6969C57.9489 40.1329 58.5097 40.3497 59.324 40.3497C59.7259 40.3497 60.1137 40.3077 60.4852 40.2258C60.8594 40.1429 61.1899 40.0384 61.481 39.915L61.7101 42.3817C61.322 42.5322 60.894 42.6682 60.4245 42.7872C59.954 42.9021 59.3939 42.9618 58.7445 42.9618C57.8872 42.9618 57.1614 42.8364 56.5678 42.5893C55.9739 42.3385 55.4832 42.0054 55.0966 41.5836C54.7081 41.1607 54.429 40.6669 54.2565 40.1001C54.084 39.5339 53.9959 38.939 53.9959 38.3182ZM67.6272 42.9618C66.8948 42.9618 66.2587 42.8502 65.7191 42.6293C65.181 42.4083 64.7353 42.0983 64.3828 41.6964C64.0298 41.2966 63.7656 40.8228 63.5847 40.2767C63.4037 39.731 63.3166 39.1266 63.3166 38.4644C63.3166 37.6337 63.45 36.8033 63.7196 35.9751C63.9878 35.1452 64.3859 34.3995 64.9127 33.7368C65.4354 33.073 66.0803 32.5303 66.8395 32.1072C67.598 31.6869 68.4704 31.4754 69.4503 31.4754C70.1694 31.4754 70.8022 31.5873 71.3493 31.8082C71.8937 32.0286 72.3422 32.3412 72.6968 32.741C73.0475 33.1429 73.314 33.6147 73.4931 34.1615C73.6736 34.7062 73.7627 35.3121 73.7627 35.9749C73.7627 36.803 73.6311 37.6334 73.37 38.4641C73.1087 39.2907 72.7208 40.0382 72.2089 40.7025C71.6979 41.3652 71.059 41.9076 70.2915 42.329C69.5251 42.7503 68.6363 42.9618 67.6272 42.9618ZM69.1608 34.0888C68.7059 34.0888 68.3038 34.2209 67.9595 34.4817C67.6139 34.7456 67.3236 35.0774 67.0896 35.4775C66.8531 35.8794 66.6777 36.3177 66.5592 36.794C66.4417 37.2715 66.3841 37.7228 66.3841 38.1515C66.3841 38.8435 66.4957 39.3823 66.7151 39.7701C66.9376 40.1559 67.3372 40.35 67.918 40.35C68.3744 40.35 68.7745 40.2189 69.1209 39.9552C69.4644 39.6934 69.755 39.3613 69.9907 38.9605C70.2257 38.5606 70.4026 38.1211 70.5211 37.6439C70.6371 37.168 70.6962 36.7142 70.6962 36.2862C70.6962 35.596 70.5851 35.0559 70.3637 34.6686C70.1425 34.2828 69.7411 34.0888 69.1608 34.0888ZM77.1064 42.6725H74.0353L76.6267 31.7683H79.7177L77.1064 42.6725ZM78.5973 30.4397C78.1693 30.4397 77.7812 30.3122 77.4371 30.0567C77.0916 29.8028 76.918 29.4119 76.918 28.8851C76.918 28.5953 76.9776 28.3234 77.0946 28.067C77.2116 27.811 77.3675 27.5906 77.5615 27.4032C77.7543 27.2173 77.9809 27.0689 78.2353 26.957C78.4903 26.8469 78.7632 26.7919 79.0529 26.7919C79.482 26.7919 79.8695 26.9194 80.2146 27.1748C80.5599 27.4316 80.7343 27.8225 80.7343 28.3465C80.7343 28.6373 80.6723 28.9102 80.5563 29.1662C80.4404 29.4221 80.2845 29.6425 80.0912 29.8299C79.8967 30.016 79.6729 30.164 79.418 30.2748C79.161 30.3867 78.8886 30.4397 78.5973 30.4397ZM81.9292 32.2641C82.1621 32.196 82.4222 32.1141 82.7051 32.025C82.989 31.9359 83.3062 31.853 83.6604 31.7782C84.0109 31.7012 84.4064 31.6387 84.8413 31.5904C85.2762 31.5409 85.7718 31.5169 86.3224 31.5169C87.9408 31.5169 89.0564 31.9882 89.6723 32.9279C90.2877 33.8676 90.3942 35.1537 89.9948 36.7838L88.5833 42.6715H85.4946L86.8626 36.9077C86.946 36.5478 87.0116 36.1999 87.0599 35.86C87.1088 35.5231 87.106 35.2261 87.0489 34.9691C86.9944 34.7152 86.8659 34.5073 86.6665 34.3463C86.464 34.1878 86.1581 34.1082 85.7431 34.1082C85.343 34.1082 84.936 34.1512 84.5206 34.2342L82.5093 42.6712H79.4193L81.9292 32.2641Z" fill="white"/>
<rect x="0.5" y="1.27246" width="101" height="67" rx="9.5" stroke="#464957"/>
</svg>
