<svg width="50" height="50" viewBox="0 0 50 50" fill="none" xmlns="http://www.w3.org/2000/svg">
<path fill-rule="evenodd" clip-rule="evenodd" d="M5.24833 16.2974C4.16666 18.2735 4.16666 20.6573 4.16666 25.4248V28.5937C4.16666 36.7205 4.16666 40.784 6.60744 43.3086C9.04822 45.8333 12.9766 45.8333 20.8333 45.8333H29.1667C37.0234 45.8333 40.9518 45.8333 43.3926 43.3086C45.8333 40.784 45.8333 36.7205 45.8333 28.5937V25.4248C45.8333 20.6573 45.8333 18.2735 44.7517 16.2974C43.67 14.3213 41.6939 13.0948 37.7416 10.6419L33.5749 8.05598C29.3971 5.46311 27.3082 4.16667 25 4.16667C22.6918 4.16667 20.6029 5.46311 16.4251 8.05599L12.2584 10.6419C8.30613 13.0948 6.33 14.3213 5.24833 16.2974ZM23.4375 37.5C23.4375 38.363 24.1371 39.0625 25 39.0625C25.8629 39.0625 26.5625 38.363 26.5625 37.5V31.25C26.5625 30.3871 25.8629 29.6875 25 29.6875C24.1371 29.6875 23.4375 30.3871 23.4375 31.25V37.5Z" fill="white"/>
</svg>
