<svg width="50" height="50" viewBox="0 0 50 50" fill="none" xmlns="http://www.w3.org/2000/svg">
<path d="M11.979 14.5833C11.1161 14.5833 10.4165 15.2828 10.4165 16.1458C10.4165 17.0087 11.1161 17.7083 11.979 17.7083H20.3123C21.1753 17.7083 21.8748 17.0087 21.8748 16.1458C21.8748 15.2828 21.1753 14.5833 20.3123 14.5833H11.979Z" fill="white"/>
<path fill-rule="evenodd" clip-rule="evenodd" d="M44.1424 16.6746C44.0127 16.6666 43.8715 16.6667 43.7251 16.6668L43.6885 16.6668H37.9476C33.2155 16.6668 29.1665 20.2836 29.1665 25.0001C29.1665 29.7166 33.2155 33.3334 37.9476 33.3334H43.6885L43.7251 33.3334C43.8715 33.3335 44.0127 33.3335 44.1424 33.3256C46.0645 33.2077 47.7643 31.7472 47.9073 29.7072C47.9167 29.5734 47.9166 29.4292 47.9165 29.2956L47.9165 29.2593V20.7408L47.9165 20.7046C47.9166 20.5709 47.9167 20.4267 47.9073 20.293C47.7643 18.253 46.0645 16.7925 44.1424 16.6746ZM37.4386 27.2223C38.6568 27.2223 39.6444 26.2274 39.6444 25.0001C39.6444 23.7728 38.6568 22.7778 37.4386 22.7778C36.2203 22.7778 35.2327 23.7728 35.2327 25.0001C35.2327 26.2274 36.2203 27.2223 37.4386 27.2223Z" fill="white"/>
<path opacity="0.5" d="M44.0403 16.6698C44.0403 14.2102 43.9508 11.5718 42.3785 9.68037C42.2267 9.49779 42.0652 9.3205 41.8931 9.14842C40.334 7.58933 38.357 6.89742 35.9145 6.56903C33.5411 6.24994 30.5086 6.24997 26.6799 6.25H22.2781C18.4495 6.24997 15.4169 6.24994 13.0435 6.56903C10.601 6.89743 8.62402 7.58934 7.06493 9.14843C5.50584 10.7075 4.81393 12.6845 4.48554 15.127C4.16645 17.5004 4.16647 20.5329 4.1665 24.3616V24.5967C4.16647 28.4253 4.16645 31.4579 4.48554 33.8313C4.81393 36.2738 5.50584 38.2508 7.06493 39.8099C8.62402 41.369 10.601 42.0609 13.0435 42.3893C15.4169 42.7084 18.4494 42.7084 22.2781 42.7083H26.6799C30.5085 42.7084 33.5411 42.7084 35.9145 42.3893C38.357 42.0609 40.334 41.369 41.8931 39.8099C42.3192 39.3838 42.681 38.9258 42.9886 38.4345C43.9271 36.9356 44.0403 35.0986 44.0403 33.3302C43.9398 33.3334 43.834 33.3334 43.7252 33.3333L37.9476 33.3333C33.2155 33.3333 29.1665 29.7165 29.1665 25C29.1665 20.2835 33.2155 16.6667 37.9476 16.6667L43.7251 16.6667C43.8339 16.6666 43.9398 16.6666 44.0403 16.6698Z" fill="white"/>
</svg>
