<svg width="50" height="50" viewBox="0 0 50 50" fill="none" xmlns="http://www.w3.org/2000/svg">
<path d="M11.9792 14.5833C11.1162 14.5833 10.4167 15.2828 10.4167 16.1458C10.4167 17.0087 11.1162 17.7083 11.9792 17.7083H20.3125C21.1755 17.7083 21.875 17.0087 21.875 16.1458C21.875 15.2828 21.1755 14.5833 20.3125 14.5833H11.9792Z" fill="white"/>
<path fill-rule="evenodd" clip-rule="evenodd" d="M44.1426 16.6746C44.0129 16.6666 43.8717 16.6667 43.7253 16.6668L43.6887 16.6668H37.9478C33.2157 16.6668 29.1667 20.2836 29.1667 25.0001C29.1667 29.7166 33.2157 33.3334 37.9478 33.3334H43.6887L43.7252 33.3334C43.8717 33.3335 44.0128 33.3335 44.1426 33.3256C46.0647 33.2077 47.7645 31.7472 47.9075 29.7072C47.9168 29.5734 47.9168 29.4292 47.9167 29.2956L47.9167 29.2593V20.7408L47.9167 20.7046C47.9168 20.5709 47.9168 20.4267 47.9075 20.293C47.7645 18.253 46.0647 16.7925 44.1426 16.6746ZM37.4387 27.2223C38.657 27.2223 39.6446 26.2274 39.6446 25.0001C39.6446 23.7728 38.657 22.7778 37.4387 22.7778C36.2205 22.7778 35.2329 23.7728 35.2329 25.0001C35.2329 26.2274 36.2205 27.2223 37.4387 27.2223Z" fill="white"/>
<path opacity="0.5" d="M44.0404 16.6698C44.0404 14.2102 43.951 11.5718 42.3787 9.68037C42.2269 9.49779 42.0653 9.3205 41.8933 9.14842C40.3342 7.58933 38.3572 6.89742 35.9147 6.56903C33.5413 6.24994 30.5087 6.24997 26.6801 6.25H22.2783C18.4497 6.24997 15.4171 6.24994 13.0437 6.56903C10.6012 6.89743 8.6242 7.58934 7.06511 9.14843C5.50602 10.7075 4.81411 12.6845 4.48572 15.127C4.16663 17.5004 4.16666 20.5329 4.16669 24.3616V24.5967C4.16666 28.4253 4.16663 31.4579 4.48572 33.8313C4.81411 36.2738 5.50602 38.2508 7.06511 39.8099C8.6242 41.369 10.6012 42.0609 13.0437 42.3893C15.4171 42.7084 18.4496 42.7084 22.2782 42.7083H26.68C30.5087 42.7084 33.5413 42.7084 35.9147 42.3893C38.3572 42.0609 40.3342 41.369 41.8933 39.8099C42.3193 39.3838 42.6812 38.9258 42.9888 38.4345C43.9272 36.9356 44.0405 35.0986 44.0405 33.3302C43.94 33.3334 43.8341 33.3334 43.7254 33.3333L37.9478 33.3333C33.2157 33.3333 29.1667 29.7165 29.1667 25C29.1667 20.2835 33.2157 16.6667 37.9478 16.6667L43.7253 16.6667C43.8341 16.6666 43.94 16.6666 44.0404 16.6698Z" fill="white"/>
</svg>
