<svg width="50" height="50" viewBox="0 0 50 50" fill="none" xmlns="http://www.w3.org/2000/svg">
<path fill-rule="evenodd" clip-rule="evenodd" d="M5.24817 16.2975C4.1665 18.2736 4.1665 20.6574 4.1665 25.4249V28.5937C4.1665 36.7206 4.1665 40.784 6.60728 43.3087C9.04806 45.8334 12.9764 45.8334 20.8332 45.8334H29.1665C37.0232 45.8334 40.9516 45.8334 43.3924 43.3087C45.8332 40.784 45.8332 36.7206 45.8332 28.5937V25.4249C45.8332 20.6574 45.8332 18.2736 44.7515 16.2975C43.6698 14.3213 41.6937 13.0949 37.7414 10.642L33.5748 8.05606C29.3969 5.46318 27.308 4.16675 24.9998 4.16675C22.6916 4.16675 20.6027 5.46319 16.4249 8.05606L12.2582 10.642C8.30597 13.0949 6.32984 14.3213 5.24817 16.2975ZM23.4373 37.5001C23.4373 38.363 24.1369 39.0626 24.9998 39.0626C25.8628 39.0626 26.5623 38.363 26.5623 37.5001V31.2501C26.5623 30.3871 25.8628 29.6876 24.9998 29.6876C24.1369 29.6876 23.4373 30.3871 23.4373 31.2501V37.5001Z" fill="white"/>
</svg>
