<svg width="50" height="50" viewBox="0 0 50 50" fill="none" xmlns="http://www.w3.org/2000/svg">
<path fill-rule="evenodd" clip-rule="evenodd" d="M4.16675 13.8212C4.16675 8.4892 8.4892 4.16675 13.8212 4.16675C19.1532 4.16675 23.4757 8.4892 23.4757 13.8212C23.4757 19.1532 19.1532 23.4757 13.8212 23.4757C8.4892 23.4757 4.16675 19.1532 4.16675 13.8212Z" fill="white"/>
<path fill-rule="evenodd" clip-rule="evenodd" d="M26.5245 36.1789C26.5245 30.8469 30.8469 26.5245 36.1789 26.5245C41.511 26.5245 45.8334 30.8469 45.8334 36.1789C45.8334 41.511 41.511 45.8334 36.1789 45.8334C30.8469 45.8334 26.5245 41.511 26.5245 36.1789Z" fill="white"/>
<path d="M4.16675 36.4584C4.16675 32.039 4.16675 29.8293 5.53969 28.4564C6.91262 27.0834 9.12233 27.0834 13.5417 27.0834C17.9612 27.0834 20.1709 27.0834 21.5438 28.4564C22.9167 29.8293 22.9167 32.039 22.9167 36.4584C22.9167 40.8778 22.9167 43.0875 21.5438 44.4605C20.1709 45.8334 17.9612 45.8334 13.5417 45.8334C9.12233 45.8334 6.91262 45.8334 5.53969 44.4605C4.16675 43.0875 4.16675 40.8778 4.16675 36.4584Z" fill="white"/>
<path d="M27.0834 13.5417C27.0834 9.12233 27.0834 6.91262 28.4564 5.53969C29.8293 4.16675 32.039 4.16675 36.4584 4.16675C40.8778 4.16675 43.0875 4.16675 44.4605 5.53969C45.8334 6.91262 45.8334 9.12233 45.8334 13.5417C45.8334 17.9612 45.8334 20.1709 44.4605 21.5438C43.0875 22.9167 40.8778 22.9167 36.4584 22.9167C32.039 22.9167 29.8293 22.9167 28.4564 21.5438C27.0834 20.1709 27.0834 17.9612 27.0834 13.5417Z" fill="white"/>
</svg>
