<svg width="51" height="50" viewBox="0 0 51 50" fill="none" xmlns="http://www.w3.org/2000/svg">
<path fill-rule="evenodd" clip-rule="evenodd" d="M4.41663 13.8211C4.41663 8.48908 8.73908 4.16663 14.0711 4.16663C19.4031 4.16663 23.7256 8.48908 23.7256 13.8211C23.7256 19.1531 19.4031 23.4756 14.0711 23.4756C8.73908 23.4756 4.41663 19.1531 4.41663 13.8211Z" fill="white"/>
<path fill-rule="evenodd" clip-rule="evenodd" d="M26.7743 36.1788C26.7743 30.8468 31.0968 26.5243 36.4288 26.5243C41.7608 26.5243 46.0833 30.8468 46.0833 36.1788C46.0833 41.5108 41.7608 45.8333 36.4288 45.8333C31.0968 45.8333 26.7743 41.5108 26.7743 36.1788Z" fill="white"/>
<path d="M4.41663 36.4583C4.41663 32.0389 4.41663 29.8292 5.78956 28.4562C7.1625 27.0833 9.37221 27.0833 13.7916 27.0833C18.211 27.0833 20.4208 27.0833 21.7937 28.4562C23.1666 29.8292 23.1666 32.0389 23.1666 36.4583C23.1666 40.8777 23.1666 43.0874 21.7937 44.4604C20.4208 45.8333 18.211 45.8333 13.7916 45.8333C9.37221 45.8333 7.1625 45.8333 5.78956 44.4604C4.41663 43.0874 4.41663 40.8777 4.41663 36.4583Z" fill="white"/>
<path d="M27.3333 13.5416C27.3333 9.12221 27.3333 6.9125 28.7062 5.53956C30.0792 4.16663 32.2889 4.16663 36.7083 4.16663C41.1277 4.16663 43.3374 4.16663 44.7104 5.53956C46.0833 6.9125 46.0833 9.12221 46.0833 13.5416C46.0833 17.961 46.0833 20.1708 44.7104 21.5437C43.3374 22.9166 41.1277 22.9166 36.7083 22.9166C32.2889 22.9166 30.0792 22.9166 28.7062 21.5437C27.3333 20.1708 27.3333 17.961 27.3333 13.5416Z" fill="white"/>
</svg>
