<svg width="50" height="50" viewBox="0 0 50 50" fill="none" xmlns="http://www.w3.org/2000/svg">
<path fill-rule="evenodd" clip-rule="evenodd" d="M5.24842 16.2975C4.16675 18.2736 4.16675 20.6574 4.16675 25.4249V28.5937C4.16675 36.7206 4.16675 40.784 6.60753 43.3087C9.0483 45.8334 12.9767 45.8334 20.8334 45.8334H29.1667C37.0235 45.8334 40.9519 45.8334 43.3926 43.3087C45.8334 40.784 45.8334 36.7206 45.8334 28.5937V25.4249C45.8334 20.6574 45.8334 18.2736 44.7517 16.2975C43.6701 14.3213 41.694 13.0949 37.7417 10.642L33.575 8.05606C29.3972 5.46318 27.3083 4.16675 25.0001 4.16675C22.6919 4.16675 20.603 5.46319 16.4251 8.05606L12.2585 10.642C8.30622 13.0949 6.33008 14.3213 5.24842 16.2975ZM23.4376 37.5001C23.4376 38.363 24.1371 39.0626 25.0001 39.0626C25.863 39.0626 26.5626 38.363 26.5626 37.5001V31.2501C26.5626 30.3871 25.863 29.6876 25.0001 29.6876C24.1371 29.6876 23.4376 30.3871 23.4376 31.2501V37.5001Z" fill="white"/>
</svg>
