<svg width="50" height="50" viewBox="0 0 50 50" fill="none" xmlns="http://www.w3.org/2000/svg">
<path fill-rule="evenodd" clip-rule="evenodd" d="M4.1665 13.8212C4.1665 8.4892 8.48896 4.16675 13.821 4.16675C19.153 4.16675 23.4754 8.4892 23.4754 13.8212C23.4754 19.1532 19.153 23.4757 13.821 23.4757C8.48896 23.4757 4.1665 19.1532 4.1665 13.8212Z" fill="white"/>
<path fill-rule="evenodd" clip-rule="evenodd" d="M26.5242 36.1789C26.5242 30.8469 30.8467 26.5245 36.1787 26.5245C41.5107 26.5245 45.8332 30.8469 45.8332 36.1789C45.8332 41.511 41.5107 45.8334 36.1787 45.8334C30.8467 45.8334 26.5242 41.511 26.5242 36.1789Z" fill="white"/>
<path d="M4.1665 36.4584C4.1665 32.039 4.1665 29.8293 5.53944 28.4564C6.91238 27.0834 9.12209 27.0834 13.5415 27.0834C17.9609 27.0834 20.1706 27.0834 21.5436 28.4564C22.9165 29.8293 22.9165 32.039 22.9165 36.4584C22.9165 40.8778 22.9165 43.0875 21.5436 44.4605C20.1706 45.8334 17.9609 45.8334 13.5415 45.8334C9.12209 45.8334 6.91238 45.8334 5.53944 44.4605C4.1665 43.0875 4.1665 40.8778 4.1665 36.4584Z" fill="white"/>
<path d="M27.0832 13.5417C27.0832 9.12233 27.0832 6.91262 28.4561 5.53968C29.829 4.16675 32.0388 4.16675 36.4582 4.16675C40.8776 4.16675 43.0873 4.16675 44.4602 5.53968C45.8332 6.91262 45.8332 9.12233 45.8332 13.5417C45.8332 17.9612 45.8332 20.1709 44.4602 21.5438C43.0873 22.9167 40.8776 22.9167 36.4582 22.9167C32.0388 22.9167 29.829 22.9167 28.4561 21.5438C27.0832 20.1709 27.0832 17.9612 27.0832 13.5417Z" fill="white"/>
</svg>
