<svg width="50" height="50" viewBox="0 0 50 50" fill="none" xmlns="http://www.w3.org/2000/svg">
<path fill-rule="evenodd" clip-rule="evenodd" d="M5.24835 16.2975C4.16669 18.2736 4.16669 20.6574 4.16669 25.4249V28.5937C4.16669 36.7206 4.16669 40.784 6.60746 43.3087C9.04824 45.8334 12.9766 45.8334 20.8334 45.8334H29.1667C37.0234 45.8334 40.9518 45.8334 43.3926 43.3087C45.8334 40.784 45.8334 36.7206 45.8334 28.5937V25.4249C45.8334 20.6574 45.8334 18.2736 44.7517 16.2975C43.67 14.3213 41.6939 13.0949 37.7416 10.642L33.575 8.05606C29.3971 5.46318 27.3082 4.16675 25 4.16675C22.6918 4.16675 20.6029 5.46319 16.4251 8.05606L12.2584 10.642C8.30616 13.0949 6.33002 14.3213 5.24835 16.2975ZM23.4375 37.5001C23.4375 38.363 24.1371 39.0626 25 39.0626C25.863 39.0626 26.5625 38.363 26.5625 37.5001V31.2501C26.5625 30.3871 25.863 29.6876 25 29.6876C24.1371 29.6876 23.4375 30.3871 23.4375 31.2501V37.5001Z" fill="white"/>
</svg>
