<svg width="50" height="50" viewBox="0 0 50 50" fill="none" xmlns="http://www.w3.org/2000/svg">
<path d="M11.9792 14.5833C11.1163 14.5833 10.4167 15.2828 10.4167 16.1458C10.4167 17.0087 11.1163 17.7083 11.9792 17.7083H20.3126C21.1755 17.7083 21.8751 17.0087 21.8751 16.1458C21.8751 15.2828 21.1755 14.5833 20.3126 14.5833H11.9792Z" fill="white"/>
<path fill-rule="evenodd" clip-rule="evenodd" d="M44.1426 16.6746C44.0129 16.6666 43.8717 16.6667 43.7253 16.6668L43.6888 16.6668H37.9478C33.2158 16.6668 29.1667 20.2836 29.1667 25.0001C29.1667 29.7166 33.2158 33.3334 37.9478 33.3334H43.6888L43.7253 33.3334C43.8717 33.3335 44.0129 33.3335 44.1426 33.3256C46.0647 33.2077 47.7646 31.7472 47.9075 29.7072C47.9169 29.5734 47.9168 29.4292 47.9167 29.2956L47.9167 29.2593V20.7408L47.9167 20.7046C47.9168 20.5709 47.9169 20.4267 47.9075 20.293C47.7646 18.253 46.0647 16.7925 44.1426 16.6746ZM37.4388 27.2223C38.6571 27.2223 39.6447 26.2274 39.6447 25.0001C39.6447 23.7728 38.6571 22.7778 37.4388 22.7778C36.2205 22.7778 35.2329 23.7728 35.2329 25.0001C35.2329 26.2274 36.2205 27.2223 37.4388 27.2223Z" fill="white"/>
<path opacity="0.5" d="M44.0405 16.6698C44.0405 14.2102 43.9511 11.5718 42.3788 9.68037C42.227 9.49779 42.0654 9.3205 41.8933 9.14842C40.3342 7.58933 38.3573 6.89742 35.9147 6.56903C33.5414 6.24994 30.5088 6.24997 26.6802 6.25H22.2784C18.4497 6.24997 15.4171 6.24994 13.0438 6.56903C10.6012 6.89743 8.62426 7.58934 7.06517 9.14843C5.50608 10.7075 4.81417 12.6845 4.48578 15.127C4.16669 17.5004 4.16672 20.5329 4.16675 24.3616V24.5967C4.16672 28.4253 4.16669 31.4579 4.48578 33.8313C4.81417 36.2738 5.50608 38.2508 7.06517 39.8099C8.62426 41.369 10.6012 42.0609 13.0438 42.3893C15.4171 42.7084 18.4497 42.7084 22.2783 42.7083H26.6801C30.5087 42.7084 33.5414 42.7084 35.9147 42.3893C38.3573 42.0609 40.3342 41.369 41.8933 39.8099C42.3194 39.3838 42.6812 38.9258 42.9888 38.4345C43.9273 36.9356 44.0405 35.0986 44.0405 33.3302C43.9401 33.3334 43.8342 33.3334 43.7254 33.3333L37.9478 33.3333C33.2158 33.3333 29.1667 29.7165 29.1667 25C29.1667 20.2835 33.2158 16.6667 37.9478 16.6667L43.7253 16.6667C43.8341 16.6666 43.9401 16.6666 44.0405 16.6698Z" fill="white"/>
</svg>
