<svg width="50" height="50" viewBox="0 0 50 50" fill="none" xmlns="http://www.w3.org/2000/svg">
<path fill-rule="evenodd" clip-rule="evenodd" d="M4.16669 13.8212C4.16669 8.4892 8.48914 4.16675 13.8212 4.16675C19.1532 4.16675 23.4756 8.4892 23.4756 13.8212C23.4756 19.1532 19.1532 23.4757 13.8212 23.4757C8.48914 23.4757 4.16669 19.1532 4.16669 13.8212Z" fill="white"/>
<path fill-rule="evenodd" clip-rule="evenodd" d="M26.5244 36.1789C26.5244 30.8469 30.8469 26.5245 36.1789 26.5245C41.5109 26.5245 45.8334 30.8469 45.8334 36.1789C45.8334 41.511 41.5109 45.8334 36.1789 45.8334C30.8469 45.8334 26.5244 41.511 26.5244 36.1789Z" fill="white"/>
<path d="M4.16669 36.4584C4.16669 32.039 4.16669 29.8293 5.53962 28.4564C6.91256 27.0834 9.12227 27.0834 13.5417 27.0834C17.9611 27.0834 20.1708 27.0834 21.5437 28.4564C22.9167 29.8293 22.9167 32.039 22.9167 36.4584C22.9167 40.8778 22.9167 43.0875 21.5437 44.4605C20.1708 45.8334 17.9611 45.8334 13.5417 45.8334C9.12227 45.8334 6.91256 45.8334 5.53962 44.4605C4.16669 43.0875 4.16669 40.8778 4.16669 36.4584Z" fill="white"/>
<path d="M27.0834 13.5417C27.0834 9.12233 27.0834 6.91262 28.4563 5.53968C29.8292 4.16675 32.0389 4.16675 36.4584 4.16675C40.8778 4.16675 43.0875 4.16675 44.4604 5.53968C45.8334 6.91262 45.8334 9.12233 45.8334 13.5417C45.8334 17.9612 45.8334 20.1709 44.4604 21.5438C43.0875 22.9167 40.8778 22.9167 36.4584 22.9167C32.0389 22.9167 29.8292 22.9167 28.4563 21.5438C27.0834 20.1709 27.0834 17.9612 27.0834 13.5417Z" fill="white"/>
</svg>
