<svg width="50" height="50" viewBox="0 0 50 50" fill="none" xmlns="http://www.w3.org/2000/svg">
<path d="M11.9792 14.5833C11.1162 14.5833 10.4167 15.2829 10.4167 16.1458C10.4167 17.0088 11.1162 17.7083 11.9792 17.7083H20.3125C21.1754 17.7083 21.875 17.0088 21.875 16.1458C21.875 15.2829 21.1754 14.5833 20.3125 14.5833H11.9792Z" fill="white"/>
<path fill-rule="evenodd" clip-rule="evenodd" d="M44.1425 16.6745C44.0128 16.6666 43.8717 16.6666 43.7252 16.6667L43.6887 16.6667H37.9478C33.2157 16.6667 29.1667 20.2835 29.1667 25C29.1667 29.7165 33.2157 33.3333 37.9478 33.3333H43.6887L43.7252 33.3333C43.8717 33.3334 44.0128 33.3334 44.1425 33.3255C46.0647 33.2076 47.7645 31.7471 47.9075 29.7071C47.9168 29.5733 47.9167 29.4292 47.9167 29.2955L47.9166 29.2592V20.7407L47.9167 20.7045C47.9167 20.5708 47.9168 20.4266 47.9075 20.2929C47.7645 18.2529 46.0647 16.7924 44.1425 16.6745ZM37.4387 27.2222C38.657 27.2222 39.6446 26.2273 39.6446 25C39.6446 23.7727 38.657 22.7778 37.4387 22.7778C36.2204 22.7778 35.2328 23.7727 35.2328 25C35.2328 26.2273 36.2204 27.2222 37.4387 27.2222Z" fill="white"/>
<path opacity="0.5" d="M44.0404 16.6698C44.0404 14.2102 43.951 11.5718 42.3787 9.68037C42.2269 9.49779 42.0653 9.3205 41.8932 9.14842C40.3342 7.58933 38.3572 6.89742 35.9146 6.56903C33.5413 6.24994 30.5087 6.24997 26.6801 6.25H22.2783C18.4497 6.24997 15.4171 6.24994 13.0437 6.56903C10.6012 6.89743 8.62419 7.58934 7.0651 9.14843C5.50601 10.7075 4.8141 12.6845 4.4857 15.127C4.16662 17.5004 4.16664 20.5329 4.16667 24.3616V24.5967C4.16664 28.4253 4.16662 31.4579 4.48571 33.8313C4.8141 36.2738 5.50601 38.2508 7.0651 39.8099C8.62419 41.369 10.6012 42.0609 13.0437 42.3893C15.4171 42.7084 18.4496 42.7084 22.2782 42.7083H26.68C30.5087 42.7084 33.5413 42.7084 35.9146 42.3893C38.3572 42.0609 40.3342 41.369 41.8932 39.8099C42.3193 39.3838 42.6812 38.9258 42.9888 38.4345C43.9272 36.9356 44.0404 35.0986 44.0404 33.3302C43.94 33.3334 43.8341 33.3334 43.7253 33.3333L37.9478 33.3333C33.2157 33.3333 29.1667 29.7165 29.1667 25C29.1667 20.2835 33.2157 16.6667 37.9478 16.6667L43.7252 16.6667C43.834 16.6666 43.94 16.6666 44.0404 16.6698Z" fill="white"/>
</svg>
