<svg width="50" height="50" viewBox="0 0 50 50" fill="none" xmlns="http://www.w3.org/2000/svg">
<path fill-rule="evenodd" clip-rule="evenodd" d="M29.7475 4.48383C28.976 4.16666 27.9979 4.16666 26.0417 4.16666C24.0855 4.16666 23.1074 4.16666 22.3358 4.48383C21.3071 4.90672 20.4898 5.71786 20.0637 6.73881C19.8691 7.20487 19.793 7.74687 19.7632 8.53747C19.7195 9.69932 19.1191 10.7748 18.1045 11.3561C17.09 11.9374 15.8513 11.9157 14.8156 11.3724C14.1108 11.0027 13.5998 10.7971 13.0958 10.7313C11.9919 10.587 10.8754 10.8839 9.99199 11.5567C9.32945 12.0612 8.8404 12.9019 7.8623 14.5832C6.8842 16.2645 6.39514 17.1052 6.28614 17.9269C6.1408 19.0225 6.43996 20.1305 7.11781 21.0072C7.4272 21.4074 7.86203 21.7438 8.53688 22.1646C9.52899 22.7833 10.1673 23.8372 10.1673 25C10.1672 26.1628 9.52888 27.2165 8.53688 27.8351C7.86191 28.256 7.42702 28.5924 7.1176 28.9926C6.43975 29.8693 6.1406 30.9773 6.28593 32.073C6.39494 32.8947 6.88399 33.7353 7.86209 35.4167C8.8402 37.098 9.32925 37.9386 9.99179 38.4432C10.8752 39.1159 11.9916 39.4128 13.0956 39.2686C13.5995 39.2027 14.1105 38.9972 14.8153 38.6275C15.8511 38.0842 17.0898 38.0625 18.1044 38.6438C19.119 39.2252 19.7194 40.3007 19.7632 41.4626C19.793 42.2532 19.8692 42.7951 20.0637 43.2612C20.4898 44.2821 21.3071 45.0933 22.3358 45.5162C23.1074 45.8333 24.0855 45.8333 26.0417 45.8333C27.9979 45.8333 28.976 45.8333 29.7475 45.5162C30.7762 45.0933 31.5936 44.2821 32.0197 43.2612C32.2142 42.7951 32.2903 42.2531 32.3201 41.4624C32.3639 40.3006 32.9642 39.2252 33.9787 38.6438C34.9933 38.0624 36.2321 38.0841 37.2679 38.6274C37.9726 38.997 38.4836 39.2026 38.9875 39.2684C40.0915 39.4127 41.208 39.1158 42.0913 38.443C42.7539 37.9385 43.2429 37.0978 44.221 35.4165C45.1991 33.7352 45.6882 32.8945 45.7972 32.0728C45.9425 30.9772 45.6434 29.8692 44.9655 28.9925C44.6561 28.5923 44.2213 28.2559 43.5463 27.835C42.5543 27.2164 41.916 26.1626 41.9161 24.9998C41.9161 23.8372 42.5544 22.7835 43.5463 22.165C44.2214 21.744 44.6563 21.4076 44.9657 21.0074C45.6436 20.1307 45.9427 19.0226 45.7974 17.927C45.6884 17.1053 45.1993 16.2646 44.2212 14.5833C43.2431 12.902 42.7541 12.0613 42.0915 11.5568C41.2082 10.8841 40.0917 10.5872 38.9877 10.7314C38.4838 10.7973 37.9728 11.0028 37.2681 11.3725C36.2322 11.9158 34.9935 11.9375 33.9789 11.3562C32.9643 10.7748 32.3639 9.69928 32.3201 8.53736C32.2903 7.74682 32.2142 7.20484 32.0197 6.73881C31.5936 5.71786 30.7762 4.90672 29.7475 4.48383ZM26.0417 31.25C29.5197 31.25 32.3393 28.4518 32.3393 25C32.3393 21.5482 29.5197 18.75 26.0417 18.75C22.5636 18.75 19.7441 21.5482 19.7441 25C19.7441 28.4518 22.5636 31.25 26.0417 31.25Z" fill="white"/>
</svg>
