<svg width="50" height="50" viewBox="0 0 50 50" fill="none" xmlns="http://www.w3.org/2000/svg">
<path fill-rule="evenodd" clip-rule="evenodd" d="M29.7475 4.48392C28.976 4.16675 27.9979 4.16675 26.0417 4.16675C24.0855 4.16675 23.1074 4.16675 22.3358 4.48392C21.3071 4.90681 20.4898 5.71795 20.0637 6.7389C19.8691 7.20496 19.793 7.74696 19.7632 8.53756C19.7195 9.69942 19.1191 10.7749 18.1045 11.3562C17.09 11.9375 15.8513 11.9158 14.8156 11.3725C14.1108 11.0028 13.5998 10.7972 13.0958 10.7314C11.9919 10.5871 10.8754 10.884 9.99199 11.5567C9.32945 12.0613 8.8404 12.902 7.8623 14.5833C6.8842 16.2646 6.39514 17.1053 6.28614 17.927C6.1408 19.0226 6.43996 20.1306 7.11781 21.0073C7.4272 21.4075 7.86203 21.7439 8.53688 22.1647C9.52899 22.7834 10.1673 23.8373 10.1673 25.0001C10.1672 26.1628 9.52888 27.2166 8.53688 27.8352C7.86191 28.2561 7.42702 28.5925 7.1176 28.9927C6.43975 29.8694 6.1406 30.9774 6.28593 32.0731C6.39494 32.8948 6.88399 33.7354 7.86209 35.4167C8.8402 37.0981 9.32925 37.9387 9.99179 38.4433C10.8752 39.116 11.9916 39.4129 13.0956 39.2687C13.5995 39.2028 14.1105 38.9973 14.8153 38.6276C15.8511 38.0843 17.0898 38.0625 18.1044 38.6439C19.119 39.2253 19.7194 40.3008 19.7632 41.4627C19.793 42.2533 19.8692 42.7952 20.0637 43.2613C20.4898 44.2822 21.3071 45.0934 22.3358 45.5162C23.1074 45.8334 24.0855 45.8334 26.0417 45.8334C27.9979 45.8334 28.976 45.8334 29.7475 45.5162C30.7762 45.0934 31.5936 44.2822 32.0197 43.2613C32.2142 42.7952 32.2903 42.2532 32.3201 41.4625C32.3639 40.3007 32.9642 39.2253 33.9787 38.6439C34.9933 38.0625 36.2321 38.0841 37.2679 38.6275C37.9726 38.9971 38.4836 39.2027 38.9875 39.2685C40.0915 39.4128 41.208 39.1159 42.0913 38.4431C42.7539 37.9386 43.2429 37.0979 44.221 35.4166C45.1991 33.7353 45.6882 32.8946 45.7972 32.0729C45.9425 30.9773 45.6434 29.8693 44.9655 28.9925C44.6561 28.5924 44.2213 28.256 43.5463 27.8351C42.5543 27.2165 41.916 26.1626 41.9161 24.9999C41.9161 23.8373 42.5544 22.7836 43.5463 22.1651C44.2214 21.7441 44.6563 21.4077 44.9657 21.0075C45.6436 20.1308 45.9427 19.0227 45.7974 17.9271C45.6884 17.1054 45.1993 16.2647 44.2212 14.5834C43.2431 12.9021 42.7541 12.0614 42.0915 11.5569C41.2082 10.8842 40.0917 10.5873 38.9877 10.7315C38.4838 10.7974 37.9728 11.0029 37.2681 11.3726C36.2322 11.9159 34.9935 11.9376 33.9789 11.3563C32.9643 10.7749 32.3639 9.69937 32.3201 8.53745C32.2903 7.74691 32.2142 7.20494 32.0197 6.7389C31.5936 5.71795 30.7762 4.90681 29.7475 4.48392ZM26.0417 31.2501C29.5197 31.2501 32.3393 28.4519 32.3393 25.0001C32.3393 21.5483 29.5197 18.7501 26.0417 18.7501C22.5636 18.7501 19.7441 21.5483 19.7441 25.0001C19.7441 28.4519 22.5636 31.2501 26.0417 31.2501Z" fill="white"/>
</svg>
