<svg width="50" height="50" viewBox="0 0 50 50" fill="none" xmlns="http://www.w3.org/2000/svg">
<path fill-rule="evenodd" clip-rule="evenodd" d="M4.16667 13.8211C4.16667 8.48913 8.48913 4.16667 13.8211 4.16667C19.1532 4.16667 23.4756 8.48913 23.4756 13.8211C23.4756 19.1532 19.1532 23.4756 13.8211 23.4756C8.48913 23.4756 4.16667 19.1532 4.16667 13.8211Z" fill="white"/>
<path fill-rule="evenodd" clip-rule="evenodd" d="M26.5244 36.1789C26.5244 30.8468 30.8468 26.5244 36.1789 26.5244C41.5109 26.5244 45.8333 30.8468 45.8333 36.1789C45.8333 41.5109 41.5109 45.8333 36.1789 45.8333C30.8468 45.8333 26.5244 41.5109 26.5244 36.1789Z" fill="white"/>
<path d="M4.16667 36.4583C4.16667 32.0389 4.16667 29.8292 5.53961 28.4563C6.91255 27.0833 9.12225 27.0833 13.5417 27.0833C17.9611 27.0833 20.1708 27.0833 21.5437 28.4563C22.9167 29.8292 22.9167 32.0389 22.9167 36.4583C22.9167 40.8778 22.9167 43.0875 21.5437 44.4604C20.1708 45.8333 17.9611 45.8333 13.5417 45.8333C9.12225 45.8333 6.91255 45.8333 5.53961 44.4604C4.16667 43.0875 4.16667 40.8778 4.16667 36.4583Z" fill="white"/>
<path d="M27.0833 13.5417C27.0833 9.12225 27.0833 6.91255 28.4563 5.53961C29.8292 4.16667 32.0389 4.16667 36.4583 4.16667C40.8778 4.16667 43.0875 4.16667 44.4604 5.53961C45.8333 6.91255 45.8333 9.12225 45.8333 13.5417C45.8333 17.9611 45.8333 20.1708 44.4604 21.5437C43.0875 22.9167 40.8778 22.9167 36.4583 22.9167C32.0389 22.9167 29.8292 22.9167 28.4563 21.5437C27.0833 20.1708 27.0833 17.9611 27.0833 13.5417Z" fill="white"/>
</svg>
