<svg width="30" height="31" viewBox="0 0 30 31" fill="none" xmlns="http://www.w3.org/2000/svg">
<path d="M21.2883 16.4358L11.9133 25.8108C11.8262 25.8979 11.7228 25.967 11.609 26.0141C11.4952 26.0613 11.3732 26.0855 11.25 26.0855C11.1269 26.0855 11.0049 26.0613 10.8911 26.0141C10.7773 25.967 10.6739 25.8979 10.5868 25.8108C10.4996 25.7237 10.4306 25.6203 10.3834 25.5065C10.3363 25.3927 10.312 25.2707 10.312 25.1475C10.312 25.0243 10.3363 24.9023 10.3834 24.7885C10.4306 24.6747 10.4996 24.5713 10.5868 24.4842L19.2996 15.7725L10.5868 7.06078C10.4108 6.88486 10.312 6.64627 10.312 6.39749C10.312 6.14872 10.4108 5.91013 10.5868 5.73421C10.7627 5.5583 11.0013 5.45947 11.25 5.45947C11.4988 5.45947 11.7374 5.5583 11.9133 5.73421L21.2883 15.1092C21.3755 15.1963 21.4446 15.2997 21.4918 15.4135C21.539 15.5273 21.5633 15.6493 21.5633 15.7725C21.5633 15.8957 21.539 16.0177 21.4918 16.1315C21.4446 16.2453 21.3755 16.3487 21.2883 16.4358Z" fill="white"/>
</svg>
