<svg width="21" height="21" viewBox="0 0 21 21" fill="none" xmlns="http://www.w3.org/2000/svg">
<path d="M14.6922 10.6432L8.4422 16.8932C8.38413 16.9513 8.31519 16.9974 8.23932 17.0288C8.16345 17.0602 8.08213 17.0764 8.00001 17.0764C7.91789 17.0764 7.83657 17.0602 7.7607 17.0288C7.68483 16.9974 7.61589 16.9513 7.55782 16.8932C7.49976 16.8352 7.45369 16.7662 7.42227 16.6903C7.39084 16.6145 7.37466 16.5332 7.37466 16.451C7.37466 16.3689 7.39084 16.2876 7.42227 16.2117C7.45369 16.1359 7.49976 16.0669 7.55782 16.0088L13.3664 10.201L7.55782 4.39322C7.44055 4.27594 7.37466 4.11688 7.37466 3.95103C7.37466 3.78518 7.44055 3.62612 7.55782 3.50884C7.6751 3.39157 7.83416 3.32568 8.00001 3.32568C8.16586 3.32568 8.32492 3.39157 8.4422 3.50884L14.6922 9.75884C14.7503 9.81689 14.7964 9.88582 14.8279 9.96169C14.8593 10.0376 14.8755 10.1189 14.8755 10.201C14.8755 10.2832 14.8593 10.3645 14.8279 10.4404C14.7964 10.5162 14.7503 10.5852 14.6922 10.6432Z" fill="white"/>
</svg>
