<svg width="21" height="21" viewBox="0 0 21 21" fill="none" xmlns="http://www.w3.org/2000/svg">
<path d="M13.4422 16.0088C13.5003 16.0669 13.5463 16.1359 13.5777 16.2117C13.6092 16.2876 13.6254 16.3689 13.6254 16.451C13.6254 16.5332 13.6092 16.6145 13.5777 16.6903C13.5463 16.7662 13.5003 16.8352 13.4422 16.8932C13.3841 16.9513 13.3152 16.9974 13.2393 17.0288C13.1634 17.0602 13.0821 17.0764 13 17.0764C12.9179 17.0764 12.8366 17.0602 12.7607 17.0288C12.6848 16.9974 12.6159 16.9513 12.5578 16.8932L6.30782 10.6432C6.24971 10.5852 6.20361 10.5162 6.17215 10.4404C6.1407 10.3645 6.12451 10.2832 6.12451 10.201C6.12451 10.1189 6.1407 10.0376 6.17215 9.96169C6.20361 9.88582 6.24971 9.81689 6.30782 9.75884L12.5578 3.50884C12.6751 3.39157 12.8342 3.32568 13 3.32568C13.1659 3.32568 13.3249 3.39157 13.4422 3.50884C13.5595 3.62612 13.6254 3.78518 13.6254 3.95103C13.6254 4.11688 13.5595 4.27594 13.4422 4.39322L7.6336 10.201L13.4422 16.0088Z" fill="white"/>
</svg>
