<svg width="16" height="16" viewBox="0 0 16 16" fill="none" xmlns="http://www.w3.org/2000/svg">
<path d="M2.64597 9.64646L7.64597 4.64646C7.69241 4.59997 7.74755 4.56309 7.80825 4.53793C7.86895 4.51277 7.93401 4.49982 7.99972 4.49982C8.06543 4.49982 8.13049 4.51277 8.19119 4.53793C8.25189 4.56309 8.30704 4.59997 8.35347 4.64646L13.3535 9.64646C13.4473 9.74028 13.5 9.86753 13.5 10.0002C13.5 10.1329 13.4473 10.2601 13.3535 10.354C13.2597 10.4478 13.1324 10.5005 12.9997 10.5005C12.867 10.5005 12.7398 10.4478 12.646 10.354L7.99972 5.70709L3.35347 10.354C3.30702 10.4004 3.25187 10.4373 3.19117 10.4624C3.13047 10.4875 3.06542 10.5005 2.99972 10.5005C2.93402 10.5005 2.86897 10.4875 2.80827 10.4624C2.74758 10.4373 2.69243 10.4004 2.64597 10.354C2.59952 10.3075 2.56267 10.2524 2.53753 10.1917C2.51238 10.131 2.49944 10.0659 2.49944 10.0002C2.49944 9.93451 2.51238 9.86946 2.53753 9.80876C2.56267 9.74807 2.59952 9.69292 2.64597 9.64646Z" fill="white"/>
</svg>
