<svg width="16" height="17" viewBox="0 0 16 17" fill="none" xmlns="http://www.w3.org/2000/svg">
<path d="M4.64597 9.12625L9.64597 14.1262C9.69243 14.1727 9.74758 14.2095 9.80827 14.2347C9.86897 14.2598 9.93402 14.2728 9.99972 14.2728C10.0654 14.2728 10.1305 14.2598 10.1912 14.2347C10.2519 14.2095 10.307 14.1727 10.3535 14.1262C10.3999 14.0798 10.4368 14.0246 10.4619 13.9639C10.4871 13.9032 10.5 13.8382 10.5 13.7725C10.5 13.7068 10.4871 13.6417 10.4619 13.581C10.4368 13.5204 10.3999 13.4652 10.3535 13.4187L5.7066 8.77249L10.3535 4.12624C10.4473 4.03242 10.5 3.90518 10.5 3.77249C10.5 3.63981 10.4473 3.51257 10.3535 3.41874C10.2597 3.32492 10.1324 3.27222 9.99972 3.27222C9.86704 3.27222 9.73979 3.32492 9.64597 3.41874L4.64597 8.41874C4.59948 8.46518 4.5626 8.52033 4.53744 8.58102C4.51228 8.64172 4.49933 8.70679 4.49933 8.77249C4.49933 8.8382 4.51228 8.90327 4.53744 8.96396C4.5626 9.02466 4.59948 9.07981 4.64597 9.12625Z" fill="white"/>
</svg>
