<svg width="15" height="16" viewBox="0 0 15 16" fill="none" xmlns="http://www.w3.org/2000/svg">
<path d="M10.6439 8.6041L5.95641 13.2916C5.91286 13.3352 5.86116 13.3697 5.80426 13.3933C5.74735 13.4168 5.68636 13.429 5.62477 13.429C5.56318 13.429 5.50219 13.4168 5.44529 13.3933C5.38839 13.3697 5.33668 13.3352 5.29313 13.2916C5.24958 13.2481 5.21503 13.1963 5.19146 13.1394C5.16789 13.0825 5.15576 13.0216 5.15576 12.96C5.15576 12.8984 5.16789 12.8374 5.19146 12.7805C5.21503 12.7236 5.24958 12.6719 5.29313 12.6283L9.64958 8.27246L5.29313 3.9166C5.20517 3.82865 5.15576 3.70935 5.15576 3.58496C5.15576 3.46057 5.20517 3.34128 5.29313 3.25332C5.38109 3.16536 5.50038 3.11595 5.62477 3.11595C5.74916 3.11595 5.86846 3.16536 5.95641 3.25332L10.6439 7.94082C10.6875 7.98436 10.7221 8.03605 10.7457 8.09296C10.7692 8.14986 10.7814 8.21086 10.7814 8.27246C10.7814 8.33406 10.7692 8.39506 10.7457 8.45197C10.7221 8.50887 10.6875 8.56057 10.6439 8.6041Z" fill="white"/>
</svg>
