<svg width="15" height="16" viewBox="0 0 15 16" fill="none" xmlns="http://www.w3.org/2000/svg">
<path d="M9.70652 12.6283C9.75007 12.6719 9.78462 12.7236 9.80819 12.7805C9.83176 12.8374 9.84389 12.8984 9.84389 12.96C9.84389 13.0216 9.83176 13.0825 9.80819 13.1394C9.78462 13.1963 9.75007 13.2481 9.70652 13.2916C9.66297 13.3352 9.61127 13.3697 9.55436 13.3933C9.49746 13.4168 9.43647 13.429 9.37488 13.429C9.31329 13.429 9.2523 13.4168 9.1954 13.3933C9.13849 13.3697 9.08679 13.3352 9.04324 13.2916L4.35574 8.6041C4.31216 8.56057 4.27758 8.50887 4.25399 8.45197C4.2304 8.39506 4.21826 8.33406 4.21826 8.27246C4.21826 8.21086 4.2304 8.14986 4.25399 8.09296C4.27758 8.03605 4.31216 7.98436 4.35574 7.94082L9.04324 3.25332C9.1312 3.16536 9.25049 3.11595 9.37488 3.11595C9.49927 3.11595 9.61856 3.16536 9.70652 3.25332C9.79448 3.34128 9.84389 3.46057 9.84389 3.58496C9.84389 3.70935 9.79448 3.82865 9.70652 3.9166L5.35008 8.27246L9.70652 12.6283Z" fill="white"/>
</svg>
