<svg width="30" height="31" viewBox="0 0 30 31" fill="none" xmlns="http://www.w3.org/2000/svg">
<path d="M19.413 24.4842C19.5001 24.5713 19.5692 24.6747 19.6164 24.7885C19.6635 24.9023 19.6878 25.0243 19.6878 25.1475C19.6878 25.2707 19.6635 25.3927 19.6164 25.5065C19.5692 25.6203 19.5001 25.7237 19.413 25.8108C19.3259 25.8979 19.2225 25.967 19.1087 26.0141C18.9949 26.0613 18.8729 26.0855 18.7498 26.0855C18.6266 26.0855 18.5046 26.0613 18.3908 26.0141C18.277 25.967 18.1736 25.8979 18.0865 25.8108L8.71148 16.4358C8.62431 16.3487 8.55517 16.2453 8.50799 16.1315C8.46081 16.0177 8.43652 15.8957 8.43652 15.7725C8.43652 15.6493 8.46081 15.5273 8.50799 15.4135C8.55517 15.2997 8.62431 15.1963 8.71148 15.1092L18.0865 5.73421C18.2624 5.5583 18.501 5.45947 18.7498 5.45947C18.9985 5.45947 19.2371 5.5583 19.413 5.73421C19.589 5.91013 19.6878 6.14872 19.6878 6.39749C19.6878 6.64627 19.589 6.88486 19.413 7.06078L10.7002 15.7725L19.413 24.4842Z" fill="white"/>
</svg>
