<svg width="102" height="69" viewBox="0 0 102 69" fill="none" xmlns="http://www.w3.org/2000/svg">
<rect x="0.5" y="1.27246" width="101" height="67" rx="9.5" fill="#303038"/>
<path d="M88.2215 30.0971L86.0621 36.1783L84.048 30.0971H81.9888L85.1202 38.3299L85.0951 38.3847C85.0951 38.3847 84.4638 40.0631 83.8927 40.4716C83.4518 40.6906 82.4247 40.6757 82.0339 40.6509V42.2048C82.7153 42.2048 84.3136 42.2496 84.8246 41.9258C85.4709 41.5224 85.6162 41.353 86.0571 40.4716C86.5381 39.5103 90.2306 30.0971 90.2306 30.0971H88.2215ZM78.141 31.4668V30.0971H76.212V38.3897H78.141V35.232C78.141 34.6792 78.1961 34.1911 78.3464 33.7877C78.9276 32.2786 80.5458 31.8502 81.3876 31.7257L80.7262 30.1419C80.0498 30.2564 78.8674 30.5802 78.141 31.4668ZM44.9032 36.9254C43.4203 36.9254 42.3831 35.7351 42.3831 34.2409C42.3831 32.7816 43.4052 31.5863 44.8081 31.5863C45.7801 31.5863 46.4013 32.0097 46.9925 32.6222L48.1899 31.3522C47.4084 30.5056 46.4163 29.9228 44.823 29.9228C42.3029 29.9228 40.4541 31.9001 40.4541 34.2708C40.4541 36.6415 42.3029 38.574 44.8081 38.574C46.4514 38.574 47.4234 37.9314 48.2551 37.02L47.0877 35.8895C46.4815 36.5021 45.8101 36.9254 44.9032 36.9254ZM74.5086 32.682C74.704 33.3169 74.7887 33.9807 74.7591 34.6443C74.7541 34.7339 74.744 34.8286 74.734 34.9182H68.5414C68.6466 35.5956 68.9222 36.1185 69.3631 36.4821C69.804 36.8457 70.3401 37.025 70.9664 37.025C71.4474 37.025 71.8582 36.9403 72.2089 36.776C72.5947 36.5867 72.9404 36.3377 73.246 36.0389L74.3782 37.03C73.9765 37.4983 73.4861 37.8825 72.9354 38.1606C72.3792 38.4444 71.7079 38.5839 70.9313 38.5839C70.3501 38.5889 69.7739 38.4794 69.2329 38.2701C68.7214 38.07 68.2548 37.7704 67.86 37.3886C67.4661 37.0016 67.1543 36.5391 66.9432 36.0288C66.7177 35.501 66.6075 34.9132 66.6075 34.2758V34.2409C66.6025 33.6681 66.7077 33.1004 66.9131 32.5625C67.1035 32.0545 67.3941 31.5913 67.7649 31.1878C68.1305 30.7994 68.5715 30.4806 69.0625 30.2615C69.5835 30.0324 70.1497 29.9178 70.7209 29.9228C71.3922 29.9228 71.9784 30.0423 72.4844 30.2863C72.9905 30.5254 73.4113 30.8541 73.747 31.2576C74.0939 31.6764 74.353 32.1609 74.5086 32.682ZM72.8502 33.4639C72.8151 33.1601 72.75 33.0755 72.6448 32.8065C72.5446 32.5525 72.3992 32.3135 72.2139 32.1092C72.0336 31.91 71.8131 31.7556 71.5676 31.6461C71.2982 31.5324 71.0081 31.4764 70.7158 31.4817C70.1197 31.4817 69.6286 31.681 69.2378 32.0843C68.8521 32.4877 68.6116 32.8164 68.5264 33.4639H72.8502ZM62.1183 36.1934L59.8537 30.0972H57.7795L61.2416 38.4545H62.9801L66.427 30.0972H64.403L62.1183 36.1934ZM57.3636 32.5526C57.5891 33.0855 57.7043 33.6532 57.6993 34.226V34.2559C57.6993 34.8436 57.5841 35.3965 57.3586 35.9194C57.1369 36.4344 56.8169 36.9013 56.4167 37.2941C56.0059 37.6925 55.5249 38.0112 54.9888 38.2304C54.4176 38.4644 53.8064 38.584 53.1852 38.5741C51.9877 38.584 50.8403 38.1307 49.9836 37.3189C49.5828 36.9254 49.2672 36.4623 49.0517 35.9493C48.8262 35.4214 48.7161 34.8536 48.7161 34.2858V34.2509C48.7161 33.6532 48.8312 33.0954 49.0567 32.5726C49.2785 32.0575 49.5984 31.5906 49.9986 31.1979C50.8504 30.3661 52.0077 29.9079 53.2152 29.9179C53.8665 29.9179 54.4628 30.0274 55.0089 30.2565C56.076 30.6899 56.9227 31.5167 57.3636 32.5526ZM55.7704 34.2559C55.7704 33.8874 55.7053 33.5437 55.58 33.22C55.4598 32.9062 55.2794 32.6174 55.0439 32.3733C54.8135 32.1288 54.5356 31.9339 54.2272 31.8005C53.8966 31.6561 53.5408 31.5814 53.1801 31.5863C52.7993 31.5863 52.4486 31.6561 52.138 31.8005C51.8224 31.9449 51.5568 32.1292 51.3314 32.3683C51.1055 32.6073 50.9315 32.8905 50.8203 33.2C50.6994 33.5301 50.64 33.8796 50.6449 34.2311V34.2609C50.6449 34.6145 50.7101 34.9582 50.8353 35.2819C50.9606 35.6056 51.141 35.8945 51.3714 36.1385C51.5969 36.3826 51.8724 36.5768 52.1881 36.7163C52.5038 36.8558 52.8445 36.9305 53.2152 36.9305C53.9266 36.9454 54.608 36.6565 55.084 36.1435C55.3045 35.9045 55.4747 35.6206 55.595 35.3019C55.7153 34.9781 55.7704 34.6344 55.7704 34.2908V34.2559ZM38.7307 34.2808C38.4717 34.0929 38.1907 33.9373 37.894 33.8176C37.5833 33.6931 37.2777 33.5836 36.9671 33.4889C36.7316 33.4092 36.4962 33.3296 36.2557 33.2548C36.0469 33.1912 35.844 33.1096 35.6494 33.0108C35.491 32.9369 35.3469 32.8357 35.2235 32.712C35.1183 32.6074 35.0632 32.4729 35.0632 32.3285V32.2986C35.0632 32.0595 35.1684 31.8603 35.3739 31.7009C35.5792 31.5465 35.8698 31.4668 36.2406 31.4668C36.5913 31.4668 36.9721 31.5365 37.3879 31.681C37.8038 31.8204 38.2096 32.0147 38.6154 32.2538L39.382 30.904C38.9232 30.6037 38.4238 30.3706 37.899 30.2117C37.3772 30.0467 36.8331 29.9627 36.2857 29.9627C35.8699 29.9627 35.4791 30.0225 35.1133 30.137C34.7626 30.2416 34.4369 30.4109 34.1564 30.64C33.8858 30.8542 33.6703 31.1281 33.52 31.4319C33.3647 31.7408 33.2896 32.0944 33.2896 32.4928V32.5227C33.2896 32.9211 33.3697 33.2548 33.5301 33.5287C33.6904 33.8027 33.8959 34.0268 34.1463 34.2111C34.3968 34.3954 34.6774 34.5448 34.9931 34.6593C35.3087 34.7739 35.6193 34.8735 35.93 34.9582L36.6364 35.1674C36.8669 35.2371 37.0673 35.3117 37.2427 35.4014C37.418 35.4911 37.5583 35.5907 37.6585 35.7052C37.7587 35.8198 37.8138 35.9642 37.8088 36.1137V36.1435C37.8138 36.4025 37.6886 36.6466 37.4681 36.796C37.2377 36.9604 36.917 37.04 36.5011 37.04C36.0352 37.0345 35.5738 36.9468 35.1383 36.7811C34.6373 36.5918 34.1664 36.3377 33.7405 36.019L32.8787 37.304C33.4004 37.708 33.9865 38.0212 34.6123 38.2304C35.2035 38.4345 35.8247 38.5391 36.4561 38.5442C36.8919 38.5442 37.3027 38.4894 37.6836 38.3798C38.0644 38.2702 38.3999 38.1059 38.6806 37.8917C38.9662 37.6775 39.1816 37.4086 39.3419 37.0849C39.5022 36.7611 39.5824 36.3776 39.5824 35.9393V35.9095C39.5824 35.5309 39.5022 35.2122 39.3419 34.9532C39.1866 34.6892 38.9812 34.4651 38.7307 34.2808ZM29.6371 38.3897H31.5661V30.0971H29.6371V38.3897ZM28.5199 32.8165C28.5199 35.9244 26.0949 38.325 22.5878 38.325H19.1908C19.8772 37.8718 20.4485 37.2691 20.8593 36.5669H22.5878C24.9325 36.5669 26.4657 35.013 26.4657 32.8464C26.4657 30.6799 24.9376 29.0911 22.5878 29.0911H20.3883V30.7098C20.0677 30.3114 19.6868 29.9627 19.261 29.6739C18.9955 29.4946 18.7199 29.3451 18.4243 29.2156V27.3379H22.5878C26.0949 27.3379 28.5199 29.7087 28.5199 32.8165Z" fill="white"/>
<path d="M14.6421 30.5379C14.6029 30.5155 14.5634 30.5418 14.5269 30.5348C14.4793 30.5256 14.4494 30.5495 14.4234 30.5798C14.3916 30.6163 14.3621 30.6573 14.3327 30.6976C14.3106 30.7272 14.2896 30.7597 14.3056 30.8001C14.3242 30.8048 14.3431 30.8062 14.3591 30.8149C14.375 30.8233 14.3882 30.8358 14.4029 30.8482C14.4576 30.8157 14.5142 30.8149 14.5705 30.8179C14.6403 30.8233 14.707 30.8157 14.7725 30.7885C14.7927 30.7807 14.8152 30.7815 14.8365 30.7784C14.8505 30.7938 14.8625 30.8087 14.8745 30.8233C14.8962 30.8497 14.9377 30.8233 14.9516 30.8435C14.9671 30.8676 14.9742 30.8932 15.0113 30.8885C15.0113 30.8737 15.0129 30.8582 15.011 30.8435C15.0086 30.8326 15.0028 30.8233 14.9982 30.8124H14.9943C14.9893 30.8156 14.9839 30.8187 14.978 30.8218C14.9776 30.8179 14.9768 30.8139 14.9768 30.8093C14.983 30.811 14.9888 30.811 14.9947 30.8117C14.9951 30.8109 14.9963 30.8109 14.9979 30.8093C14.98 30.7908 14.9629 30.7706 14.9424 30.7474C14.9621 30.7279 14.9807 30.7124 14.9963 30.693C15.0269 30.6558 15.0164 30.6124 14.9695 30.5961C14.9443 30.5861 14.9156 30.5861 14.8916 30.5814C14.8846 30.5573 14.8854 30.5256 14.873 30.5193C14.8373 30.4983 14.8288 30.4588 14.8001 30.4348C14.7769 30.4138 14.766 30.3836 14.7609 30.3487C14.7768 30.3386 14.7916 30.327 14.8074 30.32C14.84 30.3052 14.8443 30.282 14.8381 30.2471C14.8074 30.2665 14.7795 30.2851 14.7493 30.3029C14.7319 30.2897 14.7179 30.2796 14.7001 30.2665C14.6853 30.3099 14.647 30.2757 14.6167 30.2897C14.6236 30.3107 14.6349 30.3301 14.6345 30.3502C14.6337 30.3688 14.6209 30.3881 14.612 30.4107C14.6546 30.4185 14.6904 30.4247 14.7302 30.4309C14.7116 30.4651 14.6991 30.4929 14.6813 30.5177C14.674 30.5293 14.6503 30.5418 14.6433 30.5379M14.8922 30.6721C14.8984 30.6536 14.9162 30.6536 14.9302 30.6558C14.9423 30.6589 14.9516 30.6721 14.971 30.6869C14.9469 30.6985 14.933 30.7109 14.9175 30.7133C14.9024 30.7162 14.8864 30.6876 14.8922 30.6721ZM14.7822 30.465C14.7876 30.4673 14.793 30.4759 14.7996 30.4836C14.7914 30.4914 14.786 30.4998 14.7802 30.5006C14.7666 30.5038 14.7573 30.4944 14.7581 30.482C14.7585 30.4674 14.7694 30.4604 14.7822 30.465ZM14.5809 29.9773C14.5925 29.9881 14.6045 29.9843 14.6173 29.9773C14.6165 29.9765 14.6165 29.9765 14.6157 29.9765H14.5816C14.5812 29.9765 14.5812 29.9765 14.5804 29.9773M14.9039 31.4833C14.8783 31.4507 14.8744 31.4159 14.8725 31.3786C14.8721 31.3678 14.8787 31.3523 14.855 31.3461C14.8375 31.4205 14.8244 31.4919 14.8856 31.5539C14.9182 31.5213 14.9244 31.5105 14.9039 31.4833ZM14.8058 31.2002C14.7829 31.1862 14.7635 31.1917 14.7429 31.201C14.7064 31.2181 14.6984 31.2467 14.7022 31.2824C14.7115 31.2653 14.7263 31.2507 14.7441 31.2607C14.8027 31.2949 14.8357 31.2576 14.8798 31.2243C14.8496 31.2157 14.8255 31.2103 14.8058 31.2002ZM16.1591 32.4008C16.1382 32.3776 16.135 32.3776 16.0878 32.3761C16.1099 32.3884 16.1277 32.4101 16.1591 32.4008ZM14.428 30.0345H14.4277C14.4277 30.04 14.4277 30.0447 14.428 30.0509C14.4284 30.0517 14.4296 30.0517 14.4304 30.0517L14.428 30.0539C14.4404 30.0478 14.4533 30.0415 14.4661 30.0338C14.4653 30.0338 14.4653 30.0338 14.4645 30.0322H14.4319C14.4304 30.0323 14.4296 30.0338 14.428 30.0345ZM14.2528 30.102C14.2543 30.1012 14.2559 30.1005 14.2586 30.0989C14.2563 30.1005 14.2528 30.1012 14.2501 30.102C14.2517 30.102 14.2517 30.1012 14.2531 30.102M14.8015 29.8865C14.793 29.888 14.7852 29.8926 14.7771 29.8957C14.796 29.8895 14.8146 29.8809 14.8348 29.8755C14.8237 29.8802 14.8124 29.8819 14.8015 29.8865ZM16.0986 29.6879C15.7729 29.6879 15.4565 29.7252 15.1512 29.7926C15.1687 29.7903 15.185 29.7856 15.2024 29.7833C15.2699 29.7717 15.3385 29.7678 15.4067 29.7654C15.489 29.7624 15.57 29.7638 15.6522 29.7638C15.6739 29.7638 15.6963 29.7638 15.7174 29.7677C15.729 29.77 15.7491 29.7824 15.7476 29.7863C15.7382 29.8368 15.8085 29.8584 15.7899 29.9135C15.8368 29.9384 15.8841 29.9616 15.931 29.9856C15.9477 29.9941 15.9632 30.0042 15.9783 30.0167C15.9876 30.0229 15.9853 30.0439 15.9744 30.0477C15.9721 30.0493 15.969 30.0524 15.9663 30.0524C15.8763 30.0555 15.791 30.0935 15.6975 30.0802C15.6013 30.0671 15.504 30.0648 15.407 30.057C15.3977 30.0562 15.3881 30.057 15.3799 30.0523C15.3074 30.0174 15.2278 30.0189 15.1511 30.0088C15.0642 29.998 14.9754 30.0018 14.8882 30.0041C14.861 30.0041 14.8315 30.015 14.8075 30.0274C14.7373 30.0693 14.6625 30.0864 14.588 30.0771C14.5577 30.0987 14.5543 30.1205 14.5613 30.1469C14.5667 30.15 14.5722 30.157 14.5764 30.1562C14.6733 30.1453 14.7699 30.1337 14.866 30.1237C14.882 30.1213 14.899 30.1174 14.9134 30.122C14.9855 30.1423 15.0561 30.1244 15.1271 30.1173C15.1977 30.112 15.2058 30.1173 15.2015 30.1918C15.2391 30.2143 15.2756 30.2368 15.2919 30.2895C15.2643 30.2949 15.2407 30.2988 15.2174 30.3042C15.1929 30.3096 15.1689 30.3158 15.1449 30.3213C15.0802 30.336 15.0154 30.3461 14.9494 30.3407C14.9173 30.3391 14.8855 30.3415 14.8622 30.3662C14.8564 30.3716 14.8548 30.3848 14.8587 30.3918C14.8622 30.3973 14.8735 30.4011 14.8816 30.4034C14.8871 30.4042 14.8948 30.4018 14.8995 30.3981C14.9436 30.3593 14.9984 30.3646 15.0515 30.3616C15.0825 30.3608 15.1132 30.3577 15.1512 30.3545C15.1679 30.3654 15.1904 30.3825 15.2155 30.3934C15.2325 30.3995 15.2524 30.4011 15.271 30.3995C15.3039 30.3988 15.3206 30.3794 15.3206 30.346C15.321 30.3367 15.3174 30.3274 15.3174 30.3188C15.3174 30.3118 15.3214 30.3064 15.3244 30.2987C15.3326 30.297 15.3415 30.294 15.3505 30.2956C15.4001 30.3017 15.4497 30.3087 15.4993 30.3188C15.542 30.3281 15.5846 30.3382 15.6261 30.353C15.6661 30.3646 15.706 30.3731 15.7459 30.3608C15.8146 30.3383 15.8821 30.3661 15.9499 30.3631C15.9953 30.3894 16.0422 30.4167 16.0876 30.4422C16.1062 30.4539 16.1236 30.467 16.1434 30.4809C16.229 30.4368 16.3008 30.4841 16.3753 30.5158C16.385 30.5189 16.3923 30.5322 16.4001 30.5414C16.4106 30.5546 16.4032 30.5748 16.3877 30.5794C16.3784 30.5818 16.3691 30.5848 16.3605 30.584C16.3326 30.5794 16.3128 30.5894 16.2946 30.6113C16.2865 30.6197 16.264 30.6291 16.2543 30.6237C16.2178 30.6058 16.1872 30.622 16.1558 30.6338C16.1349 30.6423 16.1159 30.6508 16.0973 30.6585C16.0624 30.6423 16.048 30.6182 16.0446 30.584C16.0414 30.5442 16.0233 30.5071 15.9938 30.4801C15.9775 30.5127 15.969 30.5399 15.9523 30.5593C15.9368 30.5779 15.9127 30.5895 15.8918 30.6043C15.9018 30.6152 15.91 30.6259 15.9189 30.6368C15.9151 30.643 15.9127 30.6508 15.9089 30.6539C15.8887 30.6623 15.8682 30.6694 15.8496 30.6764C15.848 30.6865 15.845 30.6926 15.8464 30.6973C15.8549 30.7199 15.865 30.7423 15.8763 30.7703C15.9311 30.7622 15.9858 30.7534 16.0403 30.7439C16.0477 30.7246 16.0531 30.7067 16.0616 30.6849C16.093 30.6958 16.1209 30.7052 16.152 30.716C16.1609 30.7595 16.1372 30.7905 16.1132 30.8168C16.0745 30.8618 16.0282 30.9006 16.0073 30.9595C16.0011 30.9789 15.9794 30.9844 15.9597 30.9789C15.936 30.9704 15.9143 30.9595 15.8864 30.9472C15.8488 30.9875 15.8111 31.0239 15.7766 31.0627C15.7572 31.0852 15.7712 31.1194 15.7998 31.1301C15.8413 31.1472 15.8413 31.1472 15.8565 31.1852C15.7878 31.2077 15.7553 31.2728 15.6967 31.3147C15.6967 31.3675 15.699 31.4202 15.6959 31.473C15.6928 31.5319 15.6975 31.5846 15.7553 31.6203C15.7754 31.6319 15.7766 31.6568 15.7638 31.6792C15.7561 31.6932 15.7518 31.7134 15.7398 31.718C15.689 31.7459 15.6785 31.8034 15.6456 31.8437C15.6099 31.8872 15.5882 31.9468 15.5692 32.0035C15.5475 32.0647 15.5637 32.1229 15.6176 32.1624C15.6692 32.1997 15.7069 32.25 15.7546 32.2904C15.7991 32.3269 15.8112 32.3788 15.822 32.4316C15.8243 32.4425 15.8205 32.4563 15.8166 32.4673C15.7996 32.5059 15.7697 32.5324 15.7332 32.5478C15.7076 32.52 15.746 32.5083 15.7433 32.4843C15.7336 32.4757 15.7224 32.4648 15.7088 32.4578C15.698 32.4516 15.6848 32.4501 15.6739 32.4454C15.6041 32.4075 15.5359 32.3679 15.5188 32.2803C15.4874 32.2687 15.4595 32.2562 15.4265 32.2423C15.402 32.2609 15.3781 32.2796 15.3497 32.3013C15.3346 32.2966 15.3167 32.2873 15.2989 32.2873C15.2745 32.2873 15.2485 32.2896 15.2264 32.2997C15.1895 32.3152 15.1558 32.3385 15.1163 32.3602C15.1147 32.3865 15.1131 32.4144 15.1108 32.4439C15.1085 32.447 15.1039 32.4531 15.0995 32.4548C15.079 32.4625 15.0572 32.4664 15.0387 32.4764C15.0107 32.492 14.982 32.4966 14.949 32.499C14.9033 32.5012 14.8572 32.5144 14.8129 32.5276C14.7919 32.5345 14.7735 32.5475 14.7598 32.5649C14.7206 32.613 14.6838 32.6641 14.6477 32.7169C14.6213 32.7549 14.6143 32.796 14.643 32.8395C14.6663 32.8752 14.669 32.9132 14.6643 32.9558C14.6565 33.0302 14.6868 33.0985 14.7124 33.1652C14.7264 33.2009 14.7581 33.2311 14.7884 33.2583C14.8248 33.2925 14.8663 33.3203 14.9078 33.3483C14.9198 33.356 14.9369 33.3575 14.9523 33.3575C14.9795 33.3591 15.007 33.3591 15.0485 33.3591C15.0904 33.3289 15.1451 33.2924 15.1979 33.2536C15.2378 33.2233 15.2591 33.1831 15.2474 33.1311C15.2436 33.1155 15.2377 33.1008 15.2354 33.0852C15.2307 33.0581 15.2366 33.0334 15.258 33.0178C15.3173 32.9704 15.3739 32.9209 15.4495 32.9007C15.474 32.8954 15.4952 32.9016 15.5046 32.9249C15.5166 32.9551 15.541 32.9854 15.5108 33.0202C15.5046 33.028 15.5054 33.045 15.5088 33.0551C15.522 33.0986 15.5333 33.1404 15.5283 33.1854C15.5251 33.2132 15.5535 33.218 15.562 33.2365C15.555 33.273 15.5403 33.3079 15.5469 33.3467C15.5961 33.3529 15.6217 33.3056 15.6636 33.2986L15.6621 33.2978H15.6628C15.657 33.266 15.6675 33.2504 15.6977 33.2443C15.6996 33.2443 15.7031 33.2458 15.7116 33.2465C15.7109 33.2567 15.7101 33.2675 15.7101 33.2783C15.7116 33.2783 15.7116 33.2783 15.7124 33.2767L15.7101 33.279C15.7221 33.2736 15.7349 33.2713 15.7446 33.2643C15.8101 33.2264 15.8769 33.2309 15.9502 33.2566C15.9591 33.2714 15.9788 33.2892 15.9796 33.3085C15.9812 33.3838 16.0269 33.4435 16.0373 33.5148C16.0471 33.5792 16.0905 33.6148 16.1475 33.6296C16.196 33.6428 16.2464 33.6475 16.296 33.6552C16.319 33.6319 16.3418 33.6141 16.3565 33.5916C16.4027 33.5171 16.4721 33.514 16.5469 33.5217C16.5648 33.524 16.5822 33.5311 16.5962 33.5349C16.6276 33.524 16.6396 33.5001 16.6451 33.4768C16.6498 33.4551 16.6544 33.4318 16.6505 33.41C16.6341 33.3216 16.6796 33.2642 16.7467 33.2239C16.7854 33.2007 16.8029 33.1665 16.8238 33.1324C16.8343 33.1138 16.8417 33.0914 16.8568 33.0782C16.8688 33.0681 16.8932 33.0657 16.9091 33.0703C16.9304 33.0757 16.9332 33.0959 16.9273 33.1162L16.9165 33.1572C16.9509 33.1541 16.9622 33.1316 16.975 33.1122C16.9788 33.0797 16.9564 33.0455 16.9773 33.0129C17.008 33.0082 17.0145 33.044 17.0471 33.0533C17.0913 33.0455 17.1449 33.0347 17.189 33.0812C17.2076 33.0703 17.2247 33.0626 17.2402 33.0517C17.2751 33.03 17.3107 33.0129 17.355 33.0245C17.3728 33.0299 17.3923 33.0261 17.4046 33.0074C17.417 32.9919 17.4201 32.9772 17.4139 32.9555C17.4077 32.9307 17.424 32.912 17.4481 32.9113C17.5473 32.9012 17.5954 32.8733 17.6497 32.7942C17.6854 32.802 17.6567 32.8307 17.6668 32.8469C17.6769 32.8663 17.6808 32.8888 17.6885 32.9121C17.7094 32.9276 17.7319 32.9447 17.7583 32.9649C17.7785 32.9664 17.8033 32.9671 17.8281 32.9687C17.87 32.9687 17.908 32.9819 17.9429 33.0044C17.9553 33.0129 17.9692 33.0207 17.984 33.0261C18.0716 33.0548 18.0786 33.0564 18.1593 33.0044C18.2252 32.9634 18.295 32.9634 18.3679 32.971C18.3896 32.9741 18.4098 32.9843 18.4315 32.9882C18.4749 32.9943 18.5059 33.0168 18.5292 33.0533C18.5448 33.0765 18.5649 33.0998 18.5889 33.1122C18.6378 33.1369 18.6673 33.1727 18.6821 33.2239C18.7324 33.2425 18.7813 33.241 18.831 33.2317C18.8674 33.2247 18.9062 33.2239 18.9419 33.2146C18.9838 33.2062 19.0155 33.22 19.0412 33.2463C19.0706 33.241 19.0947 33.2386 19.1179 33.2316C19.1482 33.2246 19.1824 33.2193 19.2056 33.2022C19.2552 33.1679 19.301 33.1726 19.3483 33.1991C19.3979 33.2269 19.446 33.2579 19.5011 33.2161C19.5577 33.2798 19.5887 33.3433 19.6019 33.4146C19.6167 33.4938 19.6081 33.5713 19.5965 33.6488C19.5903 33.6892 19.5857 33.7295 19.5795 33.7698C19.5763 33.7946 19.5772 33.821 19.5701 33.8434C19.55 33.9134 19.5601 33.9799 19.5725 34.0474C19.5841 34.1126 19.6027 34.1793 19.5973 34.2429C19.5911 34.3266 19.5957 34.4112 19.5763 34.4941C19.5686 34.5205 19.567 34.5492 19.5608 34.5764C19.5468 34.6415 19.5329 34.7036 19.4771 34.7485C19.4422 34.7765 19.4134 34.8075 19.3956 34.8501C19.3918 34.8621 19.3852 34.8731 19.3762 34.8819C19.3266 34.9207 19.308 34.9782 19.2824 35.0324C19.263 35.0727 19.2553 35.1153 19.2645 35.1604C19.2754 35.2177 19.2645 35.2713 19.2381 35.3232C19.235 35.3286 19.2304 35.3332 19.2297 35.3403C19.1994 35.4605 19.1389 35.566 19.0908 35.6785C19.0711 35.7247 19.0494 35.7699 19.0256 35.8141C19.0086 35.8444 18.986 35.87 18.9527 35.8855C18.924 35.8971 18.8968 35.9119 18.8689 35.9259C18.8705 35.932 18.8751 35.9382 18.8736 35.9437C18.8698 35.9763 18.9093 35.9988 18.8968 36.0313C18.8782 36.081 18.8611 36.1322 18.8193 36.1694C18.7795 36.2052 18.7381 36.2391 18.6952 36.271C18.6657 36.292 18.6424 36.3152 18.6409 36.3524C18.637 36.4153 18.5959 36.447 18.5447 36.4688C18.5307 36.4742 18.512 36.4703 18.509 36.492C18.5152 36.5122 18.5291 36.4975 18.54 36.4975C18.5617 36.4975 18.5741 36.5169 18.5641 36.5339C18.5586 36.5417 18.554 36.5494 18.5477 36.5556C18.5369 36.568 18.5206 36.5781 18.516 36.5913C18.4935 36.6603 18.4524 36.7177 18.4027 36.7681C18.4005 36.7712 18.4035 36.7804 18.4043 36.7883H18.4555C18.471 36.8154 18.4577 36.8332 18.4454 36.8519C18.4027 36.9092 18.3608 36.9667 18.3174 37.0264C18.3298 37.0474 18.3407 37.0653 18.3508 37.0831H18.4191V37.08C18.4206 37.08 18.4222 37.0816 18.4238 37.0816C18.4284 37.08 18.433 37.0784 18.4369 37.0777C18.4385 37.0777 18.4393 37.08 18.4408 37.0831C18.4354 37.0831 18.4307 37.0816 18.4238 37.0816C18.423 37.0816 18.4222 37.0815 18.4191 37.0831H18.4175C18.4191 37.0908 18.4222 37.1025 18.4175 37.1064C18.3818 37.1506 18.3391 37.1885 18.2825 37.2041C18.2438 37.2157 18.205 37.2274 18.1647 37.2344C18.0964 37.2467 18.0483 37.2196 18.0235 37.1552C17.9987 37.0908 17.9863 37.0241 18.0111 36.9559C18.0157 36.9381 18.0196 36.9202 18.0205 36.9009C18.022 36.8303 18.022 36.7582 18.0267 36.6867C18.0267 36.6642 18.0344 36.6441 18.0391 36.6239C18.0298 36.6037 18.0189 36.5836 18.0119 36.5626C18.0026 36.5386 18.0034 36.5153 18.0143 36.4897C18.043 36.4238 18.0569 36.3532 18.0608 36.2795C18.0631 36.2321 18.0592 36.1872 18.0391 36.1414C18.0158 36.0841 18.0112 36.0205 18.0158 35.9584C18.0249 35.8651 18.0162 35.7709 17.9902 35.6808C17.9773 35.6391 17.9707 35.5957 17.9709 35.552C17.9693 35.4582 17.9305 35.3751 17.8824 35.2946C17.8033 35.2682 17.7235 35.2465 17.6358 35.2519C17.5644 35.2573 17.4916 35.2503 17.4233 35.2193C17.397 35.2061 17.3683 35.1929 17.3597 35.1565C17.3543 35.1379 17.3333 35.1208 17.3147 35.1115C17.2434 35.0727 17.181 35.02 17.1216 34.9649C17.0635 34.9114 16.9995 34.8672 16.9358 34.8214C16.9099 34.8035 16.8819 34.7897 16.8482 34.7958C16.8168 34.8013 16.7931 34.7889 16.7807 34.7586C16.7792 34.7532 16.7792 34.7447 16.7749 34.7408C16.7191 34.6888 16.7121 34.6306 16.7478 34.5631C16.7575 34.5429 16.7462 34.5204 16.721 34.5112C16.6981 34.5034 16.683 34.4948 16.6784 34.4685C16.6722 34.4359 16.6365 34.418 16.6477 34.3746C16.6593 34.3281 16.6749 34.2785 16.6431 34.2281C16.6927 34.187 16.7048 34.135 16.7032 34.0769C16.7024 34.0528 16.7095 34.0241 16.7234 34.0055C16.7509 33.9683 16.7551 33.9396 16.7288 33.897C16.7102 33.8659 16.6924 33.8302 16.6822 33.7961C16.6575 33.7108 16.5814 33.6875 16.5205 33.6473C16.5151 33.6441 16.5019 33.6503 16.4938 33.648C16.4778 33.6441 16.4628 33.6357 16.4433 33.6295C16.4356 33.6426 16.4267 33.6582 16.4154 33.6783C16.4217 33.6876 16.4282 33.6977 16.4359 33.707C16.448 33.7202 16.4515 33.7356 16.4383 33.7481C16.4235 33.7636 16.4069 33.7798 16.3878 33.7876C16.3631 33.7977 16.3351 33.8016 16.3029 33.8093C16.2808 33.7745 16.2509 33.7713 16.2087 33.7853C16.1714 33.7976 16.1288 33.7976 16.0986 33.7558C16.09 33.7442 16.066 33.7387 16.0485 33.7387C16.0272 33.7387 16.0059 33.748 15.9845 33.7511C15.9454 33.7527 15.9086 33.7464 15.8927 33.7022C15.8791 33.6673 15.8531 33.6486 15.8175 33.6371C15.7907 33.6301 15.7659 33.6146 15.7392 33.6045C15.6977 33.5898 15.6577 33.5797 15.6119 33.596C15.5771 33.6069 15.5375 33.6022 15.4999 33.6045C15.475 33.6068 15.4491 33.6068 15.4258 33.6146C15.3808 33.6286 15.3397 33.6224 15.297 33.6061C15.259 33.5913 15.2207 33.5771 15.1822 33.5635C15.1276 33.5432 15.0783 33.5464 15.0384 33.596C14.9977 33.6456 14.9442 33.6642 14.8798 33.662C14.7953 33.6596 14.7108 33.662 14.6259 33.6612C14.6037 33.6612 14.582 33.655 14.5603 33.6518C14.5452 33.6496 14.5293 33.641 14.515 33.6426C14.4475 33.6565 14.385 33.6372 14.3222 33.6185C14.2981 33.6122 14.2748 33.6031 14.2528 33.5913C14.2183 33.572 14.1942 33.5448 14.1981 33.4998C14.2019 33.4424 14.1617 33.4091 14.1287 33.3734C14.1056 33.3473 14.0768 33.3268 14.0446 33.3136C13.9919 33.2943 13.9499 33.2532 13.8925 33.2423C13.8728 33.2392 13.8607 33.2253 13.853 33.2059C13.8483 33.1912 13.8414 33.1756 13.8301 33.1686C13.7827 33.1381 13.7345 33.1088 13.6855 33.081C13.68 33.0779 13.6629 33.081 13.6614 33.0841C13.6571 33.0942 13.654 33.1089 13.6579 33.1182C13.6629 33.1291 13.6769 33.1337 13.6847 33.1431C13.7216 33.1818 13.7584 33.2206 13.7929 33.2609C13.815 33.2865 13.8324 33.316 13.8669 33.3308C13.8824 33.3385 13.8937 33.3571 13.9049 33.3711C13.9317 33.4053 13.9298 33.4146 13.8871 33.4595C13.8425 33.4284 13.7999 33.3913 13.739 33.3897C13.7204 33.3897 13.7056 33.3727 13.701 33.3525C13.6956 33.3292 13.6897 33.3044 13.6851 33.285C13.6548 33.2524 13.6184 33.2564 13.5854 33.2462C13.5397 33.2331 13.5001 33.212 13.4795 33.1687C13.488 33.1485 13.4997 33.154 13.5121 33.154C13.5306 33.154 13.5419 33.1323 13.5306 33.1222C13.5147 33.1082 13.4981 33.0936 13.4791 33.0834C13.4543 33.0733 13.4395 33.0548 13.4268 33.0315C13.3918 32.9686 13.3562 32.9074 13.3213 32.8476C13.2938 32.8437 13.3027 32.871 13.2837 32.881C13.276 32.864 13.2686 32.8454 13.2589 32.8229C13.2392 32.8291 13.2194 32.8345 13.2 32.8415C13.1942 32.8384 13.188 32.836 13.1852 32.8314C13.1329 32.7391 13.0832 32.6453 13.0406 32.5475C13.0193 32.501 12.9991 32.4498 13.0185 32.3948C13.0216 32.3863 13.0247 32.3755 13.0231 32.366C13.0115 32.2769 13.0429 32.1932 13.06 32.107C13.0744 32.0372 13.0891 31.9651 13.0736 31.8961C13.0442 31.8635 13.0169 31.8341 12.9871 31.8015C13.0236 31.7465 13.0259 31.696 12.979 31.6387C12.9712 31.6759 12.965 31.7046 12.9584 31.7371C12.9181 31.7007 12.9049 31.6759 12.9239 31.6387C12.9603 31.5642 12.9437 31.4851 12.951 31.4075C12.9542 31.3703 12.9335 31.3564 12.8971 31.3657C12.8292 31.3809 12.77 31.4225 12.7327 31.4813C12.6838 31.5565 12.6252 31.6194 12.562 31.6806C12.5062 31.7342 12.4558 31.7938 12.4019 31.8497C12.3918 31.8598 12.3751 31.8621 12.3611 31.8683C12.3623 31.8745 12.3623 31.8792 12.3623 31.8807C12.3623 31.8791 12.3611 31.8745 12.3611 31.869C12.4152 31.7809 12.4785 31.6987 12.55 31.624C12.5826 31.5906 12.6067 31.5519 12.6194 31.5038C12.6346 31.4479 12.664 31.3959 12.7021 31.3479C12.8114 31.2075 12.9243 31.0695 13.0522 30.9439C13.1076 30.8897 13.1716 30.8423 13.2325 30.7942C13.2418 30.7858 13.2532 30.78 13.2654 30.7774C13.2777 30.7748 13.2904 30.7755 13.3023 30.7794C13.3566 30.7926 13.4078 30.7802 13.4531 30.7469C13.5268 30.6931 13.6139 30.6607 13.7048 30.6531C13.7208 30.6522 13.7347 30.6452 13.7359 30.6212C13.7126 30.598 13.6782 30.6531 13.6533 30.6088C13.6563 30.6026 13.6603 30.5887 13.668 30.5818C13.7146 30.5413 13.7526 30.4894 13.8123 30.463C13.8228 30.4591 13.8328 30.4475 13.837 30.4382C13.848 30.4119 13.8681 30.3987 13.8894 30.3847C13.9576 30.3436 14.0263 30.3016 14.0949 30.2597V30.2582C14.0949 30.2582 14.0953 30.2582 14.0965 30.259C14.0968 30.259 14.098 30.2582 14.098 30.2582V30.2597C14.1108 30.2676 14.1225 30.2714 14.1353 30.2567C14.1469 30.2427 14.1574 30.2233 14.1717 30.2179C14.2178 30.204 14.2512 30.173 14.2888 30.145C14.3318 30.1125 14.3792 30.0837 14.4257 30.0527V30.0504C14.4137 30.0473 14.4109 30.0426 14.425 30.0349V30.0318H14.43C14.4404 30.0256 14.4517 30.0186 14.4626 30.0327H14.4657L14.4641 30.0349C14.4951 30.0024 14.525 29.969 14.577 29.9782L14.5754 29.976H14.5792C14.5902 29.9589 14.6018 29.9605 14.613 29.976H14.6161L14.6146 29.9782C14.6627 29.9417 14.7167 29.9136 14.7743 29.8952C14.61 29.9477 14.4489 30.0099 14.2919 30.0814C14.295 30.0814 14.2997 30.083 14.3027 30.083C14.3027 30.0837 14.3027 30.0845 14.3023 30.0845C14.2984 30.0839 14.2945 30.0829 14.2907 30.0815C14.2853 30.0845 14.2802 30.0862 14.2756 30.0892C14.2709 30.0985 14.2636 30.1032 14.2508 30.1016C14.2504 30.1016 14.2492 30.1016 14.2492 30.1032C14.2488 30.1032 14.2477 30.1032 14.2469 30.1049C14.2422 30.1203 14.2317 30.1242 14.217 30.1234C14.2162 30.1234 14.2154 30.1242 14.2147 30.1242C14.2131 30.1258 14.2108 30.1258 14.2093 30.1265C14.2077 30.1296 14.2054 30.1318 14.2039 30.135C14.205 30.1326 14.205 30.1296 14.207 30.128C14.2074 30.128 14.209 30.1264 14.209 30.1264L14.2132 30.1234H14.2171C14.2268 30.1163 14.2368 30.111 14.2469 30.1048C14.2469 30.1031 14.2477 30.1031 14.2477 30.1016C12.783 30.795 11.769 32.2872 11.769 34.0151C11.769 36.4069 13.7072 38.3444 16.0975 38.3444C18.4874 38.3444 20.4263 36.407 20.4263 34.0151C20.4263 31.6256 18.4874 29.6875 16.0975 29.6875M16.1968 29.7856C16.1968 29.7871 16.191 29.7887 16.1886 29.7903C16.1173 29.7934 16.046 29.7988 15.9754 29.8012C15.9645 29.8028 15.9537 29.7911 15.9428 29.7841C16.0075 29.7089 16.0894 29.722 16.1692 29.7329C16.1801 29.7337 16.1933 29.7431 16.1987 29.7531C16.2034 29.7609 16.1987 29.7741 16.1971 29.7857M15.999 30.7194C15.992 30.714 15.9858 30.7086 15.9796 30.7031C15.9834 30.6993 15.9874 30.6892 15.9904 30.69C15.9982 30.6916 16.0044 30.6969 16.0126 30.7008C16.0075 30.7066 16.003 30.7128 15.999 30.7194ZM16.564 32.4225C16.5694 32.4482 16.5492 32.4528 16.5326 32.4536C16.5097 32.4552 16.4872 32.4505 16.4647 32.4498C16.4767 32.3955 16.4861 32.3931 16.564 32.4225ZM16.4314 32.421C16.4039 32.4288 16.3853 32.4319 16.3705 32.4396C16.3577 32.4474 16.3499 32.4629 16.3379 32.4721C16.3259 32.4807 16.3142 32.4753 16.3066 32.4636C16.3011 32.4559 16.2972 32.4482 16.2926 32.4403C16.3244 32.3962 16.3244 32.3962 16.4314 32.421ZM16.0967 32.3186C16.1251 32.3279 16.1545 32.3388 16.182 32.3528C16.2046 32.3652 16.2224 32.3628 16.2359 32.3434C16.2654 32.3605 16.2421 32.3807 16.2464 32.3962C16.2511 32.4117 16.2573 32.428 16.2639 32.4482C16.1929 32.456 16.1305 32.4458 16.0778 32.4008C16.0665 32.3915 16.0672 32.3814 16.0816 32.3761C16.0839 32.345 16.0467 32.345 16.0374 32.3248C16.0564 32.3032 16.0766 32.3124 16.0971 32.3186M16.0095 32.3574C16.0126 32.3558 16.0246 32.3635 16.0239 32.3652C16.0118 32.4024 16.0455 32.4257 16.0548 32.4559C16.0564 32.4629 16.0494 32.4713 16.0436 32.4854C16.0141 32.4714 15.9842 32.4582 15.954 32.4458C15.9346 32.4085 15.942 32.376 15.9556 32.3388C15.98 32.3388 15.9858 32.3713 16.0095 32.3574ZM15.8974 32.2457C15.9171 32.2396 15.94 32.2396 15.961 32.2426C15.9924 32.2473 15.9974 32.2612 15.9967 32.3171C15.9703 32.3124 15.9452 32.3047 15.9191 32.3047C15.8966 32.3047 15.8769 32.3325 15.8497 32.3094C15.8598 32.2829 15.8707 32.2559 15.8974 32.2457ZM16.1723 32.8739C16.1979 32.8212 16.2433 32.8167 16.2844 32.8072C16.3111 32.8025 16.3414 32.7994 16.3584 32.8383C16.3081 32.8887 16.2545 32.922 16.1723 32.8739ZM16.3558 32.6731C16.2991 32.7041 16.2386 32.7281 16.1758 32.7568C16.1661 32.7413 16.1584 32.7289 16.1499 32.7157C16.1204 32.7204 16.0909 32.7297 16.061 32.7304C16.0277 32.7312 16.0037 32.7087 15.9812 32.6855C15.9924 32.6862 16.0033 32.6877 16.0137 32.6893C16.0137 32.6877 16.0145 32.6862 16.0145 32.6855H15.9816C15.951 32.6908 15.9207 32.697 15.8994 32.7009C15.8548 32.7358 15.8172 32.7677 15.7768 32.7963C15.766 32.8041 15.7447 32.8087 15.7342 32.8025C15.7036 32.7871 15.6822 32.7963 15.6582 32.8158C15.6454 32.8258 15.6256 32.8289 15.6016 32.8367C15.6027 32.7824 15.6147 32.7413 15.6504 32.7064C15.7091 32.6475 15.7827 32.6149 15.8575 32.5824C15.8715 32.5762 15.8886 32.5777 15.9036 32.5762C15.9196 32.5745 15.9362 32.58 15.951 32.5762C16.0254 32.5551 16.0979 32.5638 16.1704 32.5877C16.1898 32.5931 16.2138 32.5854 16.2352 32.5854C16.2778 32.5854 16.3213 32.5854 16.3639 32.587C16.3814 32.5886 16.3984 32.5955 16.4155 32.601C16.4124 32.6436 16.3813 32.6591 16.3558 32.6731ZM16.4104 32.542C16.405 32.5381 16.4015 32.5248 16.4042 32.5187C16.4128 32.5001 16.4248 32.4838 16.4364 32.4651C16.4643 32.5093 16.4643 32.5264 16.4364 32.5434C16.4298 32.5458 16.417 32.5458 16.4108 32.542M16.8719 32.5807C16.7878 32.5923 16.7269 32.6335 16.6939 32.7172C16.6749 32.7125 16.6551 32.7063 16.6276 32.6986C16.6008 32.7142 16.5686 32.7312 16.5357 32.7483C16.5221 32.755 16.5073 32.7592 16.4922 32.7607C16.4596 32.7623 16.4414 32.7514 16.4407 32.7335C16.4391 32.7087 16.4596 32.7017 16.4764 32.697C16.5031 32.6892 16.5015 32.6644 16.5155 32.6435C16.4996 32.6365 16.4844 32.6287 16.4643 32.621C16.4666 32.5868 16.4794 32.5613 16.5174 32.559C16.5438 32.5574 16.5647 32.5511 16.5876 32.5373C16.6717 32.4884 16.7609 32.4969 16.8506 32.5202C16.8761 32.5248 16.8804 32.5482 16.8719 32.5807ZM16.9665 32.5497C16.9523 32.545 16.9404 32.535 16.9332 32.5219C16.9301 32.5157 16.9366 32.4955 16.9449 32.4908C16.965 32.4784 16.9887 32.4676 17.0119 32.4613C17.0518 32.4512 17.0875 32.4349 17.1127 32.3977C17.1449 32.4303 17.1189 32.4482 17.1057 32.4676H17.1073L17.105 32.4706C17.1057 32.4691 17.1057 32.4691 17.1066 32.4676C17.0721 32.4924 17.0371 32.5187 17.0019 32.542C16.9919 32.5482 16.9767 32.5529 16.9675 32.5497M17.046 33.0112C17.0786 32.9872 17.0786 32.9872 17.1325 32.9787C17.0899 33.0399 17.0899 33.0399 17.046 33.0112ZM17.3229 32.4791C17.3182 32.4799 17.3128 32.4783 17.3074 32.4783C17.3074 32.4791 17.3058 32.4799 17.3042 32.4807C17.3042 32.479 17.3034 32.479 17.3034 32.4783C17.2391 32.4535 17.2391 32.4527 17.205 32.3954C17.2189 32.3954 17.236 32.3915 17.2391 32.3961C17.2577 32.4256 17.3043 32.4334 17.3034 32.4783H17.305L17.3042 32.4807C17.3042 32.4807 17.305 32.4783 17.3058 32.4783H17.3074C17.3105 32.4753 17.3144 32.4713 17.3182 32.4705C17.3229 32.469 17.3275 32.4721 17.3322 32.4721C17.3306 32.4753 17.3259 32.4783 17.3228 32.4799M17.5618 32.7917C17.5508 32.7871 17.5423 32.7856 17.5416 32.7817C17.5338 32.7048 17.5137 32.632 17.4671 32.5691C17.4656 32.5676 17.4671 32.5653 17.4679 32.5613C17.4671 32.5613 17.4671 32.5621 17.4671 32.5621C17.4671 32.5613 17.4671 32.5606 17.4656 32.5591C17.4237 32.5467 17.4213 32.5459 17.3694 32.497C17.3741 32.4799 17.3787 32.4613 17.3825 32.4428C17.3818 32.4411 17.3818 32.4411 17.381 32.4411H17.3802L17.3786 32.4396C17.377 32.4411 17.377 32.4411 17.374 32.4411C17.3376 32.449 17.336 32.449 17.3383 32.4117C17.3367 32.4101 17.3367 32.4101 17.3351 32.4101C17.3351 32.4085 17.3336 32.407 17.3336 32.4062C17.3274 32.4062 17.3228 32.4046 17.3165 32.4039L17.3242 32.393C17.3274 32.3969 17.3304 32.4015 17.3336 32.4062C17.3351 32.4062 17.3367 32.407 17.3383 32.407V32.4117C17.3523 32.421 17.3661 32.4311 17.3801 32.4403H17.3832V32.4427C17.4383 32.4629 17.4577 32.5078 17.4663 32.559C17.4678 32.5606 17.4678 32.5606 17.4685 32.5606V32.5613C17.4871 32.5543 17.5065 32.5543 17.5166 32.5729C17.554 32.6405 17.5804 32.7095 17.5618 32.7917ZM14.7011 31.2855C14.655 31.2855 14.6538 31.2863 14.6262 31.3274C14.6627 31.3306 14.6762 31.2965 14.7011 31.2855ZM15.1955 31.4391C15.2103 31.4236 15.2246 31.4066 15.2394 31.3894C15.2037 31.3895 15.194 31.4096 15.1955 31.4391ZM15.1024 31.2584C15.0764 31.2437 15.0559 31.2484 15.0376 31.27C15.0458 31.3158 15.078 31.329 15.1253 31.3367C15.1214 31.3065 15.135 31.2762 15.1024 31.2584ZM13.516 32.9515C13.5218 32.9693 13.5288 32.9857 13.5346 33.0026C13.5641 33.0112 13.5908 33.0189 13.6168 33.0267C13.6137 32.9872 13.6137 32.9872 13.5625 32.9119C13.5137 32.9111 13.5059 32.9158 13.516 32.9515ZM14.4699 30.3541C14.4513 30.3316 14.428 30.3518 14.4087 30.3456C14.3858 30.3378 14.3661 30.3224 14.3431 30.3161C14.33 30.313 14.3121 30.3208 14.316 30.3433C14.3772 30.3719 14.4145 30.3751 14.4699 30.3533M13.9518 30.4658C13.9263 30.4464 13.9263 30.4464 13.9007 30.4543C13.9205 30.4596 13.9356 30.4634 13.9518 30.4658ZM15.6767 30.7108C15.7272 30.7024 15.7272 30.7024 15.7659 30.6682C15.7233 30.6558 15.7036 30.6822 15.6767 30.7108ZM13.965 30.4448C13.9666 30.4433 13.9697 30.4426 13.9732 30.4426C13.9724 30.4403 13.9716 30.4371 13.9697 30.4348C13.9686 30.4371 13.9643 30.4387 13.9643 30.441C13.9643 30.4426 13.965 30.4433 13.965 30.4448ZM14.1109 30.3719C14.1103 30.3696 14.1095 30.3672 14.1085 30.365C14.0988 30.3673 14.088 30.3689 14.0783 30.3719C14.076 30.3735 14.0744 30.3767 14.0694 30.3829C14.0772 30.3851 14.081 30.3876 14.0833 30.386C14.0923 30.3829 14.1012 30.3774 14.1105 30.3719M14.1764 30.4495C14.1651 30.4347 14.1613 30.4231 14.1547 30.4223C14.1369 30.4179 14.1187 30.4151 14.1004 30.4138C14.0775 30.4123 14.0736 30.4231 14.0818 30.4596C14.1085 30.4573 14.1345 30.4543 14.1764 30.4495Z" fill="#414D84"/>
<rect x="0.5" y="1.27246" width="101" height="67" rx="9.5" stroke="#464957"/>
</svg>
