<svg width="32" height="33" viewBox="0 0 32 33" fill="none" xmlns="http://www.w3.org/2000/svg">
<path d="M17.5 16.7725C17.5 17.0691 17.412 17.3591 17.2472 17.6058C17.0824 17.8525 16.8481 18.0447 16.574 18.1583C16.2999 18.2718 15.9983 18.3015 15.7074 18.2436C15.4164 18.1858 15.1491 18.0429 14.9393 17.8331C14.7296 17.6233 14.5867 17.3561 14.5288 17.0651C14.4709 16.7741 14.5006 16.4725 14.6142 16.1984C14.7277 15.9243 14.92 15.6901 15.1666 15.5253C15.4133 15.3604 15.7033 15.2725 16 15.2725C16.3978 15.2725 16.7794 15.4305 17.0607 15.7118C17.342 15.9931 17.5 16.3746 17.5 16.7725ZM16 9.77246C16.2967 9.77246 16.5867 9.68449 16.8334 9.51967C17.08 9.35484 17.2723 9.12058 17.3858 8.84649C17.4994 8.5724 17.5291 8.2708 17.4712 7.97983C17.4133 7.68885 17.2704 7.42158 17.0607 7.2118C16.8509 7.00202 16.5836 6.85916 16.2926 6.80128C16.0017 6.74341 15.7001 6.77311 15.426 6.88664C15.1519 7.00017 14.9176 7.19243 14.7528 7.43911C14.588 7.68578 14.5 7.97579 14.5 8.27246C14.5 8.67029 14.658 9.05182 14.9393 9.33312C15.2206 9.61443 15.6022 9.77246 16 9.77246ZM16 23.7725C15.7033 23.7725 15.4133 23.8604 15.1666 24.0253C14.92 24.1901 14.7277 24.4243 14.6142 24.6984C14.5006 24.9725 14.4709 25.2741 14.5288 25.5651C14.5867 25.8561 14.7296 26.1233 14.9393 26.3331C15.1491 26.5429 15.4164 26.6858 15.7074 26.7436C15.9983 26.8015 16.2999 26.7718 16.574 26.6583C16.8481 26.5447 17.0824 26.3525 17.2472 26.1058C17.412 25.8591 17.5 25.5691 17.5 25.2725C17.5 24.8746 17.342 24.4931 17.0607 24.2118C16.7794 23.9305 16.3978 23.7725 16 23.7725Z" fill="white"/>
</svg>
