<svg width="30" height="31" viewBox="0 0 30 31" fill="none" xmlns="http://www.w3.org/2000/svg">
<path d="M0 5.20117C0 2.43975 2.23858 0.201172 5 0.201172H25C27.7614 0.201172 30 2.43975 30 5.20117V25.2012C30 27.9626 27.7614 30.2012 25 30.2012H5C2.23858 30.2012 0 27.9626 0 25.2012V5.20117Z" fill="#EAEAFF"/>
<path d="M16.654 23.2011V15.7002H18.7245L18.999 13.1153H16.654L16.6575 11.8216C16.6575 11.1474 16.7216 10.7862 17.6899 10.7862H18.9843V8.20105H16.9134C14.426 8.20105 13.5505 9.45498 13.5505 11.5637V13.1156H12V15.7004H13.5505V23.2011H16.654Z" fill="#5C5C68"/>
</svg>
