<svg width="30" height="31" viewBox="0 0 30 31" fill="none" xmlns="http://www.w3.org/2000/svg">
<path d="M0 5.09375C0 2.33233 2.23858 0.09375 5 0.09375H25C27.7614 0.09375 30 2.33233 30 5.09375V25.0938C30 27.8552 27.7614 30.0938 25 30.0938H5C2.23858 30.0938 0 27.8552 0 25.0938V5.09375Z" fill="#EAEAFF"/>
<path d="M16.654 23.0938V15.5929H18.7246L18.999 13.008H16.654L16.6575 11.7143C16.6575 11.0401 16.7216 10.6789 17.6899 10.6789H18.9843V8.09375H16.9135C14.426 8.09375 13.5505 9.34768 13.5505 11.4564V13.0083H12V15.5931H13.5505V23.0938H16.654Z" fill="#5C5C68"/>
</svg>
