<svg width="30" height="31" viewBox="0 0 30 31" fill="none" xmlns="http://www.w3.org/2000/svg">
<path d="M0 5.15918C0 2.39776 2.23858 0.15918 5 0.15918H25C27.7614 0.15918 30 2.39776 30 5.15918V25.1592C30 27.9206 27.7614 30.1592 25 30.1592H5C2.23858 30.1592 0 27.9206 0 25.1592V5.15918Z" fill="#EAEAFF"/>
<path d="M16.654 23.1591V15.6582H18.7246L18.999 13.0733H16.654L16.6575 11.7796C16.6575 11.1054 16.7216 10.7442 17.6899 10.7442H18.9843V8.15906H16.9135C14.426 8.15906 13.5505 9.41299 13.5505 11.5217V13.0736H12V15.6585H13.5505V23.1591H16.654Z" fill="#5C5C68"/>
</svg>
