<svg width="30" height="31" viewBox="0 0 30 31" fill="none" xmlns="http://www.w3.org/2000/svg">
<path d="M0 5.77246C0 3.01104 2.23858 0.772461 5 0.772461H25C27.7614 0.772461 30 3.01104 30 5.77246V25.7725C30 28.5339 27.7614 30.7725 25 30.7725H5C2.23858 30.7725 0 28.5339 0 25.7725V5.77246Z" fill="#EAEAFF"/>
<path d="M16.654 23.7723V16.2714H18.7246L18.999 13.6866H16.654L16.6575 12.3929C16.6575 11.7187 16.7216 11.3575 17.6899 11.3575H18.9843V8.77234H16.9135C14.426 8.77234 13.5505 10.0263 13.5505 12.135V13.6869H12V16.2717H13.5505V23.7723H16.654Z" fill="#5C5C68"/>
</svg>
