<svg width="27" height="30" viewBox="0 0 27 30" fill="none" xmlns="http://www.w3.org/2000/svg">
<path d="M23.5128 7.62207C23.485 7.80002 23.4532 7.98195 23.4174 8.16885C22.1876 14.4826 17.9804 16.6638 12.6071 16.6638H9.87122C9.21409 16.6638 8.66035 17.141 8.55796 17.7892L7.15721 26.6728L6.76055 29.191C6.74475 29.2909 6.75078 29.393 6.77823 29.4903C6.80568 29.5876 6.8539 29.6779 6.91957 29.7548C6.98523 29.8317 7.06678 29.8935 7.15861 29.9358C7.25043 29.9782 7.35035 30.0002 7.45148 30.0002H12.3039C12.8785 30.0002 13.3666 29.5827 13.4571 29.016L13.5048 28.7695L14.4184 22.9716L14.4771 22.6535C14.5665 22.0849 15.0557 21.6673 15.6303 21.6673H16.356C21.0573 21.6673 24.7376 19.7586 25.8133 14.2351C26.2626 11.9277 26.03 10.0011 24.841 8.64604C24.4641 8.22687 24.0141 7.87988 23.5128 7.62207Z" fill="#179BD7"/>
<path d="M10.1577 7.6539C10.2 7.37896 10.3396 7.12834 10.551 6.94756C10.7624 6.76678 11.0317 6.66784 11.3099 6.6687H18.6188C19.4847 6.6687 20.2929 6.72537 21.0306 6.84467C21.5297 6.92312 22.022 7.04045 22.5029 7.1956C22.8658 7.31589 23.2028 7.45805 23.5139 7.62209C23.8798 5.28883 23.511 3.7002 22.2494 2.26167C20.8586 0.678005 18.3484 0 15.1363 0H5.81129C5.15516 0 4.59546 0.477188 4.49405 1.12636L0.609949 25.7463C0.591858 25.8606 0.598741 25.9775 0.630125 26.0889C0.66151 26.2002 0.716651 26.3035 0.791755 26.3916C0.866859 26.4796 0.960144 26.5503 1.06519 26.5989C1.17024 26.6474 1.28456 26.6727 1.40029 26.6728H7.15736L8.60283 17.5019L10.1577 7.6539Z" fill="white"/>
</svg>
