<svg width="50" height="51" viewBox="0 0 50 51" fill="none" xmlns="http://www.w3.org/2000/svg">
<circle cx="25" cy="25.0938" r="25" fill="white"/>
<g clip-path="url(#clip0_0_2678)">
<path d="M25 0.09375C20.0555 0.09375 15.222 1.55997 11.1108 4.30701C6.99953 7.05404 3.79521 10.9585 1.90302 15.5267C0.0108321 20.0948 -0.484251 25.1215 0.480379 29.971C1.44501 34.8205 3.82603 39.2751 7.32234 42.7714C10.8187 46.2677 15.2732 48.6488 20.1228 49.6134C24.9723 50.578 29.9989 50.0829 34.5671 48.1907C39.1353 46.2985 43.0397 43.0942 45.7868 38.983C48.5338 34.8718 50 30.0383 50 25.0938C49.9894 18.4666 47.3521 12.1139 42.666 7.42776C37.9799 2.74165 31.6272 0.104328 25 0.09375ZM35.52 25.9338L19.52 35.9338C19.3625 36.029 19.1839 36.084 19 36.0938C18.8325 36.0946 18.6674 36.0533 18.52 35.9738C18.3636 35.8858 18.2331 35.7581 18.1418 35.6036C18.0505 35.4491 18.0016 35.2732 18 35.0938V15.0938C18.0016 14.9143 18.0505 14.7384 18.1418 14.5839C18.2331 14.4294 18.3636 14.3017 18.52 14.2137C18.6736 14.1201 18.8501 14.0706 19.03 14.0706C19.2099 14.0706 19.3864 14.1201 19.54 14.2137L35.54 24.2138C35.685 24.3009 35.8049 24.424 35.8882 24.5712C35.9715 24.7184 36.0152 24.8846 36.0152 25.0537C36.0152 25.2229 35.9715 25.3891 35.8882 25.5363C35.8049 25.6835 35.685 25.8066 35.54 25.8937L35.52 25.9338Z" fill="#7510F5"/>
</g>
<defs>
<clipPath id="clip0_0_2678">
<rect width="50" height="50" fill="white" transform="translate(0 0.09375)"/>
</clipPath>
</defs>
</svg>
