<svg width="21" height="19" viewBox="0 0 21 19" fill="none" xmlns="http://www.w3.org/2000/svg">
<path d="M1.39627 10.4037C1.36998 10.3825 1.33347 10.3793 1.30333 10.3941C1.27322 10.4101 1.25525 10.4422 1.25784 10.4761L1.38987 12.5494C1.39307 12.5859 1.37129 12.6199 1.33667 12.634L0.0543023 13.1435C0.0248117 13.1556 0.00430369 13.1826 0.000448173 13.2133C-0.00275108 13.2447 0.0113585 13.2755 0.0369935 13.2934L3.47915 15.382C3.50286 15.3987 3.53362 15.4019 3.55991 15.3904C3.58747 15.3795 3.60671 15.3551 3.61184 15.3263L4.13032 12.3782C4.1361 12.3475 4.12392 12.3167 4.10021 12.2969L1.39627 10.4037Z" fill="#D1D1F0"/>
<path d="M19.6642 12.634C19.6302 12.6199 19.6084 12.5859 19.6103 12.5494L19.7436 10.4761C19.7455 10.4422 19.7276 10.4101 19.6975 10.3941C19.6674 10.3794 19.6308 10.3826 19.6045 10.4037L16.9007 12.2968C16.877 12.3167 16.8648 12.3474 16.8706 12.3782L17.3897 15.3262C17.3941 15.3551 17.4134 15.3794 17.4403 15.3903C17.4678 15.4019 17.4979 15.3987 17.5223 15.382L20.9638 13.2934C20.9901 13.2754 21.0036 13.2447 20.9997 13.2133C20.9965 13.1825 20.976 13.1556 20.9472 13.1434L19.6642 12.634Z" fill="#D1D1F0"/>
<path d="M10.4992 15.0975C8.51314 15.0975 6.6328 14.636 4.95758 13.8176L4.41797 16.8836C6.28867 17.6744 8.34399 18.1121 10.4993 18.1121C12.6545 18.1121 14.7105 17.6744 16.5812 16.8836L16.0409 13.8176C14.3669 14.636 12.4866 15.0975 10.4992 15.0975Z" fill="#D1D1F0"/>
<path d="M3.0703 6.65454L3.33752 7.19481L3.93352 7.28131L3.50224 7.70172L3.60351 8.29584L3.0703 8.01513L2.53709 8.29584L2.63897 7.70172L2.20703 7.28131L2.80369 7.19481L3.0703 6.65454Z" fill="#D1D1F0"/>
<path d="M5.63377 2.38696L5.90038 2.92723L6.497 3.01373L6.06506 3.43415L6.16698 4.02826L5.63377 3.74821L5.09991 4.02826L5.20245 3.43415L4.77051 3.01373L5.36717 2.92723L5.63377 2.38696Z" fill="#D1D1F0"/>
<path d="M17.9291 6.65454L17.6625 7.19481L17.0664 7.28131L17.4977 7.70172L17.3958 8.29584L17.9291 8.01513L18.4629 8.29584L18.361 7.70172L18.7923 7.28131L18.1957 7.19481L17.9291 6.65454Z" fill="#D1D1F0"/>
<path d="M15.3662 2.38696L15.0996 2.92723L14.5029 3.01373L14.9343 3.43415L14.833 4.02826L15.3662 3.74821L15.8994 4.02826L15.7975 3.43415L16.2294 3.01373L15.6328 2.92723L15.3662 2.38696Z" fill="#D1D1F0"/>
<path d="M10.3144 0.887939L10.581 1.4282L11.1777 1.51536L10.7457 1.93578L10.8476 2.5299L10.3144 2.24918L9.78123 2.5299L9.88311 1.93578L9.45117 1.51536L10.0478 1.4282L10.3144 0.887939Z" fill="#D1D1F0"/>
<path d="M9.68398 4.30174C9.82113 4.02422 10.1031 3.84863 10.412 3.84863C10.7216 3.84863 11.0042 4.02422 11.1407 4.30174L11.9488 5.93918C12.0674 6.17888 12.2962 6.34549 12.5602 6.38396L14.3675 6.6461C14.6739 6.69097 14.9283 6.90503 15.0238 7.19916C15.1193 7.49328 15.0398 7.81567 14.818 8.03166L13.5107 9.30636C13.319 9.49286 13.2319 9.76201 13.2767 10.0254L13.5856 11.8257C13.6376 12.1301 13.5126 12.4377 13.2626 12.6197C13.0121 12.8017 12.6807 12.8254 12.4071 12.6812L10.7901 11.8314C10.5536 11.7071 10.271 11.7071 10.0345 11.8314L8.41826 12.6812C8.14394 12.8254 7.81327 12.8017 7.56205 12.6197C7.31209 12.4377 7.18712 12.13 7.23905 11.8257L7.54794 10.0254C7.59342 9.76201 7.50565 9.49286 7.31464 9.30636L6.00659 8.03166C5.78548 7.81567 5.70603 7.49333 5.80151 7.19916C5.897 6.90499 6.15142 6.69093 6.45711 6.6461L8.26441 6.38396C8.52847 6.34549 8.75787 6.17888 8.87579 5.93918L9.68398 4.30174Z" fill="#D1D1F0"/>
</svg>
