<svg width="953" height="37" viewBox="0 0 953 37" fill="none" xmlns="http://www.w3.org/2000/svg">
<path d="M824 18.7725H408.557H1.99997" stroke="white" stroke-width="5"/>
<circle cx="15" cy="15" r="12.5" transform="matrix(-1 0 0 1 490 3.77246)" fill="#08080C" stroke="white" stroke-width="5"/>
<circle cx="15" cy="15" r="12.5" transform="matrix(-1 0 0 1 260 3.77246)" fill="#08080C" stroke="white" stroke-width="5"/>
<circle cx="15" cy="15" r="12.5" transform="matrix(-1 0 0 1 30 3.77246)" fill="#08080C" stroke="white" stroke-width="5"/>
<circle cx="15" cy="15" r="12.5" transform="matrix(-1 0 0 1 720 3.77246)" fill="#08080C" stroke="white" stroke-width="5"/>
<g filter="url(#filter0_f_0_2427)">
<path d="M935 18.7725H878.9H824" stroke="url(#paint0_linear_0_2427)" stroke-width="5"/>
</g>
<g filter="url(#filter1_f_0_2427)">
<circle cx="15" cy="15" r="15" transform="matrix(-1 0 0 1 950 3.77246)" fill="#181818"/>
<circle cx="15" cy="15" r="12.5" transform="matrix(-1 0 0 1 950 3.77246)" stroke="url(#paint1_linear_0_2427)" stroke-width="5"/>
</g>
<path d="M940 19.1203L936.229 22.7725L929 15.7725" stroke="url(#paint2_linear_0_2427)" stroke-opacity="0.36" stroke-width="2" stroke-linecap="round"/>
<defs>
<filter id="filter0_f_0_2427" x="821" y="13.2725" width="117" height="11" filterUnits="userSpaceOnUse" color-interpolation-filters="sRGB">
<feFlood flood-opacity="0" result="BackgroundImageFix"/>
<feBlend mode="normal" in="SourceGraphic" in2="BackgroundImageFix" result="shape"/>
<feGaussianBlur stdDeviation="1.5" result="effect1_foregroundBlur_0_2427"/>
</filter>
<filter id="filter1_f_0_2427" x="917" y="0.772461" width="36" height="36" filterUnits="userSpaceOnUse" color-interpolation-filters="sRGB">
<feFlood flood-opacity="0" result="BackgroundImageFix"/>
<feBlend mode="normal" in="SourceGraphic" in2="BackgroundImageFix" result="shape"/>
<feGaussianBlur stdDeviation="1.5" result="effect1_foregroundBlur_0_2427"/>
</filter>
<linearGradient id="paint0_linear_0_2427" x1="960.945" y1="19.7725" x2="950.869" y2="-16.2341" gradientUnits="userSpaceOnUse">
<stop stop-color="#BF43D3"/>
<stop offset="1" stop-color="#7000FF"/>
</linearGradient>
<linearGradient id="paint1_linear_0_2427" x1="-7.0122" y1="30" x2="30.4486" y2="28.794" gradientUnits="userSpaceOnUse">
<stop stop-color="#BF43D3"/>
<stop offset="1" stop-color="#7000FF"/>
</linearGradient>
<linearGradient id="paint2_linear_0_2427" x1="934.5" y1="15.7725" x2="934.5" y2="22.7725" gradientUnits="userSpaceOnUse">
<stop stop-color="#2E3FDA"/>
<stop offset="1" stop-color="#CD14EB"/>
</linearGradient>
</defs>
</svg>
