<svg width="21" height="18" viewBox="0 0 21 18" fill="none" xmlns="http://www.w3.org/2000/svg">
<path d="M1.39627 9.90371C1.36998 9.88255 1.33347 9.87935 1.30333 9.89411C1.27322 9.91015 1.25525 9.94218 1.25784 9.97614L1.38987 12.0494C1.39307 12.0859 1.37129 12.1199 1.33667 12.134L0.0543023 12.6435C0.0248117 12.6556 0.00430369 12.6826 0.000448173 12.7133C-0.00275108 12.7447 0.0113585 12.7755 0.0369935 12.7934L3.47915 14.882C3.50286 14.8987 3.53362 14.9019 3.55991 14.8904C3.58747 14.8795 3.60671 14.8551 3.61184 14.8263L4.13032 11.8782C4.1361 11.8475 4.12392 11.8167 4.10021 11.7969L1.39627 9.90371Z" fill="white"/>
<path d="M19.664 12.134C19.63 12.1199 19.6082 12.0859 19.6101 12.0494L19.7434 9.97611C19.7454 9.94215 19.7274 9.91012 19.6973 9.89408C19.6672 9.87936 19.6306 9.88256 19.6044 9.90368L16.9005 11.7968C16.8768 11.8167 16.8646 11.8474 16.8704 11.8782L17.3895 14.8262C17.394 14.8551 17.4132 14.8794 17.4401 14.8903C17.4677 14.9019 17.4978 14.8987 17.5221 14.882L20.9636 12.7934C20.9899 12.7754 21.0034 12.7447 20.9995 12.7133C20.9963 12.6825 20.9758 12.6556 20.947 12.6434L19.664 12.134Z" fill="white"/>
<path d="M10.4994 14.5975C8.51332 14.5975 6.63298 14.136 4.95776 13.3176L4.41815 16.3836C6.28886 17.1744 8.34417 17.6121 10.4994 17.6121C12.6547 17.6121 14.7107 17.1744 16.5814 16.3836L16.0411 13.3176C14.3671 14.136 12.4868 14.5975 10.4994 14.5975Z" fill="white"/>
<path d="M3.07042 6.15454L3.33764 6.69481L3.93364 6.78131L3.50236 7.20172L3.60363 7.79584L3.07042 7.51513L2.53721 7.79584L2.63909 7.20172L2.20715 6.78131L2.80381 6.69481L3.07042 6.15454Z" fill="white"/>
<path d="M5.6339 1.88696L5.9005 2.42723L6.49712 2.51373L6.06518 2.93415L6.16711 3.52826L5.6339 3.24821L5.10003 3.52826L5.20257 2.93415L4.77063 2.51373L5.36729 2.42723L5.6339 1.88696Z" fill="white"/>
<path d="M17.929 6.15454L17.6624 6.69481L17.0663 6.78131L17.4977 7.20172L17.3958 7.79584L17.929 7.51513L18.4628 7.79584L18.3609 7.20172L18.7923 6.78131L18.1956 6.69481L17.929 6.15454Z" fill="white"/>
<path d="M15.3661 1.88696L15.0995 2.42723L14.5029 2.51373L14.9342 2.93415L14.8329 3.52826L15.3661 3.24821L15.8993 3.52826L15.7974 2.93415L16.2294 2.51373L15.6327 2.42723L15.3661 1.88696Z" fill="white"/>
<path d="M10.3148 0.387939L10.5814 0.928204L11.178 1.01536L10.7461 1.43578L10.848 2.0299L10.3148 1.74918L9.78159 2.0299L9.88348 1.43578L9.45154 1.01536L10.0482 0.928204L10.3148 0.387939Z" fill="white"/>
<path d="M9.68367 3.80174C9.82083 3.52422 10.1028 3.34863 10.4117 3.34863C10.7213 3.34863 11.0039 3.52422 11.1404 3.80174L11.9485 5.43918C12.0671 5.67888 12.2959 5.84549 12.5599 5.88396L14.3672 6.1461C14.6736 6.19097 14.928 6.40503 15.0235 6.69916C15.119 6.99328 15.0395 7.31567 14.8177 7.53166L13.5104 8.80636C13.3187 8.99286 13.2316 9.26201 13.2764 9.52541L13.5853 11.3257C13.6373 11.6301 13.5123 11.9377 13.2623 12.1197C13.0118 12.3017 12.6804 12.3254 12.4068 12.1812L10.7898 11.3314C10.5533 11.2071 10.2707 11.2071 10.0342 11.3314L8.41795 12.1812C8.14364 12.3254 7.81297 12.3017 7.56174 12.1197C7.31179 11.9377 7.18681 11.63 7.23874 11.3257L7.54763 9.52541C7.59312 9.26201 7.50534 8.99286 7.31433 8.80636L6.00629 7.53166C5.78517 7.31567 5.70572 6.99333 5.80121 6.69916C5.89669 6.40499 6.15112 6.19093 6.45681 6.1461L8.2641 5.88396C8.52816 5.84549 8.75757 5.67888 8.87549 5.43918L9.68367 3.80174Z" fill="white"/>
</svg>
