<svg width="735" height="806" viewBox="0 0 735 806" fill="none" xmlns="http://www.w3.org/2000/svg">
<path fill-rule="evenodd" clip-rule="evenodd" d="M199.593 361.248C276.872 321.959 379.246 258.47 417.459 227.159L416.191 225.612C378.137 256.793 275.905 320.207 198.687 359.465C195.342 361.165 191.986 362.837 188.654 364.497C175.401 371.101 162.533 377.512 152.287 384.762C139.451 393.844 130.471 404.421 130.051 418.626C129.633 432.76 137.709 450.152 158.048 472.853C178.414 495.583 211.218 523.791 260.601 559.572C285.235 577.421 301.662 593.417 311.387 607.692C321.107 621.959 324.087 634.432 321.987 645.308C319.885 656.195 312.653 665.693 301.506 673.915C290.359 682.138 275.373 689.025 257.943 694.694C223.086 706.031 178.655 712.433 136.146 715.012C93.6401 717.59 53.135 716.341 26.1471 712.411L25.8589 714.39C53.0224 718.345 93.672 719.592 136.268 717.008C178.861 714.425 223.479 708.006 258.561 696.596C276.101 690.891 291.308 683.923 302.693 675.524C314.08 667.125 321.721 657.237 323.951 645.688C326.183 634.128 322.953 621.117 313.04 606.566C303.133 592.024 286.503 575.87 261.775 557.953C212.434 522.202 179.763 494.091 159.538 471.518C139.287 448.916 131.656 432.022 132.05 418.685C132.442 405.421 140.793 395.345 153.442 386.394C163.549 379.242 176.234 372.922 189.472 366.325C192.821 364.656 196.206 362.97 199.593 361.248Z" fill="#393939" fill-opacity="0.8"/>
<path fill-rule="evenodd" clip-rule="evenodd" d="M258.699 235.886C377.451 187.095 534.376 107.509 592.674 67.8701L591.549 66.2162C533.417 105.742 376.636 185.267 257.939 234.036C252.786 236.152 247.62 238.23 242.493 240.291C222.123 248.483 202.392 256.417 186.75 265.534C167.191 276.933 153.637 290.399 153.455 308.906C153.275 327.306 166.345 350.238 198.651 380.541C231.008 410.892 282.874 448.829 360.775 497.231C399.675 521.401 425.784 542.895 441.415 561.934C457.046 580.974 462.1 597.433 459.191 611.612C456.277 625.813 445.315 638.042 428.192 648.467C411.083 658.884 387.964 667.41 361.031 674.253C253.271 701.633 85.4494 701.835 1.14549 689.746L0.861614 691.726C85.3577 703.843 253.451 703.65 361.523 676.192C388.548 669.325 411.882 660.739 429.233 650.175C446.57 639.619 458.076 626.998 461.15 612.014C464.228 597.009 458.79 579.947 442.961 560.665C427.131 541.383 400.812 519.753 361.83 495.532C283.966 447.152 232.232 409.298 200.019 379.082C167.754 348.818 155.284 326.408 155.455 308.925C155.625 291.549 168.316 278.592 187.757 267.262C203.26 258.226 222.81 250.364 243.165 242.178C248.309 240.109 253.504 238.02 258.699 235.886Z" fill="#393939" fill-opacity="0.8"/>
<path d="M735 444.5C735 644.151 573.151 806 373.5 806C173.849 806 12 644.151 12 444.5C12 244.849 173.849 83 373.5 83C573.151 83 735 244.849 735 444.5Z" fill="url(#paint0_linear_0_152)" fill-opacity="0.9"/>
<path fill-rule="evenodd" clip-rule="evenodd" d="M373.5 805C572.599 805 734 643.599 734 444.5C734 245.401 572.599 84 373.5 84C174.401 84 13 245.401 13 444.5C13 643.599 174.401 805 373.5 805ZM373.5 806C573.151 806 735 644.151 735 444.5C735 244.849 573.151 83 373.5 83C173.849 83 12 244.849 12 444.5C12 644.151 173.849 806 373.5 806Z" fill="url(#paint1_linear_0_152)"/>
<defs>
<linearGradient id="paint0_linear_0_152" x1="373.5" y1="83" x2="373.5" y2="664.543" gradientUnits="userSpaceOnUse">
<stop stop-color="#2C2C2C"/>
<stop offset="1" stop-color="#151515" stop-opacity="0"/>
</linearGradient>
<linearGradient id="paint1_linear_0_152" x1="373.5" y1="83" x2="373.5" y2="806" gradientUnits="userSpaceOnUse">
<stop stop-color="#2B2929"/>
<stop offset="1" stop-opacity="0"/>
</linearGradient>
</defs>
</svg>
