<svg width="50" height="51" viewBox="0 0 50 51" fill="none" xmlns="http://www.w3.org/2000/svg">
<circle cx="25" cy="25.7725" r="25" fill="white"/>
<g clip-path="url(#clip0_0_2565)">
<path d="M25 0.772461C20.0555 0.772461 15.222 2.23869 11.1108 4.98572C6.99953 7.73276 3.79521 11.6372 1.90302 16.2054C0.0108321 20.7735 -0.484251 25.8002 0.480379 30.6497C1.44501 35.4992 3.82603 39.9538 7.32234 43.4501C10.8187 46.9464 15.2732 49.3275 20.1228 50.2921C24.9723 51.2567 29.9989 50.7616 34.5671 48.8694C39.1353 46.9773 43.0397 43.7729 45.7868 39.6617C48.5338 35.5505 50 30.717 50 25.7725C49.9894 19.1453 47.3521 12.7926 42.666 8.10648C37.9799 3.42036 31.6272 0.783039 25 0.772461ZM35.52 26.6125L19.52 36.6125C19.3625 36.7077 19.1839 36.7627 19 36.7725C18.8325 36.7733 18.6674 36.732 18.52 36.6525C18.3636 36.5645 18.2331 36.4368 18.1418 36.2823C18.0505 36.1278 18.0016 35.9519 18 35.7725V15.7725C18.0016 15.593 18.0505 15.4171 18.1418 15.2626C18.2331 15.1081 18.3636 14.9804 18.52 14.8925C18.6736 14.7988 18.8501 14.7493 19.03 14.7493C19.2099 14.7493 19.3864 14.7988 19.54 14.8925L35.54 24.8925C35.685 24.9796 35.8049 25.1027 35.8882 25.2499C35.9715 25.3971 36.0152 25.5633 36.0152 25.7325C36.0152 25.9016 35.9715 26.0678 35.8882 26.215C35.8049 26.3622 35.685 26.4854 35.54 26.5725L35.52 26.6125Z" fill="#7510F5"/>
</g>
<defs>
<clipPath id="clip0_0_2565">
<rect width="50" height="50" fill="white" transform="translate(0 0.772461)"/>
</clipPath>
</defs>
</svg>
