<svg width="20" height="20" viewBox="0 0 20 20" fill="none" xmlns="http://www.w3.org/2000/svg">
<path d="M18.6455 4.84871H13.2874C14.1205 4.24937 14.6359 3.42827 14.7018 2.63714C14.7737 1.80406 14.3063 0.821143 12.8019 0.569419C12.6341 0.539452 12.4663 0.527466 12.3045 0.527466C11.6512 0.527466 11.1118 0.767202 10.7042 1.23469C10.3206 1.67221 10.1109 2.26555 9.997 2.86489C9.88313 2.26555 9.66737 1.66621 9.28978 1.23469C8.88822 0.767202 8.34882 0.527466 7.69554 0.527466C7.53971 0.527466 7.37189 0.539452 7.19808 0.569419C5.69374 0.821143 5.23224 1.80406 5.29817 2.63714C5.3641 3.42827 5.88553 4.24937 6.71262 4.84871H1.35451C0.605334 4.84871 0 5.45405 0 6.20322V7.06028C0 7.80945 0.605334 8.41479 1.35451 8.41479H1.75008V17.7885C1.75008 18.7175 2.50524 19.4726 3.43422 19.4726H16.5658C17.4948 19.4726 18.2499 18.7175 18.2499 17.7885V8.41479H18.6455C19.3947 8.41479 20 7.80945 20 7.06028V6.20322C20 5.45405 19.3947 4.84871 18.6455 4.84871ZM11.3875 1.82204C11.6212 1.55234 11.9209 1.42648 12.3105 1.42648C12.4183 1.42648 12.5382 1.43846 12.6581 1.45644C13.1136 1.53436 13.8747 1.78009 13.8088 2.56522C13.7369 3.43427 12.6341 4.66891 10.8001 4.83073C10.7402 3.98566 10.7821 2.52327 11.3875 1.82204ZM6.19718 2.56522C6.13126 1.78009 6.89242 1.53436 7.34792 1.45644C7.46779 1.43846 7.58765 1.42648 7.69554 1.42648C8.08511 1.42648 8.38478 1.55833 8.61852 1.82204C9.22385 2.51728 9.26581 3.97967 9.20587 4.83073C7.37189 4.66891 6.2691 3.43427 6.19718 2.56522ZM17.3509 17.7825C17.3509 18.214 16.9973 18.5676 16.5658 18.5676H3.43422C3.0027 18.5676 2.64909 18.214 2.64909 17.7825V8.41479H17.3449V17.7825H17.3509ZM19.101 7.06028C19.101 7.312 18.8972 7.51578 18.6455 7.51578H17.8004H2.20557H1.3605C1.10878 7.51578 0.905004 7.312 0.905004 7.06028V6.20322C0.905004 5.9515 1.10878 5.74772 1.3605 5.74772H18.6455C18.8972 5.74772 19.101 5.9515 19.101 6.20322V7.06028Z" fill="#D1D1F0"/>
<path d="M7.6536 12.748C8.54062 12.748 9.25983 12.0288 9.25983 11.1418C9.25983 10.2547 8.54062 9.53552 7.6536 9.53552C6.76657 9.53552 6.04736 10.2547 6.04736 11.1418C6.04736 12.0288 6.76657 12.748 7.6536 12.748ZM7.6536 10.4345C8.04317 10.4345 8.36082 10.7522 8.36082 11.1418C8.36082 11.5313 8.04317 11.849 7.6536 11.849C7.26403 11.849 6.94637 11.5313 6.94637 11.1418C6.94637 10.7522 7.26403 10.4345 7.6536 10.4345Z" fill="#D1D1F0"/>
<path d="M12.3523 14.2284C11.4653 14.2284 10.7461 14.9476 10.7461 15.8346C10.7461 16.7217 11.4653 17.4409 12.3523 17.4409C13.2394 17.4409 13.9586 16.7217 13.9586 15.8346C13.9586 14.9476 13.2394 14.2284 12.3523 14.2284ZM12.3523 16.5478C11.9628 16.5478 11.6451 16.2302 11.6451 15.8406C11.6451 15.451 11.9628 15.1334 12.3523 15.1334C12.7419 15.1334 13.0595 15.451 13.0595 15.8406C13.0595 16.2302 12.7419 16.5478 12.3523 16.5478Z" fill="#D1D1F0"/>
<path d="M6.49081 17.0034C6.58071 17.0933 6.69458 17.1352 6.80846 17.1352C6.92233 17.1352 7.03621 17.0933 7.12611 17.0034L13.5151 10.6144C13.6889 10.4406 13.6889 10.1529 13.5151 9.97911C13.3413 9.8053 13.0536 9.8053 12.8798 9.97911L6.49081 16.3681C6.31101 16.5419 6.31101 16.8296 6.49081 17.0034Z" fill="#D1D1F0"/>
</svg>
