<svg width="30" height="30" viewBox="0 0 30 30" fill="none" xmlns="http://www.w3.org/2000/svg">
<path d="M15 30C23.2843 30 30 23.2843 30 15C30 6.71573 23.2843 0 15 0C6.71573 0 0 6.71573 0 15C0 23.2843 6.71573 30 15 30Z" fill="#FFD15D"/>
<path d="M29.9825 14.2755L18.4848 2.77783L13.2492 17.7947L10.4978 26.0934L14.3629 29.9858C18.4112 30.1569 22.5156 28.6977 25.6066 25.6067C28.7199 22.4934 30.1784 18.3522 29.9825 14.2755Z" fill="#F9B54C"/>
<path d="M18.1734 26.6667H11.8267C10.8178 26.6667 10 25.8489 10 24.8401V10.16C10 9.15123 10.8178 8.3335 11.8265 8.3335H18.1733C19.1821 8.3335 19.9998 9.15129 19.9998 10.16V24.8401C20 25.8489 19.1822 26.6667 18.1734 26.6667Z" fill="#324A5E"/>
<path d="M18.1734 8.33325H15V26.6666H18.1733C19.1821 26.6666 19.9999 25.8488 19.9999 24.84V10.16C20 9.15104 19.1822 8.33325 18.1734 8.33325Z" fill="#2B3B4E"/>
<path d="M19.091 10.303H10.9092V15.8585H19.091V10.303Z" fill="#84DBFF"/>
<path d="M19.0909 10.303H15V15.8585H19.0909V10.303Z" fill="#31BAFD"/>
<path d="M12.5758 17.197H10.9092V18.8637H12.5758V17.197Z" fill="#536D7F"/>
<path d="M14.7475 17.197H13.0808V18.8637H14.7475V17.197Z" fill="#536D7F"/>
<path d="M16.9191 17.197H15.2524V18.8637H16.9191V17.197Z" fill="#536D7F"/>
<path d="M19.091 17.197H17.4243V18.8637H19.091V17.197Z" fill="#536D7F"/>
<path d="M12.5758 19.4192H10.9092V21.0858H12.5758V19.4192Z" fill="#536D7F"/>
<path d="M14.7475 19.4192H13.0808V21.0858H14.7475V19.4192Z" fill="#536D7F"/>
<path d="M16.9191 19.4192H15.2524V21.0858H16.9191V19.4192Z" fill="#536D7F"/>
<path d="M19.091 19.4192H17.4243V21.0858H19.091V19.4192Z" fill="#536D7F"/>
<path d="M12.5758 21.6414H10.9092V23.308H12.5758V21.6414Z" fill="#536D7F"/>
<path d="M14.7475 21.6414H13.0808V23.308H14.7475V21.6414Z" fill="#536D7F"/>
<path d="M16.9191 21.6414H15.2524V23.308H16.9191V21.6414Z" fill="#536D7F"/>
<path d="M19.091 21.6414H17.4243V23.308H19.091V21.6414Z" fill="#536D7F"/>
<path d="M12.5758 23.8638H10.9092V25.5304H12.5758V23.8638Z" fill="#536D7F"/>
<path d="M14.7475 23.8638H13.0808V25.5304H14.7475V23.8638Z" fill="#536D7F"/>
<path d="M16.9191 23.8638H15.2524V25.5304H16.9191V23.8638Z" fill="#536D7F"/>
<path d="M19.091 23.8638H17.4243V25.5304H19.091V23.8638Z" fill="#536D7F"/>
<path d="M18.4848 2.77783H11.5151V9.44451H18.4848V2.77783Z" fill="white"/>
<path d="M18.4849 2.77783H15V9.44451H18.4849V2.77783Z" fill="#E6F3FF"/>
</svg>
