<svg width="30" height="30" viewBox="0 0 30 30" fill="none" xmlns="http://www.w3.org/2000/svg">
<rect width="30" height="30" rx="5" fill="#EAEAFF"/>
<path fill-rule="evenodd" clip-rule="evenodd" d="M13.6802 8.00229C13.8396 8.00207 14.0111 8.00214 14.1961 8.00222L14.5011 8.00229C16.9441 8.00229 17.2337 8.01108 18.1984 8.0549C19.0905 8.09572 19.5747 8.24476 19.8972 8.37C20.3242 8.53584 20.6286 8.73413 20.9487 9.05438C21.2689 9.37462 21.4672 9.67964 21.6334 10.1066C21.7587 10.4288 21.9079 10.9129 21.9485 11.805C21.9924 12.7696 22.0019 13.0594 22.0019 15.5012C22.0019 17.9431 21.9924 18.2329 21.9485 19.1975C21.9077 20.0896 21.7587 20.5737 21.6334 20.8959C21.4676 21.3229 21.2689 21.627 20.9487 21.947C20.6285 22.2672 20.3244 22.4655 19.8972 22.6314C19.5751 22.7572 19.0905 22.9059 18.1984 22.9466C17.2338 22.9905 16.9441 23 14.5011 23C12.0579 23 11.7683 22.9905 10.8037 22.9466C9.91157 22.9054 9.42742 22.7564 9.10468 22.6311C8.67771 22.4653 8.37269 22.267 8.05244 21.9468C7.7322 21.6265 7.53398 21.3223 7.36771 20.8951C7.24247 20.573 7.09321 20.0888 7.05261 19.1967C7.00879 18.2322 7 17.9424 7 15.4989C7 13.0556 7.00879 12.7673 7.05261 11.8028C7.09343 10.9106 7.24247 10.4265 7.36771 10.104C7.53355 9.67692 7.7322 9.37197 8.05244 9.05173C8.37269 8.73149 8.67771 8.53319 9.10468 8.36699C9.42721 8.24118 9.91157 8.0925 10.8037 8.05147C11.6478 8.01337 11.9749 8.00193 13.6802 8V8.00229ZM19.3852 9.52159C18.779 9.52159 18.2872 10.0128 18.2872 10.6192C18.2872 11.2254 18.779 11.7172 19.3852 11.7172C19.9914 11.7172 20.4832 11.2254 20.4832 10.6192C20.4832 10.013 19.9914 9.52159 19.3852 9.52159ZM9.80221 15.5034C9.80221 12.9085 11.906 10.8046 14.5009 10.8045C17.0958 10.8045 19.1992 12.9084 19.1992 15.5034C19.1992 18.0983 17.096 20.2013 14.5011 20.2013C11.9061 20.2013 9.80221 18.0983 9.80221 15.5034Z" fill="#5C5C68"/>
<path d="M14.5011 12.4536C16.1855 12.4536 17.5511 13.8191 17.5511 15.5036C17.5511 17.1879 16.1855 18.5535 14.5011 18.5535C12.8166 18.5535 11.4512 17.1879 11.4512 15.5036C11.4512 13.8191 12.8166 12.4536 14.5011 12.4536Z" fill="#5C5C68"/>
</svg>
