<svg width="30" height="31" viewBox="0 0 30 31" fill="none" xmlns="http://www.w3.org/2000/svg">
<rect y="0.772461" width="30" height="30" rx="5" fill="#EAEAFF"/>
<path fill-rule="evenodd" clip-rule="evenodd" d="M13.6802 8.77463C13.8396 8.77441 14.0111 8.77448 14.1961 8.77456L14.5011 8.77463C16.9441 8.77463 17.2337 8.78342 18.1984 8.82724C19.0905 8.86805 19.5747 9.0171 19.8972 9.14234C20.3242 9.30818 20.6286 9.50647 20.9487 9.82671C21.2689 10.147 21.4672 10.452 21.6334 10.8789C21.7587 11.2011 21.9079 11.6853 21.9485 12.5774C21.9924 13.542 22.0019 13.8317 22.0019 16.2736C22.0019 18.7155 21.9924 19.0052 21.9485 19.9698C21.9077 20.8619 21.7587 21.3461 21.6334 21.6682C21.4676 22.0952 21.2689 22.3993 20.9487 22.7193C20.6285 23.0396 20.3244 23.2379 19.8972 23.4037C19.5751 23.5295 19.0905 23.6782 18.1984 23.7189C17.2338 23.7628 16.9441 23.7723 14.5011 23.7723C12.0579 23.7723 11.7683 23.7628 10.8037 23.7189C9.91157 23.6778 9.42742 23.5287 9.10468 23.4035C8.67771 23.2376 8.37269 23.0394 8.05244 22.7191C7.7322 22.3989 7.53398 22.0946 7.36771 21.6674C7.24247 21.3453 7.09321 20.8611 7.05261 19.969C7.00879 19.0045 7 18.7147 7 16.2713C7 13.8279 7.00879 13.5397 7.05261 12.5751C7.09343 11.683 7.24247 11.1988 7.36771 10.8763C7.53355 10.4493 7.7322 10.1443 8.05244 9.82407C8.37269 9.50382 8.67771 9.30553 9.10468 9.13933C9.42721 9.01352 9.91157 8.86484 10.8037 8.82381C11.6478 8.78571 11.9749 8.77427 13.6802 8.77234V8.77463ZM19.3852 10.2939C18.779 10.2939 18.2872 10.7852 18.2872 11.3915C18.2872 11.9977 18.779 12.4895 19.3852 12.4895C19.9914 12.4895 20.4832 11.9977 20.4832 11.3915C20.4832 10.7854 19.9914 10.2939 19.3852 10.2939ZM9.80221 16.2757C9.80221 13.6808 11.906 11.5769 14.5009 11.5768C17.0958 11.5768 19.1992 13.6807 19.1992 16.2757C19.1992 18.8707 17.096 20.9736 14.5011 20.9736C11.9061 20.9736 9.80221 18.8707 9.80221 16.2757Z" fill="#5C5C68"/>
<path d="M14.5011 13.226C16.1855 13.226 17.5511 14.5914 17.5511 16.2759C17.5511 17.9603 16.1855 19.3259 14.5011 19.3259C12.8166 19.3259 11.4512 17.9603 11.4512 16.2759C11.4512 14.5914 12.8166 13.226 14.5011 13.226Z" fill="#5C5C68"/>
</svg>
