<svg width="30" height="31" viewBox="0 0 30 31" fill="none" xmlns="http://www.w3.org/2000/svg">
<rect y="0.201172" width="30" height="30" rx="5" fill="#EAEAFF"/>
<path fill-rule="evenodd" clip-rule="evenodd" d="M13.6802 8.20334C13.8395 8.20312 14.011 8.20319 14.196 8.20327L14.501 8.20334C16.944 8.20334 17.2336 8.21213 18.1984 8.25595C19.0905 8.29677 19.5746 8.44581 19.8972 8.57105C20.3242 8.73689 20.6286 8.93518 20.9487 9.25542C21.2689 9.57567 21.4671 9.88069 21.6334 10.3077C21.7586 10.6298 21.9079 11.114 21.9485 12.0061C21.9923 12.9707 22.0018 13.2604 22.0018 15.7023C22.0018 18.1442 21.9923 18.4339 21.9485 19.3985C21.9077 20.2906 21.7586 20.7748 21.6334 21.0969C21.4676 21.5239 21.2689 21.828 20.9487 22.148C20.6284 22.4683 20.3243 22.6666 19.8972 22.8324C19.5751 22.9582 19.0905 23.1069 18.1984 23.1477C17.2338 23.1915 16.944 23.2011 14.501 23.2011C12.0578 23.2011 11.7682 23.1915 10.8037 23.1477C9.91154 23.1065 9.42739 22.9574 9.10465 22.8322C8.67768 22.6664 8.37266 22.4681 8.05241 22.1478C7.73217 21.8276 7.53395 21.5233 7.36768 21.0962C7.24244 20.7741 7.09318 20.2898 7.05258 19.3977C7.00876 18.4332 6.99997 18.1434 6.99997 15.7C6.99997 13.2566 7.00876 12.9684 7.05258 12.0038C7.0934 11.1117 7.24244 10.6275 7.36768 10.305C7.53352 9.87797 7.73217 9.57302 8.05241 9.25278C8.37266 8.93254 8.67768 8.73424 9.10465 8.56804C9.42718 8.44223 9.91154 8.29355 10.8037 8.25252C11.6477 8.21442 11.9749 8.20298 13.6802 8.20105V8.20334ZM19.3852 9.72264C18.779 9.72264 18.2871 10.2139 18.2871 10.8203C18.2871 11.4264 18.779 11.9182 19.3852 11.9182C19.9914 11.9182 20.4832 11.4264 20.4832 10.8203C20.4832 10.2141 19.9914 9.72264 19.3852 9.72264ZM9.80218 15.7044C9.80218 13.1095 11.9059 11.0056 14.5008 11.0055C17.0958 11.0055 19.1991 13.1094 19.1991 15.7044C19.1991 18.2994 17.0959 20.4023 14.501 20.4023C11.9061 20.4023 9.80218 18.2994 9.80218 15.7044Z" fill="#5C5C68"/>
<path d="M14.5011 12.6547C16.1855 12.6547 17.5511 14.0201 17.5511 15.7046C17.5511 17.389 16.1855 18.7546 14.5011 18.7546C12.8166 18.7546 11.4512 17.389 11.4512 15.7046C11.4512 14.0201 12.8166 12.6547 14.5011 12.6547Z" fill="#5C5C68"/>
</svg>
