<svg width="30" height="31" viewBox="0 0 30 31" fill="none" xmlns="http://www.w3.org/2000/svg">
<rect y="0.09375" width="30" height="30" rx="5" fill="#EAEAFF"/>
<path fill-rule="evenodd" clip-rule="evenodd" d="M13.6802 8.09604C13.8396 8.09582 14.0111 8.09589 14.1961 8.09597L14.5011 8.09604C16.9441 8.09604 17.2337 8.10483 18.1984 8.14865C19.0905 8.18947 19.5747 8.33851 19.8972 8.46375C20.3242 8.62959 20.6286 8.82788 20.9487 9.14813C21.2689 9.46837 21.4672 9.77339 21.6334 10.2004C21.7587 10.5225 21.9079 11.0067 21.9485 11.8988C21.9924 12.8634 22.0019 13.1531 22.0019 15.595C22.0019 18.0369 21.9924 18.3266 21.9485 19.2912C21.9077 20.1833 21.7587 20.6675 21.6334 20.9896C21.4676 21.4166 21.2689 21.7207 20.9487 22.0407C20.6285 22.361 20.3244 22.5593 19.8972 22.7251C19.5751 22.8509 19.0905 22.9996 18.1984 23.0404C17.2338 23.0842 16.9441 23.0938 14.5011 23.0938C12.0579 23.0938 11.7683 23.0842 10.8037 23.0404C9.91157 22.9992 9.42742 22.8501 9.10468 22.7249C8.67771 22.5591 8.37269 22.3608 8.05244 22.0405C7.7322 21.7203 7.53398 21.416 7.36771 20.9889C7.24247 20.6668 7.09321 20.1825 7.05261 19.2904C7.00879 18.3259 7 18.0361 7 15.5927C7 13.1493 7.00879 12.8611 7.05261 11.8965C7.09343 11.0044 7.24247 10.5202 7.36771 10.1977C7.53355 9.77067 7.7322 9.46572 8.05244 9.14548C8.37269 8.82524 8.67771 8.62694 9.10468 8.46074C9.42721 8.33493 9.91157 8.18625 10.8037 8.14522C11.6478 8.10712 11.9749 8.09568 13.6802 8.09375V8.09604ZM19.3852 9.61534C18.779 9.61534 18.2872 10.1066 18.2872 10.713C18.2872 11.3191 18.779 11.8109 19.3852 11.8109C19.9914 11.8109 20.4832 11.3191 20.4832 10.713C20.4832 10.1068 19.9914 9.61534 19.3852 9.61534ZM9.80221 15.5971C9.80221 13.0022 11.906 10.8983 14.5009 10.8982C17.0958 10.8982 19.1992 13.0021 19.1992 15.5971C19.1992 18.1921 17.096 20.295 14.5011 20.295C11.9061 20.295 9.80221 18.1921 9.80221 15.5971Z" fill="#5C5C68"/>
<path d="M14.5011 12.5474C16.1855 12.5474 17.5511 13.9128 17.5511 15.5973C17.5511 17.2817 16.1855 18.6473 14.5011 18.6473C12.8166 18.6473 11.4512 17.2817 11.4512 15.5973C11.4512 13.9128 12.8166 12.5474 14.5011 12.5474Z" fill="#5C5C68"/>
</svg>
