<svg width="30" height="31" viewBox="0 0 30 31" fill="none" xmlns="http://www.w3.org/2000/svg">
<rect y="0.15918" width="30" height="30" rx="5" fill="#EAEAFF"/>
<path fill-rule="evenodd" clip-rule="evenodd" d="M13.6802 8.16134C13.8396 8.16113 14.0111 8.1612 14.1961 8.16127L14.5011 8.16134C16.9441 8.16134 17.2337 8.17014 18.1984 8.21396C19.0905 8.25477 19.5747 8.40382 19.8972 8.52905C20.3242 8.69489 20.6286 8.89319 20.9487 9.21343C21.2689 9.53368 21.4672 9.83869 21.6334 10.2657C21.7587 10.5878 21.9079 11.072 21.9485 11.9641C21.9924 12.9287 22.0019 13.2184 22.0019 15.6603C22.0019 18.1022 21.9924 18.3919 21.9485 19.3565C21.9077 20.2486 21.7587 20.7328 21.6334 21.055C21.4676 21.4819 21.2689 21.786 20.9487 22.106C20.6285 22.4263 20.3244 22.6246 19.8972 22.7904C19.5751 22.9162 19.0905 23.0649 18.1984 23.1057C17.2338 23.1496 16.9441 23.1591 14.5011 23.1591C12.0579 23.1591 11.7683 23.1496 10.8037 23.1057C9.91157 23.0645 9.42742 22.9154 9.10468 22.7902C8.67771 22.6244 8.37269 22.4261 8.05244 22.1058C7.7322 21.7856 7.53398 21.4814 7.36771 21.0542C7.24247 20.7321 7.09321 20.2478 7.05261 19.3557C7.00879 18.3912 7 18.1014 7 15.658C7 13.2146 7.00879 12.9264 7.05261 11.9618C7.09343 11.0697 7.24247 10.5855 7.36771 10.263C7.53355 9.83598 7.7322 9.53103 8.05244 9.21079C8.37269 8.89054 8.67771 8.69225 9.10468 8.52605C9.42721 8.40024 9.91157 8.25156 10.8037 8.21053C11.6478 8.17242 11.9749 8.16099 13.6802 8.15906V8.16134ZM19.3852 9.68065C18.779 9.68065 18.2872 10.1719 18.2872 10.7783C18.2872 11.3844 18.779 11.8762 19.3852 11.8762C19.9914 11.8762 20.4832 11.3844 20.4832 10.7783C20.4832 10.1721 19.9914 9.68065 19.3852 9.68065ZM9.80221 15.6624C9.80221 13.0675 11.906 10.9636 14.5009 10.9636C17.0958 10.9636 19.1992 13.0674 19.1992 15.6624C19.1992 18.2574 17.096 20.3604 14.5011 20.3604C11.9061 20.3604 9.80221 18.2574 9.80221 15.6624Z" fill="#5C5C68"/>
<path d="M14.5011 12.6127C16.1855 12.6127 17.5511 13.9781 17.5511 15.6626C17.5511 17.347 16.1855 18.7126 14.5011 18.7126C12.8166 18.7126 11.4512 17.347 11.4512 15.6626C11.4512 13.9781 12.8166 12.6127 14.5011 12.6127Z" fill="#5C5C68"/>
</svg>
