<svg width="22" height="20" viewBox="0 0 22 20" fill="none" xmlns="http://www.w3.org/2000/svg">
<path d="M6.17356 2.41934L6.1736 2.41986C6.23514 3.15827 6.66902 3.90779 7.35282 4.49605H2.35451C1.5363 4.49605 0.875 5.15735 0.875 5.97556V6.83262C0.875 7.65083 1.5363 8.31213 2.35451 8.31213H2.62508V17.5608C2.62508 18.5588 3.43621 19.37 4.43422 19.37H17.5658C18.5638 19.37 19.3749 18.5588 19.3749 17.5608V8.31213H19.6455C20.4637 8.31213 21.125 7.65083 21.125 6.83262V5.97556C21.125 5.15735 20.4637 4.49605 19.6455 4.49605H14.6488C15.3359 3.90761 15.7647 3.15816 15.8264 2.42024C15.8646 1.97691 15.7596 1.49054 15.4417 1.08098C15.1231 0.670447 14.5999 0.348678 13.8232 0.218585C13.6472 0.187201 13.4721 0.174805 13.3045 0.174805C12.617 0.174805 12.0426 0.428729 11.6101 0.924754C11.3187 1.25722 11.1253 1.67111 10.9966 2.10441C10.8666 1.66936 10.6713 1.25338 10.3842 0.925112C9.95742 0.428524 9.38266 0.174805 8.69554 0.174805C8.53344 0.174805 8.35858 0.187262 8.17715 0.218524C7.40021 0.348591 6.87829 0.670454 6.56043 1.0811C6.24342 1.49063 6.13853 1.97669 6.17356 2.41934ZM14.6842 2.3271L14.6842 2.32725C14.6518 2.71888 14.3818 3.21675 13.8842 3.64034C13.4138 4.04084 12.7481 4.36706 11.9168 4.46538C11.8952 4.06469 11.8987 3.55538 11.9681 3.06221C12.0458 2.51033 12.2034 1.99908 12.4819 1.67625C12.689 1.43734 12.9524 1.32382 13.3105 1.32382C13.4095 1.32382 13.5222 1.33485 13.6383 1.35221C13.8591 1.39009 14.1408 1.46699 14.3567 1.61996C14.566 1.76821 14.7129 1.98591 14.6842 2.3271ZM7.32176 2.32725L7.32175 2.3271C7.2931 1.98591 7.44002 1.76821 7.64928 1.61996C7.86519 1.46699 8.14688 1.3901 8.36773 1.35221C8.48375 1.33485 8.59648 1.32382 8.69554 1.32382C9.052 1.32382 9.31648 1.44229 9.52459 1.67685C9.8027 1.99654 9.96022 2.50587 10.0379 3.05771C10.1074 3.5512 10.1108 4.06207 10.0892 4.46538C9.25783 4.36705 8.59222 4.04083 8.12178 3.64034C7.62421 3.21675 7.35417 2.71888 7.32176 2.32725ZM18.2199 17.5548V17.6434C18.1762 17.9646 17.8982 18.215 17.5658 18.215H4.43422C4.07173 18.215 3.77409 17.9173 3.77409 17.5548V8.31213H18.2199V17.5548ZM19.976 6.83262C19.976 7.01531 19.8282 7.16312 19.6455 7.16312H18.8004H3.20557H2.3605C2.17782 7.16312 2.03 7.01531 2.03 6.83262V5.97556C2.03 5.79287 2.17782 5.64506 2.3605 5.64506H19.6455C19.8282 5.64506 19.976 5.79287 19.976 5.97556V6.83262Z" fill="#D1D1F0" stroke="#D1D1F0" stroke-width="0.25"/>
<path d="M8.6536 12.6453C9.60966 12.6453 10.3848 11.8702 10.3848 10.9141C10.3848 9.95803 9.60966 9.18286 8.6536 9.18286C7.69754 9.18286 6.92236 9.95803 6.92236 10.9141C6.92236 11.8702 7.69754 12.6453 8.6536 12.6453ZM8.6536 10.3319C8.97413 10.3319 9.23582 10.5936 9.23582 10.9141C9.23582 11.2346 8.97413 11.4963 8.6536 11.4963C8.33306 11.4963 8.07137 11.2346 8.07137 10.9141C8.07137 10.5936 8.33306 10.3319 8.6536 10.3319Z" fill="#D1D1F0" stroke="#D1D1F0" stroke-width="0.25"/>
<path d="M13.3524 13.8757C12.3963 13.8757 11.6212 14.6509 11.6212 15.607C11.6212 16.563 12.3963 17.3382 13.3524 17.3382C14.3084 17.3382 15.0836 16.563 15.0836 15.607C15.0836 14.6509 14.3084 13.8757 13.3524 13.8757ZM13.3524 16.1952C13.0319 16.1952 12.7702 15.9335 12.7702 15.613C12.7702 15.2924 13.0319 15.0307 13.3524 15.0307C13.6729 15.0307 13.9346 15.2924 13.9346 15.613C13.9346 15.9335 13.6729 16.1952 13.3524 16.1952Z" fill="#D1D1F0" stroke="#D1D1F0" stroke-width="0.25"/>
<path d="M7.40324 16.8649C7.51771 16.9789 7.6636 17.0326 7.80852 17.0326C7.95376 17.0326 8.09998 16.9787 8.21456 16.8641L14.6035 10.4751C14.8262 10.2525 14.8262 9.88569 14.6035 9.66306C14.3809 9.44044 14.0141 9.44044 13.7915 9.66306L7.40319 16.0513C7.17361 16.2741 7.17363 16.6421 7.40324 16.8649Z" fill="#D1D1F0" stroke="#D1D1F0" stroke-width="0.25"/>
</svg>
