<svg width="30" height="31" viewBox="0 0 30 31" fill="none" xmlns="http://www.w3.org/2000/svg">
<path d="M0 5.09375C0 2.33233 2.23858 0.09375 5 0.09375H25C27.7614 0.09375 30 2.33233 30 5.09375V25.0938C30 27.8552 27.7614 30.0938 25 30.0938H5C2.23858 30.0938 0 27.8552 0 25.0938V5.09375Z" fill="#EAEAFF"/>
<path fill-rule="evenodd" clip-rule="evenodd" d="M10.7895 9.84191C10.7895 10.8137 10.058 11.5913 8.88348 11.5913H8.86193C7.73111 11.5913 7 10.8137 7 9.84191C7 8.84957 7.75334 8.09375 8.90566 8.09375C10.058 8.09375 10.7677 8.84957 10.7895 9.84191ZM10.5676 12.9727V23.0935H7.19917V12.9727H10.5676ZM22.7154 23.0935L22.7156 17.2905C22.7156 14.1819 21.0538 12.735 18.8372 12.735C17.0488 12.735 16.248 13.7173 15.801 14.4064V12.973H12.4321C12.4765 13.9226 12.4321 23.0938 12.4321 23.0938H15.801V17.4414C15.801 17.139 15.8229 16.8372 15.9119 16.6206C16.1554 16.0164 16.7097 15.3907 17.6403 15.3907C18.8597 15.3907 19.3471 16.3188 19.3471 17.6788V23.0935H22.7154Z" fill="#5C5C68"/>
</svg>
