<svg width="30" height="31" viewBox="0 0 30 31" fill="none" xmlns="http://www.w3.org/2000/svg">
<path d="M0 5.20117C0 2.43975 2.23858 0.201172 5 0.201172H25C27.7614 0.201172 30 2.43975 30 5.20117V25.2012C30 27.9626 27.7614 30.2012 25 30.2012H5C2.23858 30.2012 0 27.9626 0 25.2012V5.20117Z" fill="#EAEAFF"/>
<path fill-rule="evenodd" clip-rule="evenodd" d="M10.7895 9.94921C10.7895 10.921 10.058 11.6986 8.88345 11.6986H8.8619C7.73108 11.6986 6.99997 10.921 6.99997 9.94921C6.99997 8.95687 7.75331 8.20105 8.90563 8.20105C10.058 8.20105 10.7676 8.95687 10.7895 9.94921ZM10.5676 13.08V23.2008H7.19914V13.08H10.5676ZM22.7154 23.2008L22.7155 17.3978C22.7155 14.2892 21.0538 12.8423 18.8371 12.8423C17.0487 12.8423 16.248 13.8246 15.801 14.5137V13.0803H12.4321C12.4765 14.0299 12.4321 23.201 12.4321 23.201H15.801V17.5487C15.801 17.2463 15.8228 16.9445 15.9119 16.7279C16.1554 16.1237 16.7097 15.498 17.6402 15.498C18.8596 15.498 19.3471 16.4261 19.3471 17.7861V23.2008H22.7154Z" fill="#5C5C68"/>
</svg>
