<svg width="24" height="25" viewBox="0 0 24 25" fill="none" xmlns="http://www.w3.org/2000/svg">
<path d="M15.5306 9.24173C15.6004 9.31138 15.6557 9.3941 15.6934 9.48515C15.7312 9.57619 15.7506 9.67379 15.7506 9.77235C15.7506 9.87091 15.7312 9.96851 15.6934 10.0596C15.6557 10.1506 15.6004 10.2333 15.5306 10.303L9.53065 16.303C9.46097 16.3727 9.37824 16.4279 9.2872 16.4656C9.19615 16.5034 9.09857 16.5228 9.00002 16.5228C8.90148 16.5228 8.8039 16.5034 8.71285 16.4656C8.62181 16.4279 8.53908 16.3727 8.4694 16.303C8.39972 16.2333 8.34444 16.1506 8.30673 16.0595C8.26902 15.9685 8.24961 15.8709 8.24961 15.7724C8.24961 15.6738 8.26902 15.5762 8.30673 15.4852C8.34444 15.3941 8.39972 15.3114 8.4694 15.2417L14.4694 9.24173C14.5391 9.17199 14.6218 9.11667 14.7128 9.07893C14.8039 9.04119 14.9015 9.02176 15 9.02176C15.0986 9.02176 15.1962 9.04119 15.2872 9.07893C15.3783 9.11667 15.461 9.17199 15.5306 9.24173ZM20.2125 4.55985C19.725 4.07229 19.1462 3.68553 18.5092 3.42166C17.8722 3.15779 17.1895 3.02197 16.5 3.02197C15.8105 3.02197 15.1278 3.15779 14.4908 3.42166C13.8538 3.68553 13.275 4.07229 12.7875 4.55985L9.9694 7.37704C9.82867 7.51777 9.74961 7.70864 9.74961 7.90766C9.74961 8.10669 9.82867 8.29756 9.9694 8.43829C10.1101 8.57902 10.301 8.65808 10.5 8.65808C10.699 8.65808 10.8899 8.57902 11.0306 8.43829L13.8488 5.62579C14.5546 4.93546 15.5042 4.55134 16.4915 4.55677C17.4788 4.56221 18.4241 4.95677 19.1222 5.65483C19.8204 6.35289 20.2151 7.29812 20.2208 8.2854C20.2264 9.27268 19.8424 10.2223 19.1522 10.9283L16.3331 13.7464C16.1924 13.887 16.1133 14.0778 16.1132 14.2767C16.1131 14.4756 16.1921 14.6665 16.3327 14.8072C16.4733 14.9479 16.664 15.027 16.863 15.0271C17.0619 15.0272 17.2527 14.9483 17.3935 14.8077L20.2125 11.9849C20.7001 11.4973 21.0868 10.9186 21.3507 10.2816C21.6146 9.64457 21.7504 8.96184 21.7504 8.27235C21.7504 7.58287 21.6146 6.90013 21.3507 6.26314C21.0868 5.62615 20.7001 5.04737 20.2125 4.55985ZM12.9694 17.1055L10.1513 19.9236C9.80447 20.2782 9.39077 20.5605 8.93413 20.7541C8.47749 20.9477 7.98698 21.0488 7.491 21.0515C6.99502 21.0542 6.50342 20.9585 6.04468 20.77C5.58593 20.5814 5.16915 20.3037 4.81846 19.953C4.46778 19.6022 4.19015 19.1854 4.00167 18.7266C3.81319 18.2678 3.71759 17.7762 3.72041 17.2802C3.72323 16.7843 3.82441 16.2938 4.01809 15.8372C4.21178 15.3806 4.49412 14.9669 4.84877 14.6202L7.66596 11.803C7.80669 11.6622 7.88575 11.4714 7.88575 11.2724C7.88575 11.0733 7.80669 10.8825 7.66596 10.7417C7.52523 10.601 7.33436 10.5219 7.13534 10.5219C6.93631 10.5219 6.74544 10.601 6.60471 10.7417L3.78752 13.5599C2.80291 14.5445 2.24976 15.8799 2.24976 17.2724C2.24976 18.6648 2.80291 20.0002 3.78752 20.9849C4.77214 21.9695 6.10757 22.5226 7.50002 22.5226C8.89248 22.5226 10.2279 21.9695 11.2125 20.9849L14.0306 18.1658C14.1713 18.0251 14.2502 17.8342 14.2501 17.6353C14.25 17.4364 14.1709 17.2456 14.0302 17.105C13.8894 16.9644 13.6986 16.8855 13.4997 16.8855C13.3008 16.8856 13.11 16.9647 12.9694 17.1055Z" fill="white"/>
</svg>
