<svg width="30" height="30" viewBox="0 0 30 30" fill="none" xmlns="http://www.w3.org/2000/svg">
<path d="M0 5C0 2.23858 2.23858 0 5 0H25C27.7614 0 30 2.23858 30 5V25C30 27.7614 27.7614 30 25 30H5C2.23858 30 0 27.7614 0 25V5Z" fill="#EAEAFF"/>
<path fill-rule="evenodd" clip-rule="evenodd" d="M10.7895 9.74816C10.7895 10.7199 10.058 11.4975 8.88348 11.4975H8.86193C7.73111 11.4975 7 10.7199 7 9.74816C7 8.75582 7.75334 8 8.90566 8C10.058 8 10.7677 8.75582 10.7895 9.74816ZM10.5676 12.8789V22.9998H7.19917V12.8789H10.5676ZM22.7154 22.9998L22.7156 17.1968C22.7156 14.0881 21.0538 12.6413 18.8372 12.6413C17.0488 12.6413 16.248 13.6236 15.801 14.3127V12.8792H12.4321C12.4765 13.8289 12.4321 23 12.4321 23H15.801V17.3477C15.801 17.0452 15.8229 16.7435 15.9119 16.5269C16.1554 15.9226 16.7097 15.297 17.6403 15.297C18.8597 15.297 19.3471 16.225 19.3471 17.5851V22.9998H22.7154Z" fill="#5C5C68"/>
</svg>
