<svg width="30" height="31" viewBox="0 0 30 31" fill="none" xmlns="http://www.w3.org/2000/svg">
<path d="M0 5.15918C0 2.39776 2.23858 0.15918 5 0.15918H25C27.7614 0.15918 30 2.39776 30 5.15918V25.1592C30 27.9206 27.7614 30.1592 25 30.1592H5C2.23858 30.1592 0 27.9206 0 25.1592V5.15918Z" fill="#EAEAFF"/>
<path fill-rule="evenodd" clip-rule="evenodd" d="M10.7895 9.90722C10.7895 10.879 10.058 11.6566 8.88348 11.6566H8.86193C7.73111 11.6566 7 10.879 7 9.90722C7 8.91488 7.75334 8.15906 8.90566 8.15906C10.058 8.15906 10.7677 8.91488 10.7895 9.90722ZM10.5676 13.038V23.1588H7.19917V13.038H10.5676ZM22.7154 23.1588L22.7156 17.3558C22.7156 14.2472 21.0538 12.8003 18.8372 12.8003C17.0488 12.8003 16.248 13.7826 15.801 14.4718V13.0383H12.4321C12.4765 13.9879 12.4321 23.1591 12.4321 23.1591H15.801V17.5067C15.801 17.2043 15.8229 16.9025 15.9119 16.686C16.1554 16.0817 16.7097 15.456 17.6403 15.456C18.8597 15.456 19.3471 16.3841 19.3471 17.7441V23.1588H22.7154Z" fill="#5C5C68"/>
</svg>
