<svg width="30" height="31" viewBox="0 0 30 31" fill="none" xmlns="http://www.w3.org/2000/svg">
<path d="M0 5.77246C0 3.01104 2.23858 0.772461 5 0.772461H25C27.7614 0.772461 30 3.01104 30 5.77246V25.7725C30 28.5339 27.7614 30.7725 25 30.7725H5C2.23858 30.7725 0 28.5339 0 25.7725V5.77246Z" fill="#EAEAFF"/>
<path fill-rule="evenodd" clip-rule="evenodd" d="M10.7895 10.5205C10.7895 11.4923 10.058 12.2698 8.88348 12.2698H8.86193C7.73111 12.2698 7 11.4923 7 10.5205C7 9.52816 7.75334 8.77234 8.90566 8.77234C10.058 8.77234 10.7677 9.52816 10.7895 10.5205ZM10.5676 13.6512V23.7721H7.19917V13.6512H10.5676ZM22.7154 23.7721L22.7156 17.9691C22.7156 14.8605 21.0538 13.4136 18.8372 13.4136C17.0488 13.4136 16.248 14.3959 15.801 15.085V13.6515H12.4321C12.4765 14.6012 12.4321 23.7723 12.4321 23.7723H15.801V18.12C15.801 17.8175 15.8229 17.5158 15.9119 17.2992C16.1554 16.695 16.7097 16.0693 17.6403 16.0693C18.8597 16.0693 19.3471 16.9974 19.3471 18.3574V23.7721H22.7154Z" fill="#5C5C68"/>
</svg>
