<svg width="40" height="24" viewBox="0 0 40 24" fill="none" xmlns="http://www.w3.org/2000/svg">
<g clip-path="url(#clip0_0_2284)">
<path fill-rule="evenodd" clip-rule="evenodd" d="M11.8932 0C5.32434 0 0 5.37252 0 12C0 18.6275 5.32434 24 11.8932 24C14.9282 24 17.6979 22.8522 19.7994 20.9645C19.9665 20.8144 20.1289 20.6594 20.287 20.5002C20.3398 20.4471 20.3922 20.3938 20.444 20.3397H19.1548C19.2066 20.3938 19.259 20.4471 19.3117 20.5002C19.2591 20.4472 19.2065 20.3937 19.1548 20.3397C18.9279 20.103 18.7113 19.8572 18.5042 19.6023C18.4585 19.546 18.4125 19.4891 18.3678 19.432C18.4126 19.4893 18.4584 19.5458 18.5042 19.6023H21.0934C21.2766 19.3765 21.4527 19.1443 21.6196 18.9053H17.9792C18.0626 19.0248 18.1475 19.1431 18.235 19.2593C18.1473 19.143 18.0627 19.0248 17.9792 18.9053C17.7752 18.6134 17.5838 18.3115 17.4058 18.0012C17.1751 17.5991 16.967 17.1829 16.783 16.753C16.7324 16.6349 16.6837 16.5165 16.6369 16.3965C16.5903 16.2772 16.5458 16.1562 16.5029 16.0351C16.4172 15.7928 16.338 15.5469 16.2675 15.2977H23.3325C23.3991 15.0619 23.4586 14.8226 23.5111 14.5811H16.0889C16.1282 14.7622 16.1719 14.9419 16.2193 15.12C16.1718 14.9419 16.1283 14.7624 16.0889 14.5811C16.0115 14.2249 15.9495 13.863 15.9042 13.4957C15.8996 13.4579 15.8952 13.4197 15.8909 13.3818C15.8953 13.42 15.8994 13.4576 15.9042 13.4957C15.9188 13.612 15.9348 13.7281 15.9525 13.8436H23.6475C23.6828 13.6127 23.7123 13.3805 23.7344 13.1454H15.8656C15.8428 12.9022 15.8279 12.6563 15.8197 12.4091C15.8175 12.3411 15.816 12.2729 15.8149 12.2046C15.8138 12.1364 15.8125 12.0684 15.8125 12C15.8125 12.0685 15.8136 12.1364 15.8149 12.2046C15.8161 12.2728 15.8175 12.3412 15.8197 12.4091H23.7803C23.7823 12.3485 23.7839 12.2874 23.7851 12.2266C23.7852 12.2193 23.785 12.2119 23.7851 12.2046C23.7851 12.2021 23.7851 12.1997 23.7851 12.1972C23.7863 12.1315 23.7875 12.066 23.7875 12C23.7875 11.8885 23.7858 11.7776 23.7827 11.6668C23.7713 11.2576 23.7394 10.8531 23.6885 10.4553H15.9115C15.8791 10.7081 15.8545 10.9633 15.8378 11.2209C15.8337 11.2853 15.8301 11.3498 15.827 11.4145C15.8243 11.4681 15.8216 11.5223 15.8197 11.5762C15.8216 11.5221 15.8244 11.4683 15.827 11.4145C15.83 11.3497 15.8337 11.2853 15.8378 11.2209C15.8862 10.4595 16.0052 9.71738 16.1879 9.00122C16.2514 8.75204 16.3228 8.50642 16.4015 8.26378C16.4201 8.20646 16.4388 8.14922 16.4583 8.09228C16.4775 8.03586 16.4973 7.97927 16.5174 7.92323C16.4973 7.97972 16.4776 8.03543 16.4583 8.09228C16.439 8.14914 16.4201 8.20661 16.4015 8.26378H23.1985C23.1243 8.03511 23.0443 7.80873 22.9571 7.58636H16.6429C16.6211 7.64196 16.5999 7.69812 16.579 7.75419C16.6 7.69814 16.6211 7.642 16.6429 7.58636C16.7411 7.33594 16.8475 7.09074 16.9616 6.84892C16.9927 6.78302 17.0247 6.71693 17.057 6.65169C17.0895 6.58586 17.1222 6.52084 17.1559 6.4557C17.1224 6.52053 17.0893 6.58617 17.057 6.65169C17.0246 6.71722 16.9928 6.78274 16.9616 6.84892H22.6384C22.5961 6.7592 22.5524 6.67037 22.508 6.58187C22.487 6.53996 22.4668 6.49855 22.4453 6.45692C22.4397 6.44622 22.4339 6.43575 22.4284 6.42507C22.422 6.41283 22.4155 6.40057 22.4091 6.38832C22.3772 6.3276 22.3454 6.26711 22.3125 6.20702C22.2876 6.16147 22.262 6.11622 22.2365 6.07105H17.3636C17.5056 5.81937 17.657 5.57348 17.8162 5.33361C17.8536 5.27723 17.8913 5.22148 17.9297 5.16578C17.9677 5.1105 18.0066 5.05501 18.0455 5.00041C18.1238 4.89063 18.2027 4.78274 18.2845 4.67579C18.4784 4.42232 18.6824 4.17638 18.8953 3.93957H20.7035C20.6321 3.86026 20.5596 3.78173 20.4862 3.70437C20.2661 3.47227 20.0373 3.24921 19.7994 3.03552C17.6979 1.14778 14.9282 0 11.8932 0ZM18.2845 4.67579C18.2029 4.78256 18.1236 4.89072 18.0455 5.00041C18.0065 5.05525 17.9678 5.11027 17.9297 5.16578C17.8915 5.2213 17.8535 5.27745 17.8162 5.33361H21.7826C21.6335 5.109 21.4776 4.88933 21.3143 4.67579H18.2845ZM16.1879 9.00122C16.1277 9.23729 16.0747 9.47645 16.0285 9.71784H23.5715C23.5253 9.47646 23.4723 9.23729 23.4121 9.00122H16.1879ZM16.5029 16.0351C16.5459 16.1567 16.5902 16.2769 16.6369 16.3965C16.6836 16.5161 16.7326 16.6352 16.783 16.753H22.817C22.9179 16.5174 23.0111 16.2782 23.0971 16.0351H16.5029ZM17.4058 18.0012C17.4379 18.0571 17.4707 18.1125 17.5036 18.1678H22.0964C22.2282 17.9464 22.3529 17.7208 22.4706 17.4904H17.1294C17.2176 17.6632 17.3096 17.8336 17.4058 18.0012ZM20.8773 4.13679C20.906 4.17012 20.9347 4.20359 20.963 4.23724C20.9347 4.20362 20.906 4.17009 20.8773 4.13679ZM21.8924 5.5002C21.9154 5.53607 21.9387 5.57187 21.9612 5.608C21.9386 5.57177 21.9155 5.53617 21.8924 5.5002ZM20.963 19.7628C20.9347 19.7964 20.906 19.8299 20.8773 19.8632C20.906 19.8299 20.9347 19.7964 20.963 19.7628ZM20.7759 19.9796C20.7419 20.0181 20.7078 20.0566 20.6733 20.0947C20.7078 20.0567 20.7419 20.0181 20.7759 19.9796Z" fill="#FF0018"/>
<path fill-rule="evenodd" clip-rule="evenodd" d="M27.7069 0C24.6718 0 21.9021 1.14778 19.8006 3.03552C20.1175 3.32026 20.4184 3.62255 20.7035 3.93957H18.8953C18.6825 4.17629 18.4796 4.42242 18.2858 4.67579H21.3143C21.4777 4.88933 21.6335 5.109 21.7826 5.33361H17.8162C17.657 5.57351 17.5056 5.81934 17.3636 6.07105H22.2365C22.3797 6.32463 22.5135 6.5842 22.6384 6.84892H16.9616C16.8477 7.09035 16.741 7.33637 16.643 7.58636H22.9571C23.0443 7.80873 23.1243 8.03511 23.1985 8.26378H16.4015C16.2483 8.73616 16.1233 9.22167 16.0286 9.71784C16.0747 9.47645 16.1277 9.23729 16.1879 9.00122H23.4121C23.4724 9.23729 23.5253 9.47646 23.5715 9.71784H16.0286C15.9703 10.0232 15.9234 10.332 15.8885 10.6452C15.8957 10.5817 15.9034 10.5185 15.9115 10.4553H23.6886C23.7532 10.9608 23.7875 11.4765 23.7875 12C23.7875 12.137 23.7848 12.2733 23.7803 12.4091H15.8197C15.828 12.6568 15.8439 12.9017 15.8668 13.1454H23.7344C23.7124 13.3805 23.6828 13.6127 23.6475 13.8436H15.9525C15.9905 14.0923 16.036 14.3377 16.0889 14.5811H23.5111C23.4586 14.8226 23.3991 15.0619 23.3325 15.2977H16.2676C16.3381 15.5471 16.4171 15.7926 16.5029 16.0351H23.0971C23.0111 16.2782 22.9179 16.5174 22.8171 16.753H16.783C16.9925 17.2424 17.2339 17.7147 17.5036 18.1678C17.3719 17.9464 17.247 17.7208 17.1294 17.4904H22.4706C22.3529 17.7208 22.2282 17.9464 22.0965 18.1678H17.5036C17.6534 18.4196 17.812 18.666 17.9792 18.9053H21.6197C21.4527 19.1443 21.2767 19.3765 21.0934 19.6023H18.5042C18.7111 19.8569 18.9282 20.1032 19.1548 20.3397H20.444C20.2371 20.5559 20.0232 20.7645 19.8006 20.9645C21.9021 22.8522 24.6718 24 27.7069 24C34.2757 24 39.6 18.6275 39.6 12C39.6 5.37252 34.2757 0 27.7069 0ZM17.9792 18.9053C18.0209 18.9649 18.0632 19.024 18.1059 19.0829C18.0632 19.024 18.0209 18.965 17.9792 18.9053ZM16.783 16.753C16.6822 16.5174 16.5889 16.2782 16.5029 16.0351C16.589 16.2782 16.6821 16.5174 16.783 16.753ZM15.8197 12.4091C15.8175 12.3412 15.8162 12.2728 15.8149 12.2046C15.816 12.2727 15.8175 12.3413 15.8197 12.4091ZM15.8149 12.2046C15.8137 12.1364 15.8125 12.0685 15.8125 12C15.8125 12.0685 15.8138 12.1364 15.8149 12.2046ZM15.8885 10.6452C15.8744 10.7724 15.8625 10.9002 15.8523 11.0286C15.8627 10.9004 15.8743 10.7722 15.8885 10.6452ZM15.8523 11.0286C15.8484 11.0778 15.8448 11.1274 15.8415 11.1768C15.8449 11.1272 15.8484 11.078 15.8523 11.0286ZM16.4015 8.26378C16.4201 8.20661 16.439 8.14914 16.4583 8.09228C16.4389 8.14921 16.4201 8.20647 16.4015 8.26378ZM16.643 7.58636C16.6251 7.63183 16.6084 7.67782 16.5911 7.72356C16.6083 7.67784 16.6251 7.63177 16.643 7.58636ZM17.8162 5.33361C17.8535 5.27745 17.8916 5.2213 17.9297 5.16578C17.8914 5.22136 17.8535 5.27735 17.8162 5.33361ZM17.9297 5.16578C17.9678 5.11027 18.0065 5.05525 18.0456 5.00041C18.0065 5.05518 17.9678 5.11033 17.9297 5.16578ZM17.156 6.4557C17.1255 6.51449 17.0961 6.57395 17.0666 6.63332C17.096 6.57405 17.1256 6.5144 17.156 6.4557ZM16.5705 7.77746C16.5525 7.82592 16.5349 7.87448 16.5174 7.92323C16.5347 7.87452 16.5526 7.82586 16.5705 7.77746ZM15.827 11.4145C15.824 11.4761 15.8205 11.5375 15.8185 11.5994C15.8206 11.5378 15.824 11.4759 15.827 11.4145ZM15.9042 13.4957C15.9088 13.5329 15.9138 13.5701 15.9187 13.6072C15.9137 13.57 15.9089 13.533 15.9042 13.4957ZM16.0901 14.5872C16.1029 14.6457 16.1164 14.7041 16.13 14.7624C16.1164 14.7043 16.1028 14.6455 16.0901 14.5872ZM16.1734 14.9412C16.1877 14.9984 16.2018 15.0558 16.2169 15.1127C16.2018 15.0558 16.1877 14.9984 16.1734 14.9412ZM19.1693 20.3544C19.2165 20.4035 19.2638 20.452 19.3118 20.5002C19.2639 20.452 19.2164 20.4035 19.1693 20.3544Z" fill="#FFAA18"/>
<path d="M38.2915 18.8538C38.3855 18.8538 38.4782 18.8783 38.5675 18.9281C38.6576 18.9763 38.7277 19.0472 38.778 19.1391C38.8284 19.2303 38.8531 19.3253 38.8531 19.4247C38.8531 19.523 38.8284 19.6178 38.7787 19.7084C38.7295 19.7991 38.6602 19.8702 38.5708 19.9202C38.4817 19.97 38.3883 19.9951 38.2913 19.9951C38.1935 19.9951 38.1001 19.97 38.0108 19.9202C37.9216 19.8698 37.8525 19.7991 37.8031 19.7084C37.7528 19.6178 37.7283 19.523 37.7283 19.4247C37.7283 19.3253 37.7532 19.2303 37.8037 19.1391C37.8543 19.0472 37.9246 18.9767 38.0143 18.9281C38.1048 18.8783 38.1975 18.8538 38.2915 18.8538ZM38.2915 18.9478C38.2128 18.9478 38.1358 18.9685 38.0606 19.0102C37.9856 19.0508 37.9273 19.1096 37.8851 19.1865C37.8431 19.2624 37.8219 19.3419 37.8219 19.4244C37.8219 19.5068 37.8423 19.5857 37.8834 19.661C37.9252 19.7361 37.9833 19.7951 38.0583 19.8375C38.1325 19.879 38.21 19.8999 38.2915 19.8999C38.3724 19.8999 38.4505 19.879 38.5247 19.8375C38.5989 19.7951 38.657 19.7361 38.6982 19.661C38.7397 19.5851 38.7599 19.5068 38.7599 19.4244C38.7599 19.3419 38.7389 19.2624 38.6969 19.1865C38.6551 19.1096 38.5968 19.0508 38.5214 19.0102C38.4468 18.9687 38.3704 18.9478 38.2915 18.9478ZM38.0451 19.7399V19.1257H38.2534C38.3243 19.1257 38.3761 19.1315 38.4075 19.1432C38.4393 19.1542 38.4642 19.1739 38.4837 19.2024C38.5027 19.2307 38.5123 19.2604 38.5123 19.2923C38.5123 19.3371 38.4962 19.3763 38.4644 19.4094C38.4334 19.4425 38.3916 19.4616 38.3394 19.4652C38.3602 19.4744 38.3775 19.4853 38.3908 19.4977C38.415 19.522 38.4448 19.5626 38.4801 19.6194L38.5542 19.7397H38.4346L38.3814 19.6431C38.339 19.5668 38.305 19.5194 38.2791 19.5001C38.2613 19.4859 38.2351 19.4789 38.2008 19.4789H38.1437V19.7401L38.0451 19.7399ZM38.1429 19.3943H38.2615C38.3182 19.3943 38.3565 19.3857 38.3769 19.3686C38.3975 19.3518 38.4083 19.3289 38.4083 19.3004C38.4083 19.2823 38.4034 19.266 38.3936 19.2522C38.3836 19.2375 38.3696 19.2269 38.3518 19.2195C38.3339 19.2126 38.3019 19.209 38.254 19.209H38.1431V19.3943" fill="#FFAA18"/>
<path d="M38.2915 13.9514C38.3855 13.9514 38.4782 13.9759 38.5675 14.0257C38.6576 14.0739 38.7277 14.1449 38.778 14.2367C38.8284 14.328 38.8531 14.423 38.8531 14.5224C38.8531 14.6206 38.8284 14.7155 38.7787 14.8061C38.7295 14.8968 38.6602 14.9679 38.5708 15.0179C38.4817 15.0677 38.3883 15.0928 38.2913 15.0928C38.1935 15.0928 38.1001 15.0677 38.0108 15.0179C37.9216 14.9675 37.8525 14.8968 37.8031 14.8061C37.7528 14.7155 37.7283 14.6206 37.7283 14.5224C37.7283 14.423 37.7532 14.328 37.8037 14.2367C37.8543 14.1449 37.9246 14.0743 38.0143 14.0257C38.1048 13.9759 38.1975 13.9514 38.2915 13.9514ZM38.2915 14.0455C38.2128 14.0455 38.1358 14.0662 38.0606 14.1078C37.9856 14.1485 37.9273 14.2072 37.8851 14.2841C37.8431 14.36 37.8219 14.4395 37.8219 14.522C37.8219 14.6045 37.8423 14.6834 37.8834 14.7587C37.9252 14.8338 37.9833 14.8928 38.0583 14.9352C38.1325 14.9766 38.21 14.9976 38.2915 14.9976C38.3724 14.9976 38.4505 14.9766 38.5247 14.9352C38.5989 14.8928 38.657 14.8338 38.6982 14.7587C38.7397 14.6828 38.7599 14.6045 38.7599 14.522C38.7599 14.4395 38.7389 14.36 38.6969 14.2841C38.6551 14.2072 38.5968 14.1485 38.5214 14.1078C38.4468 14.0664 38.3704 14.0455 38.2915 14.0455ZM38.0451 14.8376V14.2234H38.2534C38.3243 14.2234 38.3761 14.2291 38.4075 14.2409C38.4393 14.2519 38.4642 14.2716 38.4837 14.3001C38.5027 14.3284 38.5123 14.358 38.5123 14.3899C38.5123 14.4347 38.4962 14.474 38.4644 14.5071C38.4334 14.5401 38.3916 14.5593 38.3394 14.5628C38.3602 14.572 38.3775 14.583 38.3908 14.5953C38.415 14.6196 38.4448 14.6603 38.4801 14.7171L38.5542 14.8374H38.4346L38.3814 14.7408C38.339 14.6645 38.305 14.617 38.2791 14.5977C38.2613 14.5836 38.2351 14.5766 38.2008 14.5766H38.1437V14.8378L38.0451 14.8376ZM38.1429 14.4919H38.2615C38.3182 14.4919 38.3565 14.4834 38.3769 14.4662C38.3975 14.4495 38.4083 14.4266 38.4083 14.3981C38.4083 14.38 38.4034 14.3636 38.3936 14.3499C38.3836 14.3351 38.3696 14.3246 38.3518 14.3172C38.3339 14.3102 38.3019 14.3066 38.254 14.3066H38.1431V14.4919" fill="white"/>
<path d="M16.0869 14.864L16.2425 13.9478C16.1575 13.9478 16.0325 13.9793 15.9221 13.9793C15.4893 13.9793 15.4416 13.7798 15.4691 13.6323L15.8188 11.7628H16.4766L16.6354 10.7494H16.0152L16.1415 10.1191H14.8981C14.8706 10.1429 14.1641 13.6637 14.1641 14.0924C14.1641 14.7271 14.5751 15.0098 15.1548 15.0052C15.6087 15.0019 15.9622 14.893 16.0869 14.864Z" fill="white"/>
<path d="M16.4805 13.1172C16.4805 14.6405 17.6403 15.0025 18.6284 15.0025C19.5405 15.0025 19.9418 14.8257 19.9418 14.8257L20.1608 13.7861C20.1608 13.7861 19.4671 14.0511 18.8405 14.0511C17.5053 14.0511 17.7392 13.1881 17.7392 13.1881H20.266C20.266 13.1881 20.4292 12.4896 20.4292 12.205C20.4292 11.4948 20.0214 10.6294 18.6562 10.6294C17.406 10.6296 16.4805 11.7974 16.4805 13.1172ZM18.661 11.5948C19.3627 11.5948 19.2332 12.2784 19.2332 12.3337H17.8528C17.8528 12.263 17.9833 11.5948 18.661 11.5948Z" fill="white"/>
<path d="M26.5346 14.8636L26.757 13.6885C26.757 13.6885 26.1469 13.9537 25.7282 13.9537C24.8462 13.9537 24.4924 13.3698 24.4924 12.7426C24.4924 11.4701 25.2514 10.77 26.0962 10.77C26.7298 10.77 27.2382 11.0784 27.2382 11.0784L27.4412 9.93663C27.4412 9.93663 26.6872 9.67212 26.0408 9.67212C24.6054 9.67212 23.209 10.7516 23.209 12.779C23.209 14.1234 23.963 15.0112 25.4468 15.0112C25.8663 15.0114 26.5346 14.8636 26.5346 14.8636Z" fill="white"/>
<path d="M9.24737 10.6462C8.39476 10.6462 7.74116 10.8838 7.74116 10.8838L7.56073 11.8124C7.56073 11.8124 8.10018 11.6223 8.91563 11.6223C9.37864 11.6223 9.71737 11.6675 9.71737 11.9937C9.71737 12.1918 9.67585 12.2649 9.67585 12.2649C9.67585 12.2649 9.31063 12.2384 9.14154 12.2384C8.06618 12.2384 6.93652 12.6363 6.93652 13.8357C6.93652 14.7809 7.67763 14.9977 8.13696 14.9977C9.01422 14.9977 9.39235 14.5043 9.41252 14.5028L9.37153 14.9147H10.4664L10.9548 11.9461C10.9548 10.6868 9.68758 10.6462 9.24737 10.6462ZM9.51374 13.0632C9.53746 13.2446 9.3826 14.0945 8.63397 14.0945C8.2478 14.0945 8.14737 13.8388 8.14737 13.6875C8.14737 13.3925 8.33228 13.0383 9.24342 13.0383C9.45535 13.0386 9.47802 13.0582 9.51374 13.0632Z" fill="white"/>
<path d="M12.1189 14.976C12.3989 14.976 14 15.0377 14 13.6055C14 12.2665 12.518 12.531 12.518 11.9931C12.518 11.7253 12.7595 11.6409 13.2011 11.6409C13.3764 11.6409 14.0508 11.6893 14.0508 11.6893L14.2076 10.7375C14.2076 10.7376 13.7711 10.6528 13.0604 10.6528C12.1406 10.6528 11.2069 10.9712 11.2069 12.0603C11.2069 13.2943 12.7638 13.1705 12.7638 13.6904C12.7638 14.0374 12.3288 14.0656 11.9937 14.0656C11.4136 14.0656 10.8913 13.8931 10.8894 13.9013L10.7236 14.8434C10.7537 14.8514 11.0758 14.976 12.1189 14.976Z" fill="white"/>
<path d="M36.8342 9.792L36.566 11.2347C36.566 11.2347 36.0979 10.6743 35.3653 10.6743C34.226 10.6743 33.2764 11.8651 33.2764 13.2333C33.2764 14.1165 33.7829 14.9819 34.8183 14.9819C35.5631 14.9819 35.976 14.5317 35.976 14.5317L35.9213 14.9162H37.1307L38.0806 9.79028L36.8342 9.792ZM36.2568 12.605C36.2568 13.1744 35.9316 13.9349 35.2575 13.9349C34.81 13.9349 34.6003 13.6092 34.6003 13.0981C34.6003 12.2625 35.0333 11.7111 35.5796 11.7111C36.0272 11.7109 36.2568 11.9775 36.2568 12.605Z" fill="white"/>
<path d="M2.51526 14.9209L3.27218 11.051L3.38329 14.9209H4.23999L5.83806 11.051L5.13017 14.9209H6.40309L7.38342 9.78809H5.41499L4.18912 12.9374L4.12532 9.78809H2.31084L1.31641 14.9209H2.51526Z" fill="white"/>
<path d="M21.6724 14.9279C22.0343 13.1437 22.1014 11.6949 22.9651 11.9601C23.1163 11.2695 23.2622 11.0024 23.4272 10.7101C23.4272 10.7101 23.3498 10.696 23.1874 10.696C22.6306 10.696 22.218 11.3555 22.218 11.3555L22.3289 10.7499H21.1711L20.3955 14.9279H21.6724Z" fill="white"/>
<path d="M29.4037 10.6462C28.5511 10.6462 27.8975 10.8838 27.8975 10.8838L27.7172 11.8124C27.7172 11.8124 28.2567 11.6223 29.0721 11.6223C29.5351 11.6223 29.8736 11.6675 29.8736 11.9937C29.8736 12.1918 29.8323 12.2649 29.8323 12.2649C29.8323 12.2649 29.4671 12.2384 29.2979 12.2384C28.2227 12.2384 27.093 12.6363 27.093 13.8357C27.093 14.7809 27.834 14.9977 28.2933 14.9977C29.1706 14.9977 29.5487 14.5043 29.5687 14.5028L29.528 14.9147C29.528 14.9147 30.6225 14.9147 30.6229 14.9147L31.1112 11.9461C31.1113 10.6868 29.8439 10.6462 29.4037 10.6462ZM29.6705 13.0632C29.6942 13.2446 29.5392 14.0945 28.7903 14.0945C28.4042 14.0945 28.304 13.8388 28.304 13.6875C28.304 13.3925 28.4889 13.0383 29.3999 13.0383C29.6118 13.0386 29.6344 13.0582 29.6705 13.0632Z" fill="white"/>
<path d="M32.1117 14.9279C32.4738 13.1437 32.5408 11.6949 33.4043 11.9601C33.5557 11.2695 33.7017 11.0024 33.8666 10.7101C33.8666 10.7101 33.7893 10.696 33.6269 10.696C33.07 10.696 32.6575 11.3555 32.6575 11.3555L32.7683 10.7499H31.6106L30.835 14.9279H32.1117Z" fill="white"/>
</g>
<defs>
<clipPath id="clip0_0_2284">
<rect width="39.6" height="24" fill="white"/>
</clipPath>
</defs>
</svg>
