<svg width="32" height="32" viewBox="0 0 32 32" fill="none" xmlns="http://www.w3.org/2000/svg">
<path fill-rule="evenodd" clip-rule="evenodd" d="M7.49922 5.89881C5.28724 6.90991 3.66675 9.31486 3.66675 12.1827C3.66675 15.1125 4.8657 17.3709 6.58446 19.3062C8.00105 20.9014 9.71586 22.2234 11.3882 23.5127C11.7855 23.8189 12.1803 24.1233 12.5681 24.4291C13.2695 24.982 13.8952 25.4673 14.4982 25.8196C15.1016 26.1722 15.5873 26.3332 16.0001 26.3332C16.4129 26.3332 16.8986 26.1722 17.5019 25.8196C18.105 25.4673 18.7306 24.982 19.432 24.4291C19.8199 24.1233 20.2147 23.8189 20.6119 23.5127C22.2843 22.2234 23.9991 20.9014 25.4157 19.3062C27.1345 17.3709 28.3334 15.1125 28.3334 12.1827C28.3334 9.31486 26.7129 6.90991 24.5009 5.89881C22.352 4.91652 19.4645 5.17665 16.7206 8.02753C16.5321 8.22339 16.2719 8.33406 16.0001 8.33406C15.7282 8.33406 15.4681 8.22339 15.2796 8.02753C12.5356 5.17665 9.64817 4.91652 7.49922 5.89881ZM16.0001 5.94497C12.9173 3.18687 9.46536 2.80104 6.66777 4.07983C3.71303 5.43045 1.66675 8.56659 1.66675 12.1827C1.66675 15.7367 3.14741 18.4479 5.08904 20.6343C6.64391 22.3851 8.54705 23.8505 10.2278 25.1447C10.6089 25.438 10.9785 25.7226 11.33 25.9997C12.013 26.5381 12.7461 27.1122 13.4892 27.5464C14.2319 27.9804 15.0795 28.3332 16.0001 28.3332C16.9206 28.3332 17.7683 27.9804 18.511 27.5464C19.254 27.1122 19.9872 26.5381 20.6702 25.9997C21.0217 25.7226 21.3913 25.438 21.7723 25.1447C23.4531 23.8505 25.3563 22.3851 26.9111 20.6343C28.8528 18.4479 30.3334 15.7367 30.3334 12.1827C30.3334 8.56659 28.2871 5.43045 25.3324 4.07983C22.5348 2.80104 19.0828 3.18687 16.0001 5.94497Z" fill="white"/>
</svg>
