<svg width="32" height="32" viewBox="0 0 32 32" fill="none" xmlns="http://www.w3.org/2000/svg">
<path fill-rule="evenodd" clip-rule="evenodd" d="M15.9999 1.6665C10.2929 1.6665 5.66656 6.2929 5.66656 11.9998V12.9386C5.66656 13.8679 5.3915 14.7763 4.87606 15.5495L3.34459 17.8467C1.56713 20.5129 2.92407 24.1369 6.01553 24.98C7.02301 25.2548 8.039 25.4872 9.06088 25.6773L9.06341 25.6841C10.0887 28.42 12.8291 30.3332 15.9998 30.3332C19.1705 30.3332 21.9109 28.42 22.9362 25.6841L22.9387 25.6773C23.9607 25.4872 24.9767 25.2548 25.9843 24.98C29.0757 24.1369 30.4327 20.5129 28.6552 17.8467L27.1237 15.5495C26.6083 14.7763 26.3332 13.8679 26.3332 12.9386V11.9998C26.3332 6.2929 21.7068 1.6665 15.9999 1.6665ZM20.5018 26.0491C17.5112 26.4064 14.4884 26.4064 11.4978 26.0491C12.4458 27.4111 14.0945 28.3332 15.9998 28.3332C17.9051 28.3332 19.5538 27.4112 20.5018 26.0491ZM7.66656 11.9998C7.66656 7.39746 11.3975 3.6665 15.9999 3.6665C20.6023 3.6665 24.3332 7.39746 24.3332 11.9998V12.9386C24.3332 14.2627 24.7252 15.5572 25.4596 16.6589L26.9911 18.9561C28.0113 20.4864 27.2325 22.5666 25.458 23.0505C19.2657 24.7393 12.7341 24.7393 6.54176 23.0505C4.76732 22.5666 3.98846 20.4864 5.00869 18.9561L6.54016 16.6589C7.27463 15.5572 7.66656 14.2627 7.66656 12.9386V11.9998Z" fill="white"/>
</svg>
