<svg width="25" height="25" viewBox="0 0 25 25" fill="none" xmlns="http://www.w3.org/2000/svg">
<path fill-rule="evenodd" clip-rule="evenodd" d="M12.3335 3.52246C7.501 3.52246 3.5835 7.43997 3.5835 12.2725C3.5835 17.105 7.501 21.0225 12.3335 21.0225C17.166 21.0225 21.0835 17.105 21.0835 12.2725C21.0835 7.43997 17.166 3.52246 12.3335 3.52246ZM2.0835 12.2725C2.0835 6.61154 6.67258 2.02246 12.3335 2.02246C17.9944 2.02246 22.5835 6.61154 22.5835 12.2725C22.5835 14.833 21.6446 17.1742 20.0924 18.9707L23.3638 22.2421C23.6567 22.535 23.6567 23.0099 23.3638 23.3028C23.0709 23.5957 22.5961 23.5957 22.3032 23.3028L19.0317 20.0313C17.2352 21.5836 14.894 22.5225 12.3335 22.5225C6.67258 22.5225 2.0835 17.9334 2.0835 12.2725Z" fill="white"/>
</svg>
