<svg width="32" height="32" viewBox="0 0 32 32" fill="none" xmlns="http://www.w3.org/2000/svg">
<path fill-rule="evenodd" clip-rule="evenodd" d="M16.0001 1.66675C10.2932 1.66675 5.6668 6.29314 5.6668 12.0001V12.9389C5.6668 13.8681 5.39175 14.7766 4.87631 15.5497L3.34483 17.8469C1.56737 20.5131 2.92432 24.1371 6.01577 24.9803C7.02326 25.255 8.03925 25.4875 9.06112 25.6775L9.06365 25.6844C10.089 28.4202 12.8294 30.3334 16 30.3334C19.1707 30.3334 21.9111 28.4202 22.9364 25.6844L22.939 25.6776C23.9609 25.4875 24.977 25.255 25.9845 24.9803C29.076 24.1371 30.4329 20.5131 28.6554 17.8469L27.124 15.5497C26.6085 14.7766 26.3335 13.8681 26.3335 12.9389V12.0001C26.3335 6.29314 21.7071 1.66675 16.0001 1.66675ZM20.502 26.0494C17.5114 26.4067 14.4887 26.4067 11.4981 26.0493C12.446 27.4114 14.0948 28.3334 16 28.3334C17.9053 28.3334 19.5541 27.4114 20.502 26.0494ZM7.6668 12.0001C7.6668 7.39771 11.3978 3.66675 16.0001 3.66675C20.6025 3.66675 24.3335 7.39771 24.3335 12.0001V12.9389C24.3335 14.263 24.7254 15.5574 25.4599 16.6591L26.9913 18.9563C28.0116 20.4867 27.2327 22.5668 25.4583 23.0507C19.2659 24.7396 12.7343 24.7396 6.54201 23.0507C4.76756 22.5668 3.9887 20.4867 5.00893 18.9563L6.54041 16.6591C7.27487 15.5574 7.6668 14.263 7.6668 12.9389V12.0001Z" fill="white"/>
</svg>
