<svg width="32" height="32" viewBox="0 0 32 32" fill="none" xmlns="http://www.w3.org/2000/svg">
<path fill-rule="evenodd" clip-rule="evenodd" d="M7.49915 5.89881C5.28716 6.90991 3.66667 9.31486 3.66667 12.1827C3.66667 15.1125 4.86563 17.3709 6.58439 19.3062C8.00097 20.9014 9.71579 22.2234 11.3882 23.5127C11.7854 23.8189 12.1802 24.1233 12.5681 24.4291C13.2694 24.982 13.8951 25.4673 14.4982 25.8196C15.1015 26.1722 15.5872 26.3332 16 26.3332C16.4128 26.3332 16.8985 26.1722 17.5019 25.8196C18.1049 25.4673 18.7306 24.982 19.4319 24.4291C19.8198 24.1233 20.2146 23.8189 20.6118 23.5127C22.2842 22.2234 23.999 20.9014 25.4156 19.3062C27.1344 17.3709 28.3333 15.1125 28.3333 12.1827C28.3333 9.31486 26.7128 6.90991 24.5009 5.89881C22.3519 4.91652 19.4645 5.17665 16.7205 8.02753C16.532 8.22339 16.2718 8.33406 16 8.33406C15.7282 8.33406 15.468 8.22339 15.2795 8.02753C12.5356 5.17665 9.6481 4.91652 7.49915 5.89881ZM16 5.94497C12.9173 3.18687 9.46529 2.80104 6.66769 4.07983C3.71296 5.43045 1.66667 8.56659 1.66667 12.1827C1.66667 15.7367 3.14733 18.4479 5.08896 20.6343C6.64384 22.3851 8.54697 23.8505 10.2278 25.1447C10.6088 25.438 10.9784 25.7226 11.3299 25.9997C12.0129 26.5381 12.7461 27.1122 13.4891 27.5464C14.2318 27.9804 15.0795 28.3332 16 28.3332C16.9205 28.3332 17.7682 27.9804 18.5109 27.5464C19.2539 27.1122 19.9871 26.5381 20.6701 25.9997C21.0216 25.7226 21.3912 25.438 21.7722 25.1447C23.453 23.8505 25.3562 22.3851 26.911 20.6343C28.8527 18.4479 30.3333 15.7367 30.3333 12.1827C30.3333 8.56659 28.2871 5.43045 25.3323 4.07983C22.5347 2.80104 19.0827 3.18687 16 5.94497Z" fill="white"/>
</svg>
