<svg width="32" height="32" viewBox="0 0 32 32" fill="none" xmlns="http://www.w3.org/2000/svg">
<path fill-rule="evenodd" clip-rule="evenodd" d="M15.9999 1.66675C10.2929 1.66675 5.66656 6.29314 5.66656 12.0001V12.9389C5.66656 13.8681 5.3915 14.7766 4.87606 15.5497L3.34459 17.8469C1.56713 20.5131 2.92407 24.1371 6.01553 24.9803C7.02301 25.255 8.039 25.4875 9.06088 25.6775L9.06341 25.6844C10.0887 28.4202 12.8291 30.3334 15.9998 30.3334C19.1705 30.3334 21.9109 28.4202 22.9362 25.6844L22.9387 25.6776C23.9607 25.4875 24.9767 25.255 25.9843 24.9803C29.0757 24.1371 30.4327 20.5131 28.6552 17.8469L27.1237 15.5497C26.6083 14.7766 26.3332 13.8681 26.3332 12.9389V12.0001C26.3332 6.29314 21.7068 1.66675 15.9999 1.66675ZM20.5018 26.0494C17.5112 26.4067 14.4884 26.4067 11.4978 26.0493C12.4458 27.4114 14.0945 28.3334 15.9998 28.3334C17.9051 28.3334 19.5538 27.4114 20.5018 26.0494ZM7.66656 12.0001C7.66656 7.39771 11.3975 3.66675 15.9999 3.66675C20.6023 3.66675 24.3332 7.39771 24.3332 12.0001V12.9389C24.3332 14.263 24.7252 15.5574 25.4596 16.6591L26.9911 18.9563C28.0113 20.4867 27.2325 22.5668 25.458 23.0507C19.2657 24.7396 12.7341 24.7396 6.54176 23.0507C4.76732 22.5668 3.98846 20.4867 5.00869 18.9563L6.54016 16.6591C7.27463 15.5574 7.66656 14.263 7.66656 12.9389V12.0001Z" fill="white"/>
</svg>
