<svg width="32" height="32" viewBox="0 0 32 32" fill="none" xmlns="http://www.w3.org/2000/svg">
<path fill-rule="evenodd" clip-rule="evenodd" d="M7.49898 5.89881C5.28699 6.90991 3.6665 9.31486 3.6665 12.1827C3.6665 15.1125 4.86546 17.3709 6.58422 19.3062C8.0008 20.9014 9.71562 22.2234 11.388 23.5127C11.7852 23.8189 12.18 24.1233 12.5679 24.4291C13.2693 24.982 13.8949 25.4673 14.498 25.8196C15.1014 26.1722 15.587 26.3332 15.9998 26.3332C16.4126 26.3332 16.8983 26.1722 17.5017 25.8196C18.1047 25.4673 18.7304 24.982 19.4318 24.4291C19.8196 24.1233 20.2145 23.8189 20.6117 23.5127C22.2841 22.2234 23.9989 20.9014 25.4155 19.3062C27.1342 17.3709 28.3332 15.1125 28.3332 12.1827C28.3332 9.31486 26.7127 6.90991 24.5007 5.89881C22.3517 4.91652 19.4643 5.17665 16.7203 8.02753C16.5318 8.22339 16.2717 8.33406 15.9998 8.33406C15.728 8.33406 15.4679 8.22339 15.2793 8.02753C12.5354 5.17665 9.64793 4.91652 7.49898 5.89881ZM15.9998 5.94497C12.9171 3.18687 9.46512 2.80104 6.66752 4.07983C3.71279 5.43045 1.6665 8.56659 1.6665 12.1827C1.6665 15.7367 3.14717 18.4479 5.08879 20.6343C6.64367 22.3851 8.5468 23.8505 10.2276 25.1447C10.6086 25.438 10.9782 25.7226 11.3297 25.9997C12.0127 26.5381 12.7459 27.1122 13.4889 27.5464C14.2316 27.9804 15.0793 28.3332 15.9998 28.3332C16.9204 28.3332 17.768 27.9804 18.5107 27.5464C19.2538 27.1122 19.987 26.5381 20.6699 25.9997C21.0215 25.7226 21.3911 25.438 21.7721 25.1447C23.4529 23.8505 25.356 22.3851 26.9109 20.6343C28.8525 18.4479 30.3332 15.7367 30.3332 12.1827C30.3332 8.56659 28.2869 5.43045 25.3322 4.07983C22.5346 2.80104 19.0826 3.18687 15.9998 5.94497Z" fill="white"/>
</svg>
