<svg width="24" height="25" viewBox="0 0 24 25" fill="none" xmlns="http://www.w3.org/2000/svg">
<g clip-path="url(#clip0_0_2118)">
<path d="M21.3113 3.46122C21.1226 3.27271 20.8872 3.1379 20.6291 3.07067C20.3711 3.00344 20.0998 3.00622 19.8431 3.07872H19.8291L1.83469 8.53872C1.54178 8.62295 1.28147 8.79443 1.08844 9.0303C0.895411 9.26617 0.778814 9.55525 0.754177 9.85904C0.72954 10.1628 0.798032 10.4669 0.950532 10.7308C1.10303 10.9947 1.3323 11.2059 1.60782 11.3362L9.63469 15.1378L13.4363 23.1647C13.5563 23.4217 13.7473 23.6391 13.9869 23.7911C14.2264 23.9431 14.5044 24.0233 14.7881 24.0225C14.8313 24.0225 14.8744 24.0206 14.9175 24.0168C15.2202 23.9923 15.5082 23.8758 15.7428 23.6829C15.9774 23.4901 16.1474 23.23 16.23 22.9378L21.6863 4.9434C21.6863 4.93872 21.6863 4.93403 21.6863 4.92934C21.7597 4.67337 21.7637 4.40246 21.6978 4.14445C21.6319 3.88643 21.4985 3.65061 21.3113 3.46122ZM14.7966 22.5084L14.7919 22.5215L11.1019 14.7318L15.5306 10.3022C15.6653 10.1604 15.7393 9.97154 15.7368 9.77597C15.7343 9.5804 15.6555 9.39355 15.5172 9.25524C15.3789 9.11694 15.1921 9.03814 14.9965 9.03564C14.8009 9.03313 14.6121 9.10713 14.4703 9.24184L10.0406 13.6706L2.25001 9.98059H2.26313L20.25 4.52247L14.7966 22.5084Z" fill="white"/>
</g>
<defs>
<clipPath id="clip0_0_2118">
<rect width="24" height="24" fill="white" transform="translate(0 0.772461)"/>
</clipPath>
</defs>
</svg>
