<svg width="102" height="69" viewBox="0 0 102 69" fill="none" xmlns="http://www.w3.org/2000/svg">
<rect x="0.5" y="1.27246" width="101" height="67" rx="9.5" fill="#303038"/>
<path d="M31.7324 23.3067C31.829 25.4949 33.7197 33.8452 33.7197 33.8452C34.4144 35.5365 35.0126 33.8452 35.0126 33.8452C37.3 26.9852 32.6256 23.0098 32.6256 23.0098C31.4323 22.3123 31.7324 23.3067 31.7324 23.3067ZM58.8732 22.1145C58.8732 22.1145 61.1617 23.7051 58.8732 24.0031C58.8732 24.0031 50.3225 24.9969 43.96 30.9638C43.96 30.9638 34.4144 39.3124 30.8362 48.4598C30.8362 48.4598 29.6429 48.4598 30.0422 46.6709C30.4395 44.8815 32.8244 37.0268 43.4615 27.3846C43.4615 27.3846 53.705 18.0383 58.8732 22.1145Z" fill="#FF4600"/>
<path d="M15.3725 35.3501C15.7503 35.4297 16.0894 35.4687 16.5875 35.4687C18.5378 35.4687 19.8519 34.2142 19.8519 32.6211C19.8519 31.1878 18.8368 30.6708 17.5239 30.6708C16.9452 30.6708 16.5072 30.7109 16.2288 30.7896L15.3725 35.3501ZM14.2775 29.1374C15.094 28.9374 16.3089 28.8188 17.5033 28.8188C18.7583 28.8188 20.0723 29.0766 20.948 29.7745C21.7245 30.3718 22.1824 31.2464 22.1824 32.4428C22.1824 34.0349 21.4254 35.3305 20.4696 36.0864C19.395 36.9427 17.8604 37.3609 16.2677 37.3609C15.7893 37.3609 15.3725 37.3004 15.0138 37.2613L14.0379 42.3392H11.769L14.2775 29.1374ZM28.3337 34.3134C28.0952 34.2527 27.7971 34.2142 27.3787 34.2142C25.2482 34.2142 23.5753 36.6244 23.5753 38.8349C23.5753 39.8487 23.9536 40.686 24.9696 40.686C26.0637 40.686 27.3787 39.3328 27.8368 36.863L28.3337 34.3134ZM27.3983 42.3392C27.3983 41.7605 27.4776 40.9851 27.5582 40.1674H27.5181C26.5626 41.9409 25.2676 42.5576 24.0332 42.5576C22.3014 42.5576 21.1651 41.2034 21.1651 39.2527C21.1651 35.9472 23.4751 32.4222 27.9954 32.4222C29.0506 32.4222 30.1858 32.6211 30.9428 32.86L29.9274 37.9179C29.6478 39.3512 29.489 41.1838 29.5291 42.3392H27.3983ZM44.121 38.4957C44.121 39.8284 44.8179 40.7669 46.0126 40.7669C47.745 40.7669 48.9003 38.3761 48.9003 36.4447C48.9003 35.4482 48.4414 34.2138 47.0488 34.2138C45.1966 34.2138 44.121 36.6838 44.121 38.4957ZM51.2896 36.4257C51.2896 39.7302 48.999 42.5573 45.6946 42.5573C43.2442 42.5573 41.7323 40.865 41.7323 38.5544C41.7323 35.27 44.0217 32.4224 47.3272 32.4224C49.9354 32.4224 51.2896 34.2941 51.2896 36.4257ZM51.7257 42.3392L52.9807 35.648C53.2191 34.4928 53.3584 33.4773 53.4781 32.6417H55.5503L55.3308 34.3741H55.3698C56.2651 33.0791 57.5006 32.4222 58.8548 32.4222C60.2478 32.4222 61.3236 33.2595 61.3236 35.091C61.3236 35.5284 61.2454 36.205 61.1452 36.6835L60.088 42.3392H57.7587L58.7931 36.863C58.8549 36.5048 58.914 36.0864 58.914 35.7076C58.914 34.8912 58.6153 34.3134 57.6996 34.3134C56.6445 34.3134 55.2898 35.5874 54.8719 37.8589L54.036 42.3392H51.7257ZM67.494 34.1546C66.0396 34.1546 65.0848 35.4487 64.8063 36.6244C67.1949 36.6439 68.7295 36.3254 68.7295 35.1511C68.7295 34.5338 68.2315 34.1546 67.494 34.1546ZM69.7043 41.781C68.748 42.2785 67.455 42.5576 66.2792 42.5576C63.5935 42.5576 62.2984 40.9058 62.2984 38.5357C62.2984 35.6084 64.4475 32.4227 67.7931 32.4227C69.7043 32.4227 70.9193 33.5173 70.9193 35.1511C70.9193 37.6393 68.3117 38.4355 64.5683 38.3564C64.5277 38.6943 64.6074 39.3512 64.8269 39.73C65.2055 40.388 65.9004 40.7259 66.8177 40.7259C67.9139 40.7259 68.7885 40.4469 69.4875 40.0887L69.7043 41.781ZM76.5123 34.1546C75.0596 34.1546 74.1033 35.4487 73.8246 36.6244C76.2133 36.6439 77.748 36.3254 77.748 35.1511C77.748 34.5338 77.25 34.1546 76.5123 34.1546ZM78.7228 41.781C77.768 42.2785 76.4733 42.5576 75.2996 42.5576C72.6119 42.5576 71.3167 40.9058 71.3167 38.5357C71.3167 35.6084 73.466 32.4227 76.8116 32.4227C78.7226 32.4227 79.9398 33.5173 79.9398 35.1511C79.9398 37.6393 77.3302 38.4355 73.5867 38.3564C73.5456 38.6943 73.6257 39.3512 73.8452 39.73C74.224 40.388 74.9204 40.7259 75.8361 40.7259C76.9322 40.7259 77.807 40.4469 78.506 40.0887L78.7228 41.781ZM80.0771 42.3392L81.2118 36.365C81.4703 34.9912 81.6096 33.4978 81.7076 32.6416H83.7197C83.6601 33.2985 83.6011 33.9753 83.5007 34.6732H83.5598C84.2198 33.3782 85.2727 32.4222 86.5879 32.4222C86.7682 32.4222 86.9466 32.4428 87.1065 32.4428L86.6474 34.7128C86.5282 34.6922 86.369 34.6922 86.2091 34.6922C84.5553 34.6922 83.5007 36.365 83.1236 38.4355L82.3861 42.3392H80.0771ZM88.868 33.5288H89.038C89.2121 33.5288 89.3271 33.4316 89.3271 33.285C89.3271 33.1199 89.2063 33.0476 89.0322 33.0476C88.952 33.0476 88.8951 33.0534 88.8682 33.0597L88.868 33.5288ZM88.702 32.9436C88.8069 32.9261 88.9131 32.9173 89.0195 32.9173C89.1958 32.9173 89.3129 32.9532 89.3903 33.0227C89.4542 33.0793 89.4911 33.1673 89.4911 33.2686C89.4911 33.4353 89.3861 33.5482 89.2511 33.5931V33.5993C89.3492 33.6331 89.4066 33.7254 89.4395 33.8583C89.4807 34.0357 89.5113 34.1607 89.5381 34.2108H89.3661C89.3455 34.1718 89.3165 34.0637 89.2839 33.9038C89.2448 33.7265 89.1735 33.6611 89.0237 33.6548H88.8682V34.2108H88.702V32.9436Z" fill="white"/>
<path d="M89.0834 32.4226C88.7792 32.4228 88.4875 32.5438 88.2723 32.7589C88.0572 32.974 87.9362 33.2657 87.936 33.57C87.936 34.203 88.4504 34.7178 89.0834 34.7178C89.7164 34.7178 90.2308 34.203 90.2308 33.57C90.2306 33.2657 90.1097 32.974 89.8945 32.7589C89.6794 32.5438 89.3877 32.4228 89.0834 32.4226ZM89.0834 32.5998C89.2108 32.5998 89.3369 32.6249 89.4545 32.6737C89.5722 32.7225 89.679 32.7939 89.769 32.884C89.859 32.9741 89.9304 33.0811 89.979 33.1988C90.0276 33.3165 90.0526 33.4426 90.0524 33.57C90.0524 34.1065 89.6183 34.5411 89.0834 34.5411C88.9559 34.5411 88.8296 34.516 88.7118 34.4672C88.5939 34.4184 88.4869 34.3469 88.3967 34.2567C88.3065 34.1665 88.2349 34.0595 88.1861 33.9416C88.1373 33.8238 88.1122 33.6975 88.1122 33.57C88.1121 33.4425 88.1372 33.3162 88.186 33.1984C88.2348 33.0806 88.3064 32.9736 88.3966 32.8835C88.4868 32.7934 88.5939 32.7219 88.7118 32.6732C88.8296 32.6246 88.9559 32.5996 89.0834 32.5998Z" fill="black"/>
<rect x="0.5" y="1.27246" width="101" height="67" rx="9.5" stroke="#464957"/>
</svg>
