<svg width="102" height="69" viewBox="0 0 102 69" fill="none" xmlns="http://www.w3.org/2000/svg">
<rect x="0.5" y="1.27246" width="101" height="67" rx="9.5" fill="#303038"/>
<path d="M41.1076 29.4775H36.7657C36.622 29.4774 36.4829 29.5287 36.3736 29.6221C36.2643 29.7154 36.192 29.8447 36.1696 29.9867L34.4135 41.1205C34.4054 41.1722 34.4087 41.225 34.423 41.2753C34.4372 41.3256 34.4623 41.3722 34.4963 41.4119C34.5303 41.4516 34.5726 41.4834 34.6201 41.5053C34.6676 41.5271 34.7193 41.5383 34.7716 41.5383H36.8445C36.9883 41.5383 37.1274 41.487 37.2367 41.3935C37.346 41.3 37.4183 41.1706 37.4406 41.0285L37.9142 38.0255C37.9365 37.8835 38.0087 37.7541 38.1179 37.6607C38.227 37.5672 38.366 37.5158 38.5097 37.5157H39.8842C42.7443 37.5157 44.395 36.1317 44.8261 33.389C45.0204 32.1891 44.8344 31.2463 44.2725 30.586C43.6554 29.861 42.5609 29.4775 41.1076 29.4775ZM41.6086 33.5439C41.3711 35.1019 40.1807 35.1019 39.0297 35.1019H38.3745L38.8342 32.1923C38.8476 32.1071 38.891 32.0296 38.9565 31.9736C39.022 31.9176 39.1054 31.8869 39.1916 31.8869H39.4919C40.276 31.8869 41.0156 31.8869 41.3978 32.3338C41.6257 32.6005 41.6955 32.9967 41.6086 33.5439ZM54.0864 33.4938H52.0072C51.921 33.4938 51.8376 33.5245 51.7721 33.5805C51.7066 33.6365 51.6632 33.714 51.6497 33.7991L51.5577 34.3807L51.4123 34.1699C50.9622 33.5166 49.9584 33.2982 48.9566 33.2982C46.659 33.2982 44.6966 35.0384 44.3144 37.4795C44.1157 38.6972 44.3982 39.8616 45.0889 40.6736C45.7225 41.4202 46.6291 41.7313 47.7078 41.7313C49.5591 41.7313 50.5857 40.5409 50.5857 40.5409L50.493 41.1186C50.4847 41.1703 50.4878 41.2231 50.5019 41.2735C50.516 41.3238 50.5409 41.3705 50.5748 41.4104C50.6087 41.4502 50.6509 41.4822 50.6983 41.5042C50.7458 41.5261 50.7975 41.5375 50.8498 41.5376H52.7227C52.8665 41.5377 53.0056 41.4864 53.1149 41.3929C53.2243 41.2994 53.2966 41.1699 53.3188 41.0278L54.4425 33.9115C54.4508 33.86 54.4478 33.8072 54.4337 33.757C54.4196 33.7067 54.3948 33.6601 54.3609 33.6204C54.327 33.5807 54.285 33.5488 54.2376 33.5269C54.1902 33.5051 54.1386 33.4937 54.0864 33.4938ZM51.1882 37.5405C50.9876 38.7283 50.0448 39.5257 48.8423 39.5257C48.2386 39.5257 47.756 39.3321 47.4462 38.9651C47.1389 38.6007 47.0221 38.082 47.1199 37.5043C47.3072 36.3266 48.2659 35.5031 49.4499 35.5031C50.0403 35.5031 50.5203 35.6993 50.8365 36.0694C51.1533 36.4434 51.279 36.9653 51.1882 37.5405ZM65.1599 33.4938H63.0705C62.972 33.4939 62.8749 33.5181 62.7879 33.5642C62.7008 33.6104 62.6263 33.6771 62.5708 33.7585L59.6891 38.0033L58.4676 33.9242C58.4302 33.7998 58.3536 33.6908 58.2493 33.6132C58.145 33.5357 58.0186 33.4938 57.8886 33.4938H55.8355C55.7778 33.4936 55.721 33.5072 55.6697 33.5335C55.6184 33.5597 55.5741 33.5978 55.5405 33.6447C55.5069 33.6915 55.4849 33.7457 55.4765 33.8027C55.4681 33.8597 55.4734 33.9179 55.492 33.9725L57.7934 40.7263L55.6298 43.7806C55.5913 43.8348 55.5685 43.8985 55.5638 43.9647C55.5592 44.031 55.5728 44.0973 55.6033 44.1563C55.6338 44.2153 55.6799 44.2647 55.7367 44.2993C55.7934 44.3338 55.8586 44.3521 55.925 44.352H58.0118C58.1092 44.3522 58.2053 44.3287 58.2916 44.2835C58.378 44.2384 58.4521 44.173 58.5076 44.093L65.457 34.062C65.4947 34.0077 65.5167 33.9442 65.5209 33.8782C65.525 33.8123 65.511 33.7465 65.4804 33.688C65.4498 33.6294 65.4037 33.5804 65.3472 33.5461C65.2907 33.5119 65.2259 33.4938 65.1599 33.4938Z" fill="white"/>
<path d="M72.077 29.4777H67.7344C67.5908 29.4777 67.4519 29.5291 67.3427 29.6224C67.2336 29.7157 67.1613 29.845 67.1389 29.9869L65.3829 41.1206C65.3747 41.1722 65.3778 41.225 65.392 41.2752C65.4062 41.3255 65.4311 41.3721 65.465 41.4118C65.4989 41.4515 65.541 41.4833 65.5884 41.5052C65.6358 41.5271 65.6874 41.5384 65.7397 41.5384H67.9681C68.0686 41.5382 68.1658 41.5022 68.2421 41.4368C68.3185 41.3714 68.369 41.2809 68.3846 41.1816L68.8829 38.0256C68.9052 37.8836 68.9774 37.7543 69.0866 37.6608C69.1957 37.5673 69.3347 37.5159 69.4784 37.5158H70.8523C73.7131 37.5158 75.3631 36.1318 75.7948 33.3891C75.9897 32.1892 75.8024 31.2464 75.2406 30.5862C74.6241 29.8611 73.5302 29.4777 72.077 29.4777ZM72.5779 33.5441C72.3411 35.102 71.1507 35.102 69.999 35.102H69.3445L69.8048 32.1924C69.818 32.1073 69.8612 32.0297 69.9266 31.9737C69.9921 31.9177 70.0754 31.8869 70.1616 31.887H70.4619C71.2453 31.887 71.9856 31.887 72.3678 32.334C72.5957 32.6006 72.6649 32.9968 72.5779 33.5441ZM85.0551 33.4939H82.9771C82.891 33.4937 82.8076 33.5244 82.7421 33.5804C82.6766 33.6364 82.6334 33.7141 82.6203 33.7993L82.5283 34.3808L82.3823 34.17C81.9321 33.5168 80.929 33.2984 79.9272 33.2984C77.6296 33.2984 75.6678 35.0385 75.2856 37.4796C75.0876 38.6973 75.3688 39.8617 76.0596 40.6737C76.6944 41.4203 77.5998 41.7314 78.6784 41.7314C80.5297 41.7314 81.5563 40.541 81.5563 40.541L81.4636 41.1187C81.4553 41.1705 81.4584 41.2234 81.4726 41.2739C81.4868 41.3244 81.5118 41.3711 81.5458 41.411C81.5799 41.4508 81.6222 41.4828 81.6698 41.5047C81.7174 41.5266 81.7693 41.5379 81.8217 41.5378H83.6939C83.8376 41.5377 83.9766 41.4863 84.0858 41.3928C84.195 41.2993 84.2672 41.1699 84.2894 41.028L85.4138 33.9116C85.4218 33.8599 85.4185 33.8071 85.4041 33.7568C85.3897 33.7065 85.3646 33.6599 85.3305 33.6203C85.2965 33.5806 85.2542 33.5487 85.2067 33.5269C85.1591 33.5051 85.1074 33.4938 85.0551 33.4939ZM82.1569 37.5406C81.9575 38.7284 81.0135 39.5258 79.811 39.5258C79.2085 39.5258 78.7248 39.3322 78.4149 38.9652C78.1077 38.6008 77.9921 38.0821 78.0886 37.5044C78.2772 36.3267 79.2346 35.5033 80.4186 35.5033C81.009 35.5033 81.489 35.6995 81.8052 36.0696C82.1232 36.4435 82.2489 36.9654 82.1569 37.5406ZM87.5063 29.7831L85.7243 41.1206C85.7161 41.1722 85.7192 41.225 85.7334 41.2752C85.7475 41.3255 85.7724 41.3721 85.8064 41.4118C85.8403 41.4515 85.8824 41.4833 85.9298 41.5052C85.9772 41.5271 86.0288 41.5384 86.0811 41.5384H87.8727C88.1704 41.5384 88.4231 41.3225 88.4688 41.0286L90.2261 29.8954C90.2343 29.8438 90.2312 29.7911 90.217 29.7408C90.2029 29.6905 90.178 29.6439 90.1441 29.6041C90.1102 29.5644 90.068 29.5324 90.0206 29.5105C89.9732 29.4885 89.9216 29.4771 89.8693 29.4771H87.8631C87.777 29.4774 87.6938 29.5083 87.6284 29.5644C87.563 29.6205 87.5198 29.698 87.5063 29.7831Z" fill="#179BD7"/>
<path d="M16.3823 43.7021L16.7143 41.593L15.9747 41.5759H12.4429L14.8973 26.0132C14.9046 25.9656 14.9288 25.9223 14.9654 25.891C15.0019 25.8598 15.0485 25.8428 15.0967 25.843H21.0518C23.0288 25.843 24.3931 26.2544 25.1055 27.0664C25.4394 27.4473 25.6521 27.8454 25.7549 28.2835C25.8629 28.7431 25.8648 29.2923 25.7594 29.9621L25.7518 30.011V30.4402L26.0857 30.6293C26.3406 30.7585 26.5698 30.9332 26.7618 31.1449C27.0475 31.4706 27.2323 31.8845 27.3104 32.3753C27.391 32.88 27.3643 33.4806 27.2323 34.1605C27.0799 34.9427 26.8336 35.6239 26.5009 36.1813C26.2074 36.6807 25.8127 37.1132 25.3423 37.4511C24.9004 37.7647 24.3754 38.0028 23.7817 38.1552C23.2065 38.305 22.5507 38.3805 21.8314 38.3805H21.3679C21.0365 38.3805 20.7147 38.4999 20.462 38.7138C20.2097 38.9301 20.0423 39.2289 19.9896 39.557L19.9547 39.7468L19.3681 43.464L19.3414 43.6005C19.3344 43.6437 19.3224 43.6652 19.3046 43.6798C19.2874 43.6939 19.2659 43.7018 19.2437 43.7021H16.3823Z" fill="#253B80"/>
<path d="M26.402 30.0603C26.3842 30.1739 26.3639 30.2901 26.3411 30.4095C25.5557 34.4416 22.8689 35.8345 19.4374 35.8345H17.6903C17.2706 35.8345 16.917 36.1392 16.8516 36.5532L15.957 42.2264L15.7037 43.8346C15.6936 43.8983 15.6975 43.9636 15.715 44.0257C15.7326 44.0879 15.7633 44.1455 15.8053 44.1946C15.8472 44.2437 15.8993 44.2832 15.9579 44.3102C16.0166 44.3373 16.0804 44.3513 16.145 44.3513H19.2438C19.6107 44.3513 19.9225 44.0847 19.9802 43.7228L20.0107 43.5654L20.5942 39.8628L20.6316 39.6596C20.6888 39.2965 21.0011 39.0298 21.3681 39.0298H21.8315C24.8339 39.0298 27.1842 37.8109 27.8711 34.2835C28.1581 32.8099 28.0095 31.5796 27.2502 30.7142C27.0095 30.4465 26.7221 30.2249 26.402 30.0603Z" fill="#179BD7"/>
<path d="M25.5804 29.7328C25.3297 29.6603 25.0746 29.6036 24.8167 29.5633C24.3071 29.485 23.7921 29.4474 23.2765 29.4509H18.6089C18.4313 29.4508 18.2594 29.5142 18.1245 29.6297C17.9895 29.7452 17.9004 29.9052 17.8731 30.0807L16.8801 36.3698L16.8516 36.5533C16.8825 36.3531 16.9841 36.1705 17.1379 36.0387C17.2917 35.9069 17.4876 35.8345 17.6902 35.8346H19.4374C22.8689 35.8346 25.5557 34.441 26.341 30.4096C26.3645 30.2902 26.3842 30.174 26.402 30.0604C26.1947 29.9517 25.9788 29.8606 25.7563 29.788C25.698 29.7687 25.6394 29.7503 25.5804 29.7328Z" fill="white"/>
<path d="M17.8732 30.0808C17.9002 29.9052 17.9893 29.7451 18.1244 29.6297C18.2594 29.5143 18.4313 29.4511 18.609 29.4516H23.2766C23.8295 29.4516 24.3457 29.4878 24.8168 29.564C25.1355 29.6141 25.4499 29.689 25.757 29.7881C25.9887 29.8649 26.204 29.9557 26.4027 30.0605C26.6363 28.5704 26.4008 27.5559 25.5951 26.6372C24.7069 25.6259 23.1039 25.1929 21.0526 25.1929H15.0975C14.6785 25.1929 14.321 25.4976 14.2563 25.9122L11.7758 41.6349C11.7643 41.7079 11.7687 41.7825 11.7887 41.8536C11.8088 41.9248 11.844 41.9907 11.8919 42.047C11.9399 42.1032 11.9995 42.1484 12.0665 42.1794C12.1336 42.2104 12.2066 42.2265 12.2805 42.2266H15.9571L16.8802 36.3699L17.8732 30.0808Z" fill="white"/>
<rect x="0.5" y="1.27246" width="101" height="67" rx="9.5" stroke="#464957"/>
</svg>
