<svg width="80" height="81" viewBox="0 0 80 81" fill="none" xmlns="http://www.w3.org/2000/svg">
<path d="M40 3.77246C32.8799 3.77246 25.9197 5.91315 19.9995 9.92382C14.0793 13.9345 9.46511 19.635 6.74035 26.3045C4.0156 32.974 3.30268 40.3129 4.69175 47.3932C6.08081 54.4736 9.50948 60.9772 14.5442 66.0818C19.5789 71.1865 25.9934 74.6627 32.9768 76.0711C39.9601 77.4795 47.1985 76.7566 53.7766 73.994C60.3547 71.2314 65.9772 66.5532 69.9329 60.5508C73.8886 54.5484 76 47.4915 76 40.2725C75.9899 30.5952 72.1938 21.3172 65.4447 14.4743C58.6956 7.63149 49.5447 3.78268 40 3.77246ZM40 71.1571C33.9753 71.1571 28.0859 69.3457 23.0765 65.9521C18.0671 62.5584 14.1628 57.7349 11.8572 52.0915C9.55166 46.4481 8.94842 40.2382 10.1238 34.2472C11.2992 28.2561 14.2003 22.753 18.4605 18.4337C22.7206 14.1144 28.1483 11.173 34.0573 9.98128C39.9662 8.78959 46.091 9.40121 51.6571 11.7388C57.2233 14.0764 61.9807 18.0349 65.3278 23.1139C68.675 28.1928 70.4615 34.1641 70.4615 40.2725C70.4524 48.4607 67.2401 56.3109 61.5294 62.1009C55.8188 67.8909 48.0761 71.1478 40 71.1571ZM56.6154 40.2725C56.6154 41.0171 56.3236 41.7312 55.8043 42.2578C55.285 42.7843 54.5806 43.0801 53.8462 43.0801H42.7692V54.3109C42.7692 55.0556 42.4775 55.7697 41.9582 56.2962C41.4388 56.8228 40.7345 57.1186 40 57.1186C39.2656 57.1186 38.5612 56.8228 38.0419 56.2962C37.5225 55.7697 37.2308 55.0556 37.2308 54.3109V43.0801H26.1539C25.4194 43.0801 24.715 42.7843 24.1957 42.2578C23.6764 41.7312 23.3846 41.0171 23.3846 40.2725C23.3846 39.5278 23.6764 38.8137 24.1957 38.2871C24.715 37.7606 25.4194 37.4648 26.1539 37.4648H37.2308V26.234C37.2308 25.4893 37.5225 24.7752 38.0419 24.2487C38.5612 23.7221 39.2656 23.4263 40 23.4263C40.7345 23.4263 41.4388 23.7221 41.9582 24.2487C42.4775 24.7752 42.7692 25.4893 42.7692 26.234V37.4648H53.8462C54.5806 37.4648 55.285 37.7606 55.8043 38.2871C56.3236 38.8137 56.6154 39.5278 56.6154 40.2725Z" fill="#7510F5"/>
</svg>
