<svg width="32" height="33" viewBox="0 0 32 33" fill="none" xmlns="http://www.w3.org/2000/svg">
<path d="M28 16.7725C28 17.0377 27.8946 17.292 27.7071 17.4796C27.5196 17.6671 27.2652 17.7725 27 17.7725H17V27.7725C17 28.0377 16.8946 28.292 16.7071 28.4796C16.5196 28.6671 16.2652 28.7725 16 28.7725C15.7348 28.7725 15.4804 28.6671 15.2929 28.4796C15.1054 28.292 15 28.0377 15 27.7725V17.7725H5C4.73478 17.7725 4.48043 17.6671 4.29289 17.4796C4.10536 17.292 4 17.0377 4 16.7725C4 16.5072 4.10536 16.2529 4.29289 16.0654C4.48043 15.8778 4.73478 15.7725 5 15.7725H15V5.77246C15 5.50724 15.1054 5.25289 15.2929 5.06535C15.4804 4.87782 15.7348 4.77246 16 4.77246C16.2652 4.77246 16.5196 4.87782 16.7071 5.06535C16.8946 5.25289 17 5.50724 17 5.77246V15.7725H27C27.2652 15.7725 27.5196 15.8778 27.7071 16.0654C27.8946 16.2529 28 16.5072 28 16.7725Z" fill="#FFFEFE"/>
</svg>
