<svg width="24" height="25" viewBox="0 0 24 25" fill="none" xmlns="http://www.w3.org/2000/svg">
<path d="M12 3.02246C10.0716 3.02246 8.18657 3.59429 6.58319 4.66563C4.97982 5.73698 3.73013 7.25972 2.99218 9.0413C2.25422 10.8229 2.06114 12.7833 2.43735 14.6746C2.81355 16.5659 3.74215 18.3032 5.10571 19.6668C6.46928 21.0303 8.20656 21.9589 10.0979 22.3351C11.9892 22.7113 13.9496 22.5182 15.7312 21.7803C17.5127 21.0423 19.0355 19.7926 20.1068 18.1893C21.1782 16.5859 21.75 14.7008 21.75 12.7725C21.7473 10.1874 20.7192 7.70907 18.8913 5.88118C17.0634 4.0533 14.585 3.02519 12 3.02246ZM12 21.0225C10.3683 21.0225 8.77326 20.5386 7.41655 19.6321C6.05984 18.7256 5.00242 17.4371 4.378 15.9296C3.75358 14.4221 3.5902 12.7633 3.90853 11.163C4.22685 9.56262 5.01259 8.09261 6.16637 6.93883C7.32016 5.78505 8.79017 4.99931 10.3905 4.68098C11.9909 4.36265 13.6497 4.52603 15.1571 5.15045C16.6646 5.77488 17.9531 6.8323 18.8596 8.18901C19.7662 9.54571 20.25 11.1408 20.25 12.7725C20.2475 14.9597 19.3775 17.0567 17.8309 18.6034C16.2843 20.15 14.1873 21.02 12 21.0225ZM7.5 10.8975C7.5 10.675 7.56598 10.4575 7.6896 10.2724C7.81322 10.0874 7.98892 9.94324 8.19449 9.8581C8.40005 9.77295 8.62625 9.75067 8.84448 9.79408C9.06271 9.83749 9.26317 9.94463 9.4205 10.102C9.57783 10.2593 9.68498 10.4598 9.72839 10.678C9.7718 10.8962 9.74952 11.1224 9.66437 11.328C9.57922 11.5335 9.43503 11.7092 9.25002 11.8329C9.06502 11.9565 8.84751 12.0225 8.625 12.0225C8.32664 12.0225 8.04049 11.9039 7.82951 11.693C7.61853 11.482 7.5 11.1958 7.5 10.8975ZM16.5 10.8975C16.5 11.12 16.434 11.3375 16.3104 11.5225C16.1868 11.7075 16.0111 11.8517 15.8055 11.9368C15.6 12.022 15.3738 12.0443 15.1555 12.0008C14.9373 11.9574 14.7368 11.8503 14.5795 11.693C14.4222 11.5356 14.315 11.3352 14.2716 11.1169C14.2282 10.8987 14.2505 10.6725 14.3356 10.4669C14.4208 10.2614 14.565 10.0857 14.75 9.96206C14.935 9.83844 15.1525 9.77246 15.375 9.77246C15.6734 9.77246 15.9595 9.89099 16.1705 10.102C16.3815 10.3129 16.5 10.5991 16.5 10.8975ZM16.3997 15.3975C15.435 17.0653 13.8309 18.0225 12 18.0225C10.1691 18.0225 8.56594 17.0662 7.60125 15.3975C7.54699 15.3121 7.51055 15.2166 7.49413 15.1168C7.47772 15.017 7.48166 14.9149 7.50573 14.8167C7.52979 14.7184 7.57348 14.6261 7.63417 14.5451C7.69485 14.4642 7.77128 14.3964 7.85886 14.3458C7.94643 14.2952 8.04334 14.2628 8.14375 14.2506C8.24417 14.2384 8.34601 14.2466 8.44316 14.2748C8.5403 14.303 8.63074 14.3505 8.70904 14.4146C8.78734 14.4786 8.85187 14.5578 8.89875 14.6475C9.59907 15.8578 10.6997 16.5225 12 16.5225C13.3003 16.5225 14.4009 15.8568 15.1003 14.6475C15.1998 14.4752 15.3636 14.3494 15.5558 14.2979C15.7479 14.2464 15.9527 14.2733 16.125 14.3728C16.2973 14.4722 16.4231 14.6361 16.4746 14.8282C16.5261 15.0204 16.4991 15.2252 16.3997 15.3975Z" fill="white"/>
</svg>
