<svg width="102" height="69" viewBox="0 0 102 69" fill="none" xmlns="http://www.w3.org/2000/svg">
<rect x="0.5" y="1.27246" width="101" height="67" rx="9.5" fill="#303038"/>
<path d="M58.2856 34.4152C58.2856 45.8165 49.043 55.058 37.6423 55.058C26.2417 55.058 17 45.8165 17 34.4152C17 23.015 26.2416 13.7725 37.6423 13.7725C49.043 13.7725 58.2856 23.015 58.2856 34.4152Z" fill="#D9222A"/>
<path d="M65.3566 13.7725C60.0231 13.7725 55.1629 15.796 51.4993 19.1161C50.7533 19.7927 50.0565 20.5235 49.4149 21.3006H53.5856C54.1557 21.994 54.6809 22.7233 55.1592 23.487H47.8414C47.4029 24.189 47.0049 24.9183 46.6521 25.6729H56.348C56.6792 26.3812 56.9714 27.1099 57.2221 27.8583H45.7782C45.5396 28.5703 45.3388 29.2992 45.1782 30.0442H57.8213C58.1247 31.453 58.2862 32.9154 58.2862 34.4151C58.2862 36.7075 57.9119 38.913 57.222 40.9725H45.7781C46.0282 41.7214 46.3205 42.4507 46.6516 43.1584H56.3478C55.9943 43.9131 55.5971 44.6423 55.1581 45.3448H47.8413C48.319 46.1072 48.8451 46.8374 49.4149 47.5293H53.5847C52.944 48.3079 52.2468 49.0397 51.4997 49.7158C55.1634 53.0353 60.0231 55.0579 65.3566 55.0579C76.7574 55.058 86 45.8165 86 34.4152C86 23.0155 76.7574 13.7725 65.3566 13.7725Z" fill="#EE9F2D"/>
<path d="M83.248 45.9217C83.248 45.5538 83.5461 45.2546 83.9146 45.2546C84.283 45.2546 84.5811 45.5538 84.5811 45.9217C84.5811 46.2896 84.283 46.5887 83.9146 46.5887C83.5461 46.5887 83.248 46.2896 83.248 45.9217ZM83.9146 46.4287C84.1945 46.4287 84.4215 46.2015 84.4215 45.9217C84.4215 45.6414 84.1944 45.4153 83.9146 45.4153C83.6342 45.4153 83.4081 45.6415 83.4081 45.9217C83.4081 46.2015 83.6343 46.4287 83.9146 46.4287ZM83.8245 46.2149H83.688V45.6288H83.9353C83.987 45.6288 84.0397 45.6288 84.0852 45.6581C84.1327 45.6901 84.1595 45.7467 84.1595 45.8051C84.1595 45.8708 84.1207 45.9321 84.0579 45.9561L84.1657 46.2149H84.0144L83.9248 45.9829H83.8247V46.2149H83.8245ZM83.8245 45.8824H83.9002C83.9285 45.8824 83.9583 45.8848 83.9837 45.8709C84.0061 45.8565 84.0177 45.8296 84.0177 45.8038C84.0177 45.7813 84.0038 45.7553 83.9846 45.7443C83.9607 45.7295 83.9229 45.7327 83.8975 45.7327H83.8245V45.8824Z" fill="black"/>
<path d="M32.8226 36.6753C32.5873 36.6479 32.4839 36.6407 32.3223 36.6407C31.052 36.6407 30.409 37.0763 30.409 37.9365C30.409 38.4668 30.7228 38.8041 31.2125 38.8041C32.1254 38.8041 32.7832 37.935 32.8226 36.6753ZM34.4522 40.4698H32.5954L32.6381 39.5871C32.0716 40.2846 31.3161 40.6163 30.2891 40.6163C29.0744 40.6163 28.2417 39.6676 28.2417 38.29C28.2417 36.2172 29.6902 35.0078 32.1766 35.0078C32.4305 35.0078 32.7564 35.0307 33.0898 35.0733C33.1593 34.7926 33.1776 34.6723 33.1776 34.5213C33.1776 33.9569 32.787 33.7466 31.7401 33.7466C30.6438 33.7342 29.7396 34.0078 29.3682 34.1299C29.3917 33.9886 29.6787 32.2141 29.6787 32.2141C30.7956 31.8868 31.5321 31.7637 32.3611 31.7637C34.2852 31.7637 35.3046 32.6277 35.3026 34.2605C35.3064 34.6981 35.234 35.238 35.1211 35.9477C34.9266 37.1818 34.5093 39.8253 34.4522 40.4698Z" fill="black"/>
<path d="M27.3046 40.47H25.0636L26.3472 32.4205L23.4809 40.47H21.9538L21.765 32.4665L20.4157 40.47H18.3179L20.0701 29.9988H23.2925L23.488 35.8599L25.4536 29.9988H29.0377L27.3046 40.47Z" fill="black"/>
<path d="M68.1253 36.6753C67.891 36.6479 67.7871 36.6407 67.626 36.6407C66.3563 36.6407 65.7132 37.0763 65.7132 37.9365C65.7132 38.4668 66.0266 38.8041 66.5162 38.8041C67.4292 38.8041 68.0875 37.935 68.1253 36.6753ZM69.7564 40.4698H67.8997L67.9418 39.5871C67.3754 40.2846 66.6193 40.6163 65.5934 40.6163C64.3783 40.6163 63.5464 39.6676 63.5464 38.29C63.5464 36.2172 64.994 35.0078 67.4808 35.0078C67.7348 35.0078 68.0601 35.0307 68.3931 35.0733C68.4626 34.7926 68.4809 34.6723 68.4809 34.5213C68.4809 33.9569 68.0908 33.7466 67.0439 33.7466C65.9476 33.7342 65.0444 34.0078 64.6715 34.1299C64.695 33.9886 64.9831 32.2141 64.9831 32.2141C66.0999 31.8868 66.8359 31.7637 67.664 31.7637C69.5892 31.7637 70.6085 32.6277 70.6065 34.2605C70.6103 34.6981 70.538 35.238 70.4249 35.9477C70.2313 37.1818 69.813 39.8253 69.7564 40.4698Z" fill="black"/>
<path d="M44.4117 40.3406C43.7984 40.5337 43.3202 40.6165 42.8017 40.6165C41.6561 40.6165 41.0308 39.9581 41.0308 38.7458C41.0145 38.3696 41.1956 37.3797 41.338 36.4761C41.4674 35.6806 42.3096 30.6653 42.3096 30.6653H44.5373L44.277 31.9542H45.6225L45.3187 34.0007H43.9683C43.7096 35.6202 43.3411 37.6376 43.3369 37.9049C43.3369 38.3438 43.5711 38.5355 44.104 38.5355C44.3595 38.5355 44.5573 38.5095 44.7083 38.455L44.4117 40.3406Z" fill="black"/>
<path d="M51.2416 40.2714C50.4764 40.5053 49.738 40.6184 48.9556 40.6164C46.4619 40.614 45.1621 39.3116 45.1621 36.8177C45.1621 33.9067 46.8157 31.7639 49.0605 31.7639C50.8971 31.7639 52.0701 32.9637 52.0701 34.8454C52.0701 35.4698 51.9896 36.0793 51.7955 36.9398H47.3595C47.2094 38.175 48.0001 38.6897 49.2957 38.6897C50.0932 38.6897 50.8124 38.5254 51.6121 38.1535L51.2416 40.2714ZM49.9895 35.223C50.002 35.0456 50.2259 33.703 48.9531 33.703C48.2435 33.703 47.736 34.244 47.5295 35.223H49.9895Z" fill="black"/>
<path d="M35.7959 34.6461C35.7959 35.7233 36.3182 36.4661 37.5027 37.0239C38.4103 37.4503 38.5506 37.5769 38.5506 37.9634C38.5506 38.4943 38.1505 38.734 37.2636 38.734C36.5951 38.734 35.9732 38.6296 35.256 38.398C35.256 38.398 34.9612 40.2749 34.9478 40.3646C35.4572 40.4758 35.9114 40.5787 37.2798 40.6165C39.6445 40.6165 40.7366 39.7162 40.7366 37.7703C40.7366 36.6002 40.2793 35.9135 39.1568 35.3974C38.2172 34.9662 38.1094 34.8699 38.1094 34.4723C38.1094 34.0118 38.4817 33.777 39.2062 33.777C39.646 33.777 40.2469 33.8239 40.8162 33.9049L41.1353 31.9297C40.555 31.8377 39.6753 31.7639 39.163 31.7639C36.656 31.764 35.7882 33.0735 35.7959 34.6461Z" fill="black"/>
<path d="M62.1412 31.9878C62.7636 31.9878 63.3439 32.1512 64.1436 32.5537L64.5102 30.281C64.182 30.1521 63.0263 29.3955 62.0473 29.3955C60.5476 29.3955 59.2797 30.1397 58.388 31.3677C57.0875 30.937 56.5528 31.8076 55.8974 32.6749L55.3151 32.8105C55.3592 32.525 55.3989 32.2413 55.3855 31.9542H53.3275C53.0462 34.5897 52.5479 37.2589 52.1578 39.8978L52.0562 40.47H54.2982C54.6724 38.0386 54.8774 36.4819 55.0021 35.4282L55.8463 34.9586C55.9724 34.4896 56.3671 34.3309 57.1592 34.3501C57.0558 34.9059 57.0002 35.4905 57.0002 36.0963C57.0002 38.8821 58.5032 40.6167 60.9159 40.6167C61.5374 40.6167 62.0706 40.5348 62.8963 40.311L63.2906 37.9237C62.548 38.2894 61.9385 38.4615 61.3865 38.4615C60.0837 38.4615 59.2953 37.4997 59.2953 35.9103C59.2955 33.6045 60.468 31.9878 62.1412 31.9878Z" fill="black"/>
<path d="M27.9485 39.8482H25.7071L26.9917 31.7996L24.1253 39.8482H22.5977L22.4089 31.8456L21.0596 39.8482H18.9619L20.7142 29.3784H23.9365L24.0272 35.86L26.2011 29.3784H29.6818L27.9485 39.8482Z" fill="white"/>
<path d="M81.1145 29.9988L80.6176 33.0243C80.0048 32.2178 79.3464 31.6342 78.4773 31.6342C77.3465 31.6342 76.3172 32.4915 75.6435 33.753C74.7053 33.5585 73.7349 33.2283 73.7349 33.2283L73.7345 33.236C73.8102 32.5306 73.8404 32.1004 73.8336 31.9542H71.7751C71.4948 34.5897 70.9965 37.2589 70.607 39.8978L70.5044 40.47H72.746C73.0487 38.504 73.2806 36.8715 73.4512 35.5767C74.2169 34.8849 74.6003 34.2811 75.3741 34.3214C75.0316 35.1498 74.8308 36.1043 74.8308 37.0833C74.8308 39.2123 75.9079 40.6166 77.537 40.6166C78.3584 40.6166 78.9885 40.3335 79.6032 39.677L79.4982 40.4686H81.6181L83.3249 29.9989H81.1145V29.9988ZM78.3119 38.5019C77.5491 38.5019 77.1639 37.9375 77.1639 36.8234C77.1639 35.1497 77.885 33.9628 78.9017 33.9628C79.6718 33.9628 80.0886 34.5498 80.0886 35.6313C80.0886 37.3194 79.356 38.5019 78.3119 38.5019Z" fill="black"/>
<path d="M33.4673 36.055C33.2324 36.0279 33.1285 36.0206 32.9675 36.0206C31.6972 36.0206 31.0546 36.4562 31.0546 37.3162C31.0546 37.8457 31.3684 38.1841 31.8572 38.1841C32.7711 38.184 33.429 37.3148 33.4673 36.055ZM35.0977 39.8482H33.241L33.2832 38.9669C32.7172 39.6631 31.9607 39.9962 30.9348 39.9962C29.7196 39.9962 28.8872 39.0474 28.8872 37.6698C28.8872 35.5961 30.3353 34.3875 32.8221 34.3875C33.076 34.3875 33.402 34.4105 33.735 34.4532C33.8044 34.1725 33.8227 34.0522 33.8227 33.9003C33.8227 33.3358 33.4327 33.1265 32.3857 33.1265C31.289 33.114 30.3852 33.3876 30.0134 33.5084C30.0369 33.3675 30.3239 31.5951 30.3239 31.5951C31.4403 31.2665 32.1777 31.1433 33.0057 31.1433C34.9304 31.1433 35.9501 32.0078 35.9483 33.6393C35.9516 34.0787 35.8788 34.6182 35.7661 35.3269C35.5721 36.5601 35.1544 39.2051 35.0977 39.8482Z" fill="white"/>
<path d="M65.1553 29.6603L64.7883 31.9335C63.9891 31.5314 63.4083 31.3677 62.7864 31.3677C61.1132 31.3677 59.9402 32.9843 59.9402 35.2899C59.9402 36.8793 60.7288 37.8406 62.0313 37.8406C62.5833 37.8406 63.1923 37.669 63.935 37.303L63.5416 39.6892C62.7154 39.9144 62.1828 39.9964 61.5607 39.9964C59.1485 39.9964 57.645 38.2618 57.645 35.4759C57.645 31.7327 59.7217 29.1165 62.692 29.1165C63.6704 29.1165 64.8266 29.5314 65.1553 29.6603Z" fill="white"/>
<path d="M68.7714 36.055C68.5365 36.0279 68.433 36.0206 68.2715 36.0206C67.0018 36.0206 66.3587 36.4562 66.3587 37.3162C66.3587 37.8457 66.6725 38.1841 67.1617 38.1841C68.0746 38.184 68.7329 37.3148 68.7714 36.055ZM70.4018 39.8482H68.5446L68.5872 38.9669C68.0209 39.6631 67.2648 39.9962 66.2388 39.9962C65.0241 39.9962 64.1914 39.0474 64.1914 37.6698C64.1914 35.5961 65.6399 34.3875 68.1257 34.3875C68.3802 34.3875 68.7056 34.4105 69.0391 34.4532C69.1081 34.1725 69.1267 34.0522 69.1267 33.9003C69.1267 33.3358 68.7366 33.1265 67.6898 33.1265C66.5935 33.114 65.6893 33.3876 65.3174 33.5084C65.3408 33.3675 65.6283 31.5951 65.6283 31.5951C66.7448 31.2665 67.4818 31.1433 68.3098 31.1433C70.235 31.1433 71.2542 32.0078 71.2518 33.6393C71.2556 34.0787 71.1832 34.6182 71.0702 35.3269C70.8766 36.5601 70.4579 39.2051 70.4018 39.8482Z" fill="white"/>
<path d="M45.0566 39.7191C44.4428 39.9121 43.9646 39.996 43.4467 39.996C42.301 39.996 41.6758 39.3376 41.6758 38.1253C41.6599 37.7482 41.8411 36.7591 41.9834 35.8555C42.1122 35.0591 42.9546 30.0442 42.9546 30.0442H45.1818L44.922 31.3336H46.0652L45.7609 33.3792H44.6138C44.355 34.9997 43.9855 37.0155 43.9817 37.2834C43.9817 37.7238 44.2165 37.9139 44.7489 37.9139C45.0043 37.9139 45.2018 37.8891 45.3531 37.8345L45.0566 39.7191Z" fill="white"/>
<path d="M51.8862 39.651C51.1214 39.8848 50.3821 39.9974 49.6001 39.996C47.1065 39.9936 45.8066 38.6913 45.8066 36.1973C45.8066 33.2854 47.4602 31.1431 49.705 31.1431C51.5416 31.1431 52.7146 32.3424 52.7146 34.225C52.7146 34.8499 52.6341 35.4593 52.4406 36.3195H48.0045C47.8544 37.5547 48.645 38.0699 49.9407 38.0699C50.7377 38.0699 51.4573 37.905 52.2566 37.5322L51.8862 39.651ZM50.6337 34.6012C50.6471 34.4243 50.8705 33.0813 49.5972 33.0813C48.888 33.0813 48.3807 33.6237 48.1741 34.6012H50.6337Z" fill="white"/>
<path d="M36.4405 34.0256C36.4405 35.1027 36.9629 35.8446 38.1474 36.4032C39.0549 36.8298 39.1952 36.9567 39.1952 37.343C39.1952 37.8738 38.7947 38.1134 37.9086 38.1134C37.2398 38.1134 36.6178 38.009 35.8999 37.7775C35.8999 37.7775 35.6062 39.6544 35.5928 39.7441C36.1012 39.8553 36.5559 39.9568 37.9244 39.996C40.2894 39.996 41.3811 39.0957 41.3811 37.1503C41.3811 35.9796 40.9245 35.293 39.8014 34.777C38.8622 34.3448 38.7534 34.2499 38.7534 33.8518C38.7534 33.3918 39.1267 33.155 39.8507 33.155C40.2901 33.155 40.891 33.2034 41.4612 33.2843L41.7798 31.3088C41.2 31.2168 40.3203 31.1431 39.8081 31.1431C37.3006 31.1431 36.4333 32.4516 36.4405 34.0256Z" fill="white"/>
<path d="M82.2625 39.8482H80.1421L80.2476 39.0555C79.6328 39.7129 79.0027 39.9962 78.1814 39.9962C76.5522 39.9962 75.4756 38.5917 75.4756 36.4628C75.4756 33.6304 77.1455 31.2428 79.122 31.2428C79.9912 31.2428 80.649 31.5978 81.2614 32.4038L81.7588 29.3784H83.9692L82.2625 39.8482ZM78.9567 37.8806C80.0003 37.8806 80.7335 36.6981 80.7335 35.0111C80.7335 33.9295 80.3161 33.3425 79.5461 33.3425C78.5298 33.3425 77.8078 34.5289 77.8078 36.2031C77.8078 37.3171 78.1939 37.8806 78.9567 37.8806Z" fill="white"/>
<path d="M72.4206 31.3339C72.1399 33.9694 71.6416 36.6388 71.252 39.2761L71.1494 39.8484H73.3909C74.1926 34.6418 74.3866 33.6249 75.6435 33.7524C75.8438 32.6867 76.2165 31.7533 76.4944 31.2823C75.5557 31.0868 75.0315 31.6173 74.3453 32.6249C74.3995 32.1893 74.4986 31.7662 74.479 31.334H72.4206" fill="white"/>
<path d="M53.9725 31.3339C53.6912 33.9694 53.1929 36.6388 52.8033 39.2761L52.7012 39.8484H54.9437C55.7444 34.6418 55.9379 33.6249 57.1943 33.7524C57.3955 32.6867 57.7683 31.7533 58.0452 31.2823C57.1075 31.0868 56.5827 31.6173 55.8971 32.6249C55.9513 32.1893 56.0495 31.7662 56.0307 31.334H53.9725" fill="white"/>
<path d="M83.2466 39.1815C83.2466 38.8122 83.5451 38.5146 83.9131 38.5146C84.2816 38.5146 84.5796 38.8122 84.5796 39.1815C84.5796 39.5491 84.2816 39.8482 83.9131 39.8482C83.545 39.8482 83.2466 39.5492 83.2466 39.1815ZM83.9131 39.6881C84.1935 39.6881 84.4196 39.461 84.4196 39.1816C84.4196 38.9019 84.1934 38.6747 83.9131 38.6747C83.6332 38.6747 83.4062 38.902 83.4062 39.1816C83.4061 39.461 83.6332 39.6881 83.9131 39.6881ZM83.823 39.4729H83.6863V38.8885H83.9339C83.9852 38.8885 84.0385 38.8894 84.083 38.9177C84.1309 38.9503 84.1582 39.0058 84.1582 39.0642C84.1582 39.1304 84.1194 39.1921 84.0561 39.2157L84.1644 39.4728H84.0125L83.9229 39.2419H83.8228L83.823 39.4729ZM83.823 39.1419H83.898C83.9263 39.1419 83.957 39.1439 83.9819 39.1304C84.0044 39.116 84.0159 39.0887 84.0159 39.0627C84.0159 39.0411 84.0026 39.0154 83.9829 39.0025C83.9595 38.9891 83.9206 38.9929 83.8952 38.9929H83.8228L83.823 39.1419Z" fill="white"/>
<rect x="0.5" y="1.27246" width="101" height="67" rx="9.5" stroke="#464957"/>
</svg>
