<svg width="102" height="69" viewBox="0 0 102 69" fill="none" xmlns="http://www.w3.org/2000/svg">
<rect x="0.5" y="1.27246" width="101" height="67" rx="9.5" fill="#303038"/>
<path fill-rule="evenodd" clip-rule="evenodd" d="M90.2307 35.3173C90.2307 29.7378 87.5281 25.3352 82.3627 25.3352C77.1756 25.3352 74.0371 29.7378 74.0371 35.2737C74.0371 41.8339 77.7422 45.1468 83.0602 45.1468C85.6538 45.1468 87.6153 44.5583 89.0974 43.7301V39.3711C87.6153 40.1121 85.9153 40.5698 83.7576 40.5698C81.6435 40.5698 79.7692 39.8288 79.5294 37.257H90.1871C90.1871 36.9737 90.2307 35.8403 90.2307 35.3173ZM79.464 33.2467C79.464 30.7839 80.9679 29.7596 82.3409 29.7596C83.6704 29.7596 85.0871 30.7839 85.0871 33.2467H79.464Z" fill="white"/>
<path fill-rule="evenodd" clip-rule="evenodd" d="M65.6244 25.3352C63.4885 25.3352 62.1154 26.3378 61.3526 27.0352L61.0693 25.6839H56.2744V51.0967L61.7231 49.9416L61.7449 43.7736C62.5295 44.3403 63.6847 45.1467 65.6026 45.1467C69.5039 45.1467 73.0565 42.0083 73.0565 35.0993C73.0347 28.7788 69.4385 25.3352 65.6244 25.3352ZM64.3167 40.3519C63.0308 40.3519 62.268 39.8942 61.7449 39.3275L61.7231 31.2416C62.2898 30.6096 63.0744 30.1737 64.3167 30.1737C66.3001 30.1737 67.6731 32.3967 67.6731 35.2519C67.6731 38.1724 66.3219 40.3519 64.3167 40.3519Z" fill="white"/>
<path fill-rule="evenodd" clip-rule="evenodd" d="M54.2479 18.448L48.7773 19.6031V24.0493L54.2479 22.8724V18.448Z" fill="white"/>
<path fill-rule="evenodd" clip-rule="evenodd" d="M48.7773 25.7058H54.2479V44.7763H48.7773V25.7058Z" fill="white"/>
<path fill-rule="evenodd" clip-rule="evenodd" d="M42.9148 27.3186L42.5661 25.7058H37.8584V44.7763H43.3071V31.8519C44.593 30.1737 46.7725 30.4788 47.4481 30.7186V25.7058C46.7507 25.4442 44.2007 24.9647 42.9148 27.3186Z" fill="white"/>
<path fill-rule="evenodd" clip-rule="evenodd" d="M32.0165 20.9763L26.6986 22.1097L26.6768 39.5673C26.6768 42.793 29.096 45.1686 32.3216 45.1686C34.1088 45.1686 35.4165 44.8417 36.1357 44.4494V40.025C35.4383 40.3083 31.9947 41.3109 31.9947 38.0853V30.3481H36.1357V25.7058H31.9947L32.0165 20.9763Z" fill="white"/>
<path fill-rule="evenodd" clip-rule="evenodd" d="M17.2836 31.2416C17.2836 30.3916 17.9811 30.0647 19.1362 30.0647C20.7926 30.0647 22.8849 30.566 24.5413 31.4596V26.3378C22.7323 25.6185 20.9452 25.3352 19.1362 25.3352C14.7118 25.3352 11.7695 27.6455 11.7695 31.5032C11.7695 37.5185 20.0516 36.5596 20.0516 39.1532C20.0516 40.1557 19.1798 40.4826 17.9593 40.4826C16.1503 40.4826 13.84 39.7416 12.0093 38.7391V43.9262C14.0362 44.798 16.0849 45.1685 17.9593 45.1685C22.4926 45.1685 25.6093 42.9237 25.6093 39.0224C25.5875 32.5275 17.2836 33.6826 17.2836 31.2416Z" fill="white"/>
<rect x="0.5" y="1.27246" width="101" height="67" rx="9.5" stroke="#464957"/>
</svg>
