<svg width="30" height="31" viewBox="0 0 30 31" fill="none" xmlns="http://www.w3.org/2000/svg">
<path d="M0 5.15918C0 2.39776 2.23858 0.15918 5 0.15918H25C27.7614 0.15918 30 2.39776 30 5.15918V25.1592C30 27.9206 27.7614 30.1592 25 30.1592H5C2.23858 30.1592 0 27.9206 0 25.1592V5.15918Z" fill="#EAEAFF"/>
<path d="M14.8134 12.1493L14.8528 12.7981L14.197 12.7187C11.8101 12.4141 9.72477 11.3813 7.95414 9.64679L7.08859 8.78616L6.86563 9.42171C6.39344 10.8385 6.69508 12.3347 7.67875 13.3409C8.20336 13.8971 8.08531 13.9766 7.18039 13.6455C6.86562 13.5396 6.59016 13.4601 6.56398 13.4998C6.47219 13.5926 6.78695 14.7974 7.03609 15.2741C7.37711 15.9362 8.07219 16.5849 8.83289 16.9689L9.47555 17.2734L8.71484 17.2867C7.98039 17.2867 7.95414 17.2999 8.03289 17.578C8.29516 18.4386 9.33125 19.3523 10.4854 19.7494L11.2986 20.0275L10.5903 20.4512C9.5411 21.0603 8.30828 21.4045 7.07547 21.431C6.48523 21.4443 6 21.4972 6 21.5369C6 21.6694 7.60008 22.4108 8.53125 22.7021C11.3248 23.5627 14.643 23.192 17.1348 21.7223C18.9054 20.6763 20.6759 18.5975 21.5022 16.5849C21.9481 15.5124 22.3941 13.5528 22.3941 12.6127C22.3941 12.0037 22.4334 11.9242 23.1678 11.196C23.6006 10.7723 24.0072 10.3088 24.0859 10.1765C24.217 9.92491 24.204 9.92491 23.5351 10.15C22.4203 10.5472 22.2629 10.4942 22.8138 9.89843C23.2203 9.47468 23.7056 8.70671 23.7056 8.48163C23.7056 8.44194 23.5088 8.50811 23.2859 8.62725C23.0498 8.75968 22.5252 8.95827 22.1317 9.07749L21.4235 9.30257L20.7809 8.86561C20.4268 8.62725 19.9284 8.36249 19.6661 8.28303C18.9972 8.09764 17.9742 8.12413 17.3709 8.336C15.7315 8.93186 14.6954 10.4677 14.8134 12.1493Z" fill="#5C5C68"/>
</svg>
