<svg width="30" height="31" viewBox="0 0 30 31" fill="none" xmlns="http://www.w3.org/2000/svg">
<path d="M0 5.09375C0 2.33233 2.23858 0.09375 5 0.09375H25C27.7614 0.09375 30 2.33233 30 5.09375V25.0938C30 27.8552 27.7614 30.0938 25 30.0938H5C2.23858 30.0938 0 27.8552 0 25.0938V5.09375Z" fill="#EAEAFF"/>
<path d="M14.8134 12.084L14.8528 12.7328L14.197 12.6534C11.8101 12.3488 9.72477 11.316 7.95414 9.58148L7.08859 8.72085L6.86563 9.3564C6.39344 10.7732 6.69508 12.2694 7.67875 13.2756C8.20336 13.8318 8.08531 13.9112 7.18039 13.5802C6.86562 13.4743 6.59016 13.3948 6.56398 13.4345C6.47219 13.5273 6.78695 14.7321 7.03609 15.2088C7.37711 15.8709 8.07219 16.5196 8.83289 16.9036L9.47555 17.2081L8.71484 17.2214C7.98039 17.2214 7.95414 17.2346 8.03289 17.5127C8.29516 18.3733 9.33125 19.2869 10.4854 19.6841L11.2986 19.9622L10.5903 20.3859C9.5411 20.995 8.30828 21.3392 7.07547 21.3657C6.48523 21.379 6 21.4319 6 21.4716C6 21.6041 7.60008 22.3455 8.53125 22.6368C11.3248 23.4974 14.643 23.1267 17.1348 21.657C18.9054 20.611 20.6759 18.5322 21.5022 16.5196C21.9481 15.4471 22.3941 13.4875 22.3941 12.5474C22.3941 11.9384 22.4334 11.8589 23.1678 11.1307C23.6006 10.7069 24.0072 10.2435 24.0859 10.1112C24.217 9.8596 24.204 9.8596 23.5351 10.0847C22.4203 10.4819 22.2629 10.4289 22.8138 9.83312C23.2203 9.40937 23.7056 8.6414 23.7056 8.41632C23.7056 8.37663 23.5088 8.44281 23.2859 8.56195C23.0498 8.69437 22.5252 8.89296 22.1317 9.01218L21.4235 9.23726L20.7809 8.80031C20.4268 8.56195 19.9284 8.29718 19.6661 8.21773C18.9972 8.03234 17.9742 8.05882 17.3709 8.2707C15.7315 8.86656 14.6954 10.4024 14.8134 12.084Z" fill="#5C5C68"/>
</svg>
