<svg width="30" height="30" viewBox="0 0 30 30" fill="none" xmlns="http://www.w3.org/2000/svg">
<path d="M0 5C0 2.23858 2.23858 0 5 0H25C27.7614 0 30 2.23858 30 5V25C30 27.7614 27.7614 30 25 30H5C2.23858 30 0 27.7614 0 25V5Z" fill="#EAEAFF"/>
<path d="M14.8134 11.9902L14.8528 12.6391L14.197 12.5596C11.8101 12.2551 9.72477 11.2223 7.95414 9.48773L7.08859 8.6271L6.86563 9.26265C6.39344 10.6794 6.69508 12.1756 7.67875 13.1819C8.20336 13.738 8.08531 13.8175 7.18039 13.4865C6.86562 13.3805 6.59016 13.3011 6.56398 13.3408C6.47219 13.4335 6.78695 14.6384 7.03609 15.1151C7.37711 15.7771 8.07219 16.4259 8.83289 16.8098L9.47555 17.1144L8.71484 17.1277C7.98039 17.1277 7.95414 17.1409 8.03289 17.4189C8.29516 18.2795 9.33125 19.1932 10.4854 19.5904L11.2986 19.8684L10.5903 20.2921C9.5411 20.9012 8.30828 21.2455 7.07547 21.2719C6.48523 21.2852 6 21.3381 6 21.3779C6 21.5103 7.60008 22.2518 8.53125 22.543C11.3248 23.4037 14.643 23.033 17.1348 21.5633C18.9054 20.5173 20.6759 18.4384 21.5022 16.4259C21.9481 15.3534 22.3941 13.3937 22.3941 12.4537C22.3941 11.8446 22.4334 11.7651 23.1678 11.0369C23.6006 10.6132 24.0072 10.1498 24.0859 10.0174C24.217 9.76585 24.204 9.76585 23.5351 9.99093C22.4203 10.3881 22.2629 10.3351 22.8138 9.73937C23.2203 9.31562 23.7056 8.54765 23.7056 8.32257C23.7056 8.28288 23.5088 8.34906 23.2859 8.4682C23.0498 8.60062 22.5252 8.79921 22.1317 8.91843L21.4235 9.14351L20.7809 8.70656C20.4268 8.4682 19.9284 8.20343 19.6661 8.12398C18.9972 7.93859 17.9742 7.96507 17.3709 8.17695C15.7315 8.77281 14.6954 10.3087 14.8134 11.9902Z" fill="#5C5C68"/>
</svg>
