<svg width="30" height="31" viewBox="0 0 30 31" fill="none" xmlns="http://www.w3.org/2000/svg">
<path d="M0 5.77246C0 3.01104 2.23858 0.772461 5 0.772461H25C27.7614 0.772461 30 3.01104 30 5.77246V25.7725C30 28.5339 27.7614 30.7725 25 30.7725H5C2.23858 30.7725 0 28.5339 0 25.7725V5.77246Z" fill="#EAEAFF"/>
<path d="M14.8134 12.7626L14.8528 13.4114L14.197 13.3319C11.8101 13.0274 9.72477 11.9946 7.95414 10.2601L7.08859 9.39944L6.86563 10.035C6.39344 11.4518 6.69508 12.948 7.67875 13.9542C8.20336 14.5104 8.08531 14.5898 7.18039 14.2588C6.86562 14.1529 6.59016 14.0734 6.56398 14.1131C6.47219 14.2058 6.78695 15.4107 7.03609 15.8874C7.37711 16.5494 8.07219 17.1982 8.83289 17.5822L9.47555 17.8867L8.71484 17.9C7.98039 17.9 7.95414 17.9132 8.03289 18.1912C8.29516 19.0519 9.33125 19.9655 10.4854 20.3627L11.2986 20.6408L10.5903 21.0644C9.5411 21.6736 8.30828 22.0178 7.07547 22.0443C6.48523 22.0576 6 22.1105 6 22.1502C6 22.2826 7.60008 23.0241 8.53125 23.3154C11.3248 24.176 14.643 23.8053 17.1348 22.3356C18.9054 21.2896 20.6759 19.2108 21.5022 17.1982C21.9481 16.1257 22.3941 14.1661 22.3941 13.226C22.3941 12.6169 22.4334 12.5375 23.1678 11.8093C23.6006 11.3855 24.0072 10.9221 24.0859 10.7898C24.217 10.5382 24.204 10.5382 23.5351 10.7633C22.4203 11.1605 22.2629 11.1075 22.8138 10.5117C23.2203 10.088 23.7056 9.31999 23.7056 9.09491C23.7056 9.05522 23.5088 9.12139 23.2859 9.24053C23.0498 9.37296 22.5252 9.57155 22.1317 9.69077L21.4235 9.91585L20.7809 9.47889C20.4268 9.24053 19.9284 8.97577 19.6661 8.89632C18.9972 8.71092 17.9742 8.73741 17.3709 8.94928C15.7315 9.54514 14.6954 11.081 14.8134 12.7626Z" fill="#5C5C68"/>
</svg>
