<svg width="30" height="31" viewBox="0 0 30 31" fill="none" xmlns="http://www.w3.org/2000/svg">
<path d="M0 5.20117C0 2.43975 2.23858 0.201172 5 0.201172H25C27.7614 0.201172 30 2.43975 30 5.20117V25.2012C30 27.9626 27.7614 30.2012 25 30.2012H5C2.23858 30.2012 0 27.9626 0 25.2012V5.20117Z" fill="#EAEAFF"/>
<path d="M14.8134 12.1913L14.8528 12.8401L14.197 12.7607C11.8101 12.4561 9.72477 11.4233 7.95414 9.68878L7.08859 8.82815L6.86563 9.4637C6.39344 10.8805 6.69508 12.3767 7.67875 13.3829C8.20336 13.9391 8.08531 14.0185 7.18039 13.6875C6.86562 13.5816 6.59016 13.5021 6.56398 13.5418C6.47219 13.6346 6.78695 14.8394 7.03609 15.3161C7.37711 15.9782 8.07219 16.6269 8.83289 17.0109L9.47555 17.3154L8.71484 17.3287C7.98039 17.3287 7.95414 17.3419 8.03289 17.62C8.29516 18.4806 9.33125 19.3942 10.4854 19.7914L11.2986 20.0695L10.5903 20.4932C9.5411 21.1023 8.30828 21.4465 7.07547 21.473C6.48523 21.4863 6 21.5392 6 21.5789C6 21.7114 7.60008 22.4528 8.53125 22.7441C11.3248 23.6047 14.643 23.234 17.1348 21.7643C18.9054 20.7183 20.6759 18.6395 21.5022 16.6269C21.9481 15.5544 22.3941 13.5948 22.3941 12.6547C22.3941 12.0457 22.4334 11.9662 23.1678 11.238C23.6006 10.8142 24.0072 10.3508 24.0859 10.2185C24.217 9.9669 24.204 9.9669 23.5351 10.192C22.4203 10.5892 22.2629 10.5362 22.8138 9.94042C23.2203 9.51667 23.7056 8.7487 23.7056 8.52362C23.7056 8.48393 23.5088 8.5501 23.2859 8.66925C23.0498 8.80167 22.5252 9.00026 22.1317 9.11948L21.4235 9.34456L20.7809 8.90761C20.4268 8.66925 19.9284 8.40448 19.6661 8.32503C18.9972 8.13964 17.9742 8.16612 17.3709 8.378C15.7315 8.97386 14.6954 10.5097 14.8134 12.1913Z" fill="#5C5C68"/>
</svg>
