<svg width="32" height="33" viewBox="0 0 32 33" fill="none" xmlns="http://www.w3.org/2000/svg">
<path d="M3.13466 28.2532C5.03841 24.9619 7.97216 22.6019 11.3959 21.4832C9.70237 20.475 8.38659 18.9388 7.65065 17.1104C6.9147 15.282 6.79927 13.2627 7.32209 11.3624C7.84491 9.46205 8.97706 7.7859 10.5447 6.59131C12.1123 5.39673 14.0287 4.74976 15.9997 4.74976C17.9706 4.74976 19.887 5.39673 21.4546 6.59131C23.0223 7.7859 24.1544 9.46205 24.6772 11.3624C25.2001 13.2627 25.0846 15.282 24.3487 17.1104C23.6127 18.9388 22.297 20.475 20.6034 21.4832C24.0272 22.6007 26.9609 24.9607 28.8647 28.2532C28.9345 28.367 28.9808 28.4937 29.0009 28.6257C29.0209 28.7577 29.0143 28.8924 28.9815 29.0218C28.9487 29.1513 28.8902 29.2728 28.8097 29.3793C28.7291 29.4858 28.628 29.5751 28.5124 29.6419C28.3967 29.7087 28.2689 29.7516 28.1364 29.7682C28.0039 29.7848 27.8694 29.7747 27.7409 29.7384C27.6124 29.7022 27.4924 29.6406 27.3881 29.5573C27.2837 29.4739 27.1971 29.3705 27.1334 29.2532C24.7784 25.1832 20.6159 22.7532 15.9997 22.7532C11.3834 22.7532 7.22091 25.1832 4.86591 29.2532C4.80219 29.3705 4.7156 29.4739 4.61127 29.5573C4.50694 29.6406 4.38697 29.7022 4.25844 29.7384C4.12991 29.7747 3.99543 29.7848 3.86292 29.7682C3.73042 29.7516 3.60258 29.7087 3.48694 29.6419C3.37131 29.5751 3.27022 29.4858 3.18965 29.3793C3.10908 29.2728 3.05065 29.1513 3.01782 29.0218C2.98498 28.8924 2.97841 28.7577 2.99847 28.6257C3.01854 28.4937 3.06485 28.367 3.13466 28.2532ZM22.9997 13.7532C22.9997 12.3687 22.5891 11.0153 21.8199 9.86417C21.0508 8.71302 19.9575 7.81581 18.6784 7.286C17.3994 6.75619 15.9919 6.61756 14.634 6.88766C13.2762 7.15776 12.0289 7.82444 11.0499 8.80341C10.0709 9.78238 9.40426 11.0297 9.13416 12.3875C8.86407 13.7454 9.00269 15.1529 9.53251 16.4319C10.0623 17.711 10.9595 18.8043 12.1107 19.5734C13.2618 20.3426 14.6152 20.7532 15.9997 20.7532C17.8556 20.7512 19.6349 20.013 20.9472 18.7007C22.2595 17.3884 22.9977 15.6091 22.9997 13.7532Z" fill="white"/>
</svg>
