<svg width="20" height="21" viewBox="0 0 20 21" fill="none" xmlns="http://www.w3.org/2000/svg">
<path d="M10 20.1318C4.47715 20.1318 0 15.6546 0 10.1318C0 4.60899 4.47715 0.131836 10 0.131836C15.5228 0.131836 20 4.60899 20 10.1318C20 15.6546 15.5228 20.1318 10 20.1318ZM10 18.1318C14.4183 18.1318 18 14.5501 18 10.1318C18 5.71356 14.4183 2.13184 10 2.13184C5.58172 2.13184 2 5.71356 2 10.1318C2 14.5501 5.58172 18.1318 10 18.1318ZM11 10.1318H15V12.1318H9V5.13184H11V10.1318Z" fill="#D1D1F0"/>
</svg>
