<svg width="20" height="21" viewBox="0 0 20 21" fill="none" xmlns="http://www.w3.org/2000/svg">
<path d="M10 20.3955C4.47715 20.3955 0 15.9183 0 10.3955C0 4.87266 4.47715 0.395508 10 0.395508C15.5228 0.395508 20 4.87266 20 10.3955C20 15.9183 15.5228 20.3955 10 20.3955ZM10 18.3955C14.4183 18.3955 18 14.8138 18 10.3955C18 5.97723 14.4183 2.39551 10 2.39551C5.58172 2.39551 2 5.97723 2 10.3955C2 14.8138 5.58172 18.3955 10 18.3955ZM11 10.3955H15V12.3955H9V5.39551H11V10.3955Z" fill="#D1D1F0"/>
</svg>
