<svg width="21" height="22" viewBox="0 0 21 22" fill="none" xmlns="http://www.w3.org/2000/svg">
<path d="M9.68643 0.600464L19.5859 2.01467L21.0001 11.9142L11.8077 21.1066C11.4172 21.4971 10.7841 21.4971 10.3935 21.1066L0.494069 11.2071C0.103539 10.8166 0.103539 10.1834 0.494069 9.79286L9.68643 0.600464ZM10.3935 2.72178L2.61539 10.5L11.1006 18.9853L18.8788 11.2071L17.8182 3.78244L10.3935 2.72178ZM12.5149 9.08576C11.7338 8.30469 11.7338 7.03836 12.5149 6.25731C13.2959 5.47626 14.5622 5.47626 15.3433 6.25731C16.1243 7.03836 16.1243 8.30469 15.3433 9.08576C14.5622 9.86676 13.2959 9.86676 12.5149 9.08576Z" fill="#D1D1F0"/>
</svg>
