<svg width="16" height="22" viewBox="0 0 16 22" fill="none" xmlns="http://www.w3.org/2000/svg">
<path d="M16 21.2725H14V19.2725C14 17.6156 12.6569 16.2725 11 16.2725H5C3.34315 16.2725 2 17.6156 2 19.2725V21.2725H0V19.2725C0 16.5111 2.23858 14.2725 5 14.2725H11C13.7614 14.2725 16 16.5111 16 19.2725V21.2725ZM8 12.2725C4.68629 12.2725 2 9.58616 2 6.27246C2 2.95875 4.68629 0.272461 8 0.272461C11.3137 0.272461 14 2.95875 14 6.27246C14 9.58616 11.3137 12.2725 8 12.2725ZM8 10.2725C10.2091 10.2725 12 8.4816 12 6.27246C12 4.06332 10.2091 2.27246 8 2.27246C5.79086 2.27246 4 4.06332 4 6.27246C4 8.4816 5.79086 10.2725 8 10.2725Z" fill="#D1D1F0"/>
</svg>
