<svg width="50" height="50" viewBox="0 0 50 50" fill="none" xmlns="http://www.w3.org/2000/svg">
<path d="M25 0C11.25 0 0 9.46429 0 21.25V27.5C0 27.6786 0 27.6786 0 27.8571C0 28.0357 0 28.3929 0 28.5714C0 33.5714 4.58333 37.5 10.4167 37.5C11.6667 37.5 12.5 36.7857 12.5 35.7143V21.4286C12.5 20.3571 11.6667 19.6429 10.4167 19.6429C8.125 19.6429 5.83333 20.3571 4.16667 21.4286V21.0714C4.16667 11.4286 13.5417 3.57143 25 3.57143C36.4583 3.57143 45.8333 11.4286 45.8333 21.25V21.4286C44.1667 20.3571 41.875 19.6429 39.5833 19.6429C38.3333 19.6429 37.5 20.3571 37.5 21.4286V35.7143C37.5 36.7857 38.3333 37.5 39.5833 37.5C41.0417 37.5 42.5 37.1429 43.75 36.7857C41.6667 40.5357 37.9167 43.3929 33.3333 45C33.3333 44.8214 33.3333 44.8214 33.3333 44.6429C33.3333 43.5714 32.5 42.8571 31.25 42.8571H25C23.75 42.8571 22.9167 43.5714 22.9167 44.6429V48.2143C22.9167 49.2857 23.75 50 25 50C38.75 50 50 40.7143 50 29.2857V27.5V23.2143V21.25C50 9.46429 38.75 0 25 0Z" fill="white"/>
</svg>
