<svg width="18" height="23" viewBox="0 0 18 23" fill="none" xmlns="http://www.w3.org/2000/svg">
<path d="M9 22.6363L2.63604 16.2724C-0.87868 12.7576 -0.87868 7.05921 2.63604 3.54449C6.15076 0.0297673 11.8492 0.0297673 15.364 3.54449C18.8787 7.05921 18.8787 12.7576 15.364 16.2724L9 22.6363ZM13.9497 14.8581C16.6834 12.1245 16.6834 7.69237 13.9497 4.9587C11.2161 2.22503 6.78392 2.22503 4.05025 4.9587C1.31658 7.69237 1.31658 12.1245 4.05025 14.8581L9 19.8079L13.9497 14.8581ZM9 11.9084C7.8954 11.9084 7 11.013 7 9.90845C7 8.80388 7.8954 7.90845 9 7.90845C10.1046 7.90845 11 8.80388 11 9.90845C11 11.013 10.1046 11.9084 9 11.9084Z" fill="#D1D1F0"/>
</svg>
