<svg width="20" height="21" viewBox="0 0 20 21" fill="none" xmlns="http://www.w3.org/2000/svg">
<path d="M10 20.0273C4.47715 20.0273 0 15.5501 0 10.0273C0 4.50449 4.47715 0.0273438 10 0.0273438C15.5228 0.0273438 20 4.50449 20 10.0273C20 15.5501 15.5228 20.0273 10 20.0273ZM10 18.0273C14.4183 18.0273 18 14.4456 18 10.0273C18 5.60906 14.4183 2.02734 10 2.02734C5.58172 2.02734 2 5.60906 2 10.0273C2 14.4456 5.58172 18.0273 10 18.0273ZM11 10.0273H15V12.0273H9V5.02734H11V10.0273Z" fill="#D1D1F0"/>
</svg>
