<svg width="20" height="21" viewBox="0 0 20 21" fill="none" xmlns="http://www.w3.org/2000/svg">
<path d="M10 20.7725C4.47715 20.7725 0 16.2953 0 10.7725C0 5.24961 4.47715 0.772461 10 0.772461C15.5228 0.772461 20 5.24961 20 10.7725C20 16.2953 15.5228 20.7725 10 20.7725ZM10 18.7725C14.4183 18.7725 18 15.1908 18 10.7725C18 6.35418 14.4183 2.77246 10 2.77246C5.58172 2.77246 2 6.35418 2 10.7725C2 15.1908 5.58172 18.7725 10 18.7725ZM11 10.7725H15V12.7725H9V5.77246H11V10.7725Z" fill="#D1D1F0"/>
</svg>
