<svg width="1456" height="3470" viewBox="0 0 1456 3470" fill="none" xmlns="http://www.w3.org/2000/svg">
<path d="M636.037 2344.05C606.826 2357.17 531.889 2379.65 476.761 2391.22C429.05 2401.25 382.405 2403.1 482.303 2525.46C582.201 2647.81 373.913 2610.58 308.555 2582.6M1448 162.695C1425.4 249.118 1229.64 398.279 1219.27 566.327C1210.29 711.763 1220.97 856.934 888.748 498.566C556.524 140.199 694.954 749.793 784.786 964.691M126.49 293.912C151.285 314.105 217.804 355.11 268.032 380.491C311.501 402.456 356.07 416.255 227.687 508.711C99.3044 601.166 310.188 618.837 380.607 608.645M1406.54 760.169C1377.32 773.288 1302.39 795.764 1247.26 807.343C1199.55 817.365 1152.9 819.215 1252.8 941.574C1352.7 1063.93 1144.41 1026.7 1079.05 998.718M137.766 266.651C167.191 290.614 246.131 339.276 305.738 369.396C357.325 395.463 410.216 411.839 257.86 521.559C105.504 631.279 355.766 652.25 439.335 640.155M121.939 1570.19C146.734 1590.38 213.252 1631.39 263.48 1656.77C306.949 1678.73 351.519 1692.53 223.136 1784.99C94.753 1877.44 305.636 1895.12 376.055 1884.92M118.688 1561.09C148.113 1585.05 227.053 1633.71 286.66 1663.83C338.246 1689.9 391.138 1706.28 238.782 1816C86.4253 1925.72 336.688 1946.69 420.257 1934.59M511.955 305.814C469.824 425.114 338.365 487.879 218.335 446.004C98.304 404.13 35.1542 273.472 77.2856 154.173C119.417 34.8732 250.875 -27.892 370.906 13.9827C490.936 55.8575 554.086 186.515 511.955 305.814ZM470.197 1118.04C365.445 1196.22 217.952 1176.76 140.763 1074.58C63.5741 972.407 85.9188 826.204 190.671 748.03C295.424 669.856 442.917 689.314 520.106 791.491C597.295 893.667 574.95 1039.87 470.197 1118.04ZM583.282 1895.51C373.331 2052.19 157.883 2119.31 102.066 2045.42C46.2487 1971.54 171.199 1784.63 381.151 1627.95C591.102 1471.26 806.55 1404.15 862.367 1478.03C918.184 1551.92 793.234 1738.83 583.282 1895.51ZM471.102 2497.48C471.102 2626.51 365.866 2731.1 236.051 2731.1C106.236 2731.1 1 2626.51 1 2497.48C1 2368.46 106.236 2263.87 236.051 2263.87C365.866 2263.87 471.102 2368.46 471.102 2497.48ZM471.102 3049.38C471.102 3178.41 365.866 3283 236.051 3283C106.236 3283 1 3178.41 1 3049.38C1 2920.36 106.236 2815.76 236.051 2815.76C365.866 2815.76 471.102 2920.36 471.102 3049.38ZM1330.87 80.3367H1437.96V183.426L1121.31 398.291L883.335 335.605L1330.87 80.3367Z" stroke="#393939" stroke-width="2"/>
<g filter="url(#filter0_f_0_1640)">
<ellipse cx="1004.41" cy="3020.24" rx="247.594" ry="252.29" transform="rotate(53.0991 1004.41 3020.24)" fill="#28292E" fill-opacity="0.8"/>
</g>
<defs>
<filter id="filter0_f_0_1640" x="553.79" y="2570.93" width="901.248" height="898.62" filterUnits="userSpaceOnUse" color-interpolation-filters="sRGB">
<feFlood flood-opacity="0" result="BackgroundImageFix"/>
<feBlend mode="normal" in="SourceGraphic" in2="BackgroundImageFix" result="shape"/>
<feGaussianBlur stdDeviation="100" result="effect1_foregroundBlur_0_1640"/>
</filter>
</defs>
</svg>
