<svg width="2251" height="6340" viewBox="0 0 2251 6340" fill="none" xmlns="http://www.w3.org/2000/svg">
<path d="M1000.67 3626.62C955.739 3646.92 840.489 3681.69 755.703 3699.61C682.325 3715.12 610.588 3717.98 764.228 3907.32C917.868 4096.66 597.527 4039.04 497.009 3995.74M2249.44 251.206C2214.68 384.936 1913.61 615.746 1897.65 875.782C1883.85 1100.83 1900.28 1325.46 1389.33 770.929C878.377 216.395 1091.28 1159.68 1229.44 1492.21M217 454.25C255.133 485.496 357.437 548.947 434.685 588.221C501.54 622.21 570.085 643.562 372.637 786.627C175.189 929.692 499.52 957.036 607.822 941.265M2185.67 1175.73C2140.74 1196.03 2025.49 1230.81 1940.7 1248.73C1867.32 1264.24 1795.59 1267.1 1949.23 1456.44C2102.87 1645.77 1782.53 1588.15 1682.01 1544.86M234.342 412.065C279.596 449.146 401.003 524.446 492.676 571.053C572.015 611.389 653.36 636.728 419.042 806.508C184.723 976.288 569.618 1008.74 698.144 990.022M210 2429.15C248.133 2460.4 350.437 2523.85 427.685 2563.12C494.54 2597.11 563.085 2618.46 365.637 2761.53C168.189 2904.59 492.52 2931.94 600.822 2916.17M205 2415.07C250.254 2452.15 371.661 2527.45 463.334 2574.05C542.673 2614.39 624.019 2639.73 389.7 2809.51C155.381 2979.29 540.276 3011.74 668.802 2993.02M809.831 472.667C745.034 657.27 542.856 754.392 358.253 689.596C173.65 624.799 76.528 422.621 141.325 238.018C206.121 53.415 408.299 -43.7072 592.902 21.0894C777.505 85.8859 874.628 288.064 809.831 472.667ZM745.609 1729.5C584.503 1850.47 357.665 1820.36 238.951 1662.25C120.237 1504.15 154.602 1277.91 315.708 1156.95C476.814 1035.98 703.653 1066.09 822.367 1224.2C941.081 1382.31 906.715 1608.54 745.609 1729.5ZM919.53 2932.55C596.632 3175 265.281 3278.85 179.436 3164.52C93.591 3050.19 285.761 2760.97 608.659 2518.52C931.557 2276.07 1262.91 2172.22 1348.75 2286.55C1434.6 2400.88 1242.43 2690.1 919.53 2932.55ZM747 3864.04C747 4063.69 585.151 4225.54 385.5 4225.54C185.849 4225.54 24 4063.69 24 3864.04C24 3664.39 185.849 3502.54 385.5 3502.54C585.151 3502.54 747 3664.39 747 3864.04ZM747 4718.04C747 4917.69 585.151 5079.54 385.5 5079.54C185.849 5079.54 24 4917.69 24 4718.04C24 4518.39 185.849 4356.54 385.5 4356.54C585.151 4356.54 747 4518.39 747 4718.04ZM2069.3 123.765H2234V283.284L1747 615.765L1381 518.765L2069.3 123.765Z" stroke="#393939" stroke-width="2"/>
<g filter="url(#filter0_f_0_910)">
<ellipse cx="644.34" cy="5698.22" rx="438.317" ry="446.631" transform="rotate(53.0991 644.34 5698.22)" fill="#28292E" fill-opacity="0.8"/>
</g>
<g filter="url(#filter1_f_0_910)">
<ellipse cx="1027.41" cy="3020.24" rx="247.594" ry="252.29" transform="rotate(53.0991 1027.41 3020.24)" fill="#28292E" fill-opacity="0.8"/>
</g>
<defs>
<filter id="filter0_f_0_910" x="0.65918" y="5056.87" width="1287.36" height="1282.71" filterUnits="userSpaceOnUse" color-interpolation-filters="sRGB">
<feFlood flood-opacity="0" result="BackgroundImageFix"/>
<feBlend mode="normal" in="SourceGraphic" in2="BackgroundImageFix" result="shape"/>
<feGaussianBlur stdDeviation="100" result="effect1_foregroundBlur_0_910"/>
</filter>
<filter id="filter1_f_0_910" x="576.79" y="2570.93" width="901.248" height="898.62" filterUnits="userSpaceOnUse" color-interpolation-filters="sRGB">
<feFlood flood-opacity="0" result="BackgroundImageFix"/>
<feBlend mode="normal" in="SourceGraphic" in2="BackgroundImageFix" result="shape"/>
<feGaussianBlur stdDeviation="100" result="effect1_foregroundBlur_0_910"/>
</filter>
</defs>
</svg>
