<svg width="102" height="69" viewBox="0 0 102 69" fill="none" xmlns="http://www.w3.org/2000/svg">
<rect x="0.5" y="1.27246" width="101" height="67" rx="9.5" fill="#303038"/>
<mask id="mask0_0_1809" style="mask-type:luminance" maskUnits="userSpaceOnUse" x="11" y="22" width="80" height="26">
<path d="M52.348 30.204C52.3032 33.7333 55.4933 35.703 57.8965 36.874C60.3657 38.0756 61.195 38.846 61.1856 39.9204C61.1667 41.5649 59.2159 42.2906 57.39 42.3188C54.2046 42.3683 52.3527 41.4589 50.8802 40.7709L49.7328 46.1404C51.21 46.8213 53.9454 47.415 56.7821 47.4409C63.4403 47.4409 67.7967 44.1542 67.8203 39.058C67.8462 32.5907 58.8743 32.2325 58.9356 29.3416C58.9568 28.4652 59.7932 27.5298 61.6262 27.2919C62.5333 27.1717 65.0378 27.0798 67.8768 28.3874L68.9912 23.1923C67.4645 22.6363 65.5019 22.1038 63.0587 22.1038C56.7915 22.1038 52.3833 25.4353 52.348 30.204ZM79.6995 22.5515C78.4838 22.5515 77.4589 23.2606 77.0018 24.3491L67.4904 47.0592H74.1439L75.468 43.4003H83.5988L84.3669 47.0592H90.2311L85.1138 22.5515H79.6995ZM80.6302 29.172L82.5504 38.3748H77.2916L80.6302 29.172ZM44.2808 22.5515L39.0362 47.0592H45.3764L50.6187 22.5515H44.2808ZM34.9014 22.5515L28.302 39.2324L25.6326 25.0489C25.3193 23.4656 24.0823 22.5515 22.7087 22.5515H11.9203L11.7695 23.263C13.9842 23.7436 16.5005 24.5188 18.0249 25.3481C18.9579 25.8547 19.2241 26.2976 19.5304 27.5016L24.5865 47.0592H31.2871L41.5596 22.5515H34.9014Z" fill="white"/>
</mask>
<g mask="url(#mask0_0_1809)">
<path d="M3.55273 25.1296L80.8607 -3.34106L98.448 44.4156L21.1408 72.8862" fill="#E9E9FF"/>
</g>
<rect x="0.5" y="1.27246" width="101" height="67" rx="9.5" stroke="#464957"/>
</svg>
