<svg width="102" height="69" viewBox="0 0 102 69" fill="none" xmlns="http://www.w3.org/2000/svg">
<rect x="0.5" y="1.27246" width="101" height="67" rx="9.5" fill="#303038"/>
<path d="M83.5175 9.99194H19.4825C17.0069 9.99194 15 11.995 15 14.466V55.3716C15 57.8425 17.0069 59.8456 19.4825 59.8456H83.5175C85.9931 59.8456 88 57.8425 88 55.3716V14.466C88 11.995 85.9931 9.99194 83.5175 9.99194Z" fill="#006FCF"/>
<path fill-rule="evenodd" clip-rule="evenodd" d="M29.5087 46.4919V35.8311H41.4517L42.7331 37.41L44.0568 35.8311H87.4068V45.7567C87.4068 45.7567 86.2731 46.4813 84.962 46.4919H60.9581L59.5135 44.8114V46.4919H54.7794V43.6232C54.7794 43.6232 54.1327 44.0237 52.7347 44.0237H51.1233V46.4919H43.9555L42.6759 44.8793L41.3768 46.4919H29.5087ZM15.5938 27.7962L18.2808 21.8618H22.9278L24.4528 25.186V21.8618H30.2294L31.1373 24.2644L32.0173 21.8618H57.9486V23.0697C57.9486 23.0697 59.3117 21.8618 61.5521 21.8618L69.9659 21.8897L71.4644 25.1704V21.8618H76.2987L77.6292 23.7463V21.8618H82.5077V32.5227H77.6292L76.3541 30.6321V32.5227H69.2516L68.5373 30.8421H66.6279L65.9253 32.5227H61.1086C59.1808 32.5227 57.9486 31.3394 57.9486 31.3394V32.5227H50.6862L49.2448 30.8421V32.5227H22.2394L21.5256 30.8421H19.6223L18.9136 32.5227H15.5938V27.7962ZM15.6076 31.1585L19.2319 23.1761H21.9795L25.6004 31.1585H23.1888L22.5235 29.5601H18.6359L17.9672 31.1585H15.6076ZM21.7578 27.8271L20.5728 25.0338L19.3843 27.8271H21.7578ZM25.8498 31.1572V23.1747L29.203 23.1866L31.1532 28.3331L33.0568 23.1747H36.3831V31.1572H34.2765V25.2754L32.0433 31.1572H30.1958L27.9565 25.2754V31.1572H25.8498ZM37.8245 31.1572V23.1747H44.6989V24.9602H39.9533V26.3257H44.588V28.0062H39.9533V29.4242H44.6989V31.1572H37.8245ZM45.9185 31.1585V23.1761H50.6065C52.1598 23.1761 53.5517 24.086 53.5517 25.7658C53.5517 27.2018 52.3782 28.1267 51.2406 28.2176L54.0125 31.1585H51.4381L48.9121 28.3227H48.0251V31.1585H45.9185ZM50.4332 24.9617H48.0251V26.6421H50.4645C50.8867 26.6421 51.4311 26.3322 51.4311 25.8019C51.4311 25.3897 51.0109 24.9617 50.4332 24.9617ZM56.5626 31.1572H54.4117V23.1747H56.5626V31.1572ZM61.663 31.1572H61.1987C58.9522 31.1572 57.5883 29.4806 57.5883 27.1988C57.5883 24.8606 58.9369 23.1747 61.7738 23.1747H64.1023V25.0654H61.6888C60.5371 25.0654 59.7227 25.9167 59.7227 27.2185C59.7227 28.7644 60.6539 29.4137 61.9955 29.4137H62.5499L61.663 31.1572ZM62.6227 31.1585L66.247 23.1761H68.9947L72.6155 31.1585H70.2039L69.5387 29.5601H65.6511L64.9823 31.1585H62.6227ZM68.7729 27.8271L67.588 25.0338L66.3995 27.8271H68.7729ZM72.8615 31.1572V23.1747H75.5398L78.9597 28.19V23.1747H81.0664V31.1572H78.4746L74.9682 26.0106V31.1572H72.8615ZM30.9502 45.1266V37.144H37.8245V38.9296H33.0789V40.2951H37.7136V41.9755H33.0789V43.3935H37.8245V45.1266H30.9502ZM64.6345 45.1266V37.144H71.5088V38.9296H66.7633V40.2951H71.3758V41.9755H66.7633V43.3935H71.5088V45.1266H64.6345ZM38.0914 45.1266L41.4384 41.1845L38.0116 37.144H40.6658L42.7065 39.6418L44.7542 37.144H47.3044L43.9227 41.1353L47.276 45.1266H44.6223L42.6407 42.6682L40.7073 45.1266H38.0914ZM47.5262 45.1279V37.1455H52.1795C54.0889 37.1455 55.2044 38.3112 55.2044 39.8303C55.2044 41.6642 53.7822 42.6071 51.9058 42.6071H49.6883V45.1279H47.5262ZM52.0236 38.9506H49.6883V40.7887H52.0167C52.632 40.7887 53.0631 40.4024 53.0631 39.8697C53.0631 39.3026 52.6298 38.9506 52.0236 38.9506ZM56.1192 45.1266V37.144H60.8071C62.3605 37.144 63.7523 38.0539 63.7523 39.7337C63.7523 41.1697 62.5789 42.0946 61.4412 42.1856L64.2131 45.1266H61.6387L59.1128 42.2906H58.2258V45.1266H56.1192ZM60.6339 38.9296H58.2258V40.6101H60.665C61.0874 40.6101 61.6318 40.3003 61.6318 39.7698C61.6318 39.3576 61.2116 38.9296 60.6339 38.9296ZM72.4846 45.1266V43.3935H76.7006C77.3244 43.3935 77.5946 43.0742 77.5946 42.724C77.5946 42.3884 77.3253 42.0491 76.7006 42.0491H74.7954C73.1394 42.0491 72.217 41.0932 72.217 39.6582C72.217 38.3783 73.0616 37.144 75.5225 37.144H79.625L78.7379 38.9401H75.1899C74.5116 38.9401 74.3028 39.2772 74.3028 39.5992C74.3028 39.9301 74.561 40.2951 75.0791 40.2951H77.0748C78.9209 40.2951 79.7219 41.287 79.7219 42.5861C79.7219 43.9826 78.8294 45.1266 76.9744 45.1266H72.4846ZM79.9077 45.1266V43.3935H84.1237C84.7477 43.3935 85.0177 43.0742 85.0177 42.724C85.0177 42.3884 84.7484 42.0491 84.1237 42.0491H82.2186C80.5625 42.0491 79.6402 41.0932 79.6402 39.6582C79.6402 38.3783 80.4849 37.144 82.9458 37.144H87.0482L86.1612 38.9401H82.6131C81.9349 38.9401 81.7261 39.2772 81.7261 39.5992C81.7261 39.9301 81.9841 40.2951 82.5022 40.2951H84.498C86.3441 40.2951 87.1452 41.287 87.1452 42.5861C87.1452 43.9826 86.2525 45.1266 84.3975 45.1266H79.9077Z" fill="white"/>
<rect x="0.5" y="1.27246" width="101" height="67" rx="9.5" stroke="#464957"/>
</svg>
