<svg width="30" height="31" viewBox="0 0 30 31" fill="none" xmlns="http://www.w3.org/2000/svg">
<path d="M0 5.77246C0 3.01104 2.23858 0.772461 5 0.772461H25C27.7614 0.772461 30 3.01104 30 5.77246V25.7725C30 28.5339 27.7614 30.7725 25 30.7725H5C2.23858 30.7725 0 28.5339 0 25.7725V5.77246Z" fill="#EAEAFF"/>
<g clip-path="url(#clip0_0_443)">
<path fill-rule="evenodd" clip-rule="evenodd" d="M12.559 19.0432V13.0305C14.6935 14.0349 16.3467 15.0052 18.3019 16.0512C16.6893 16.9456 14.6935 17.949 12.559 19.0432ZM24.4547 10.0401C24.0864 9.55504 23.4589 9.17743 22.7908 9.05242C20.8271 8.67951 8.57606 8.67845 6.61338 9.05242C6.07762 9.15286 5.60054 9.39562 5.19071 9.77281C3.4639 11.3756 4.005 19.9706 4.42123 21.3629C4.59626 21.9655 4.82253 22.4001 5.10748 22.6854C5.47462 23.0626 5.97729 23.3223 6.55467 23.4388C8.17156 23.7732 16.5015 23.9602 22.7566 23.489C23.333 23.3885 23.8431 23.1205 24.2455 22.7273C25.8421 21.1309 25.7332 12.0532 24.4547 10.0401Z" fill="#5C5C68"/>
</g>
<defs>
<clipPath id="clip0_0_443">
<rect width="21.4286" height="15" fill="white" transform="translate(4 8.77234)"/>
</clipPath>
</defs>
</svg>
