<svg width="30" height="31" viewBox="0 0 30 31" fill="none" xmlns="http://www.w3.org/2000/svg">
<path d="M0 5.15918C0 2.39776 2.23858 0.15918 5 0.15918H25C27.7614 0.15918 30 2.39776 30 5.15918V25.1592C30 27.9206 27.7614 30.1592 25 30.1592H5C2.23858 30.1592 0 27.9206 0 25.1592V5.15918Z" fill="#EAEAFF"/>
<g clip-path="url(#clip0_0_1279)">
<path fill-rule="evenodd" clip-rule="evenodd" d="M12.559 18.4299V12.4172C14.6935 13.4216 16.3467 14.3919 18.3019 15.438C16.6893 16.3323 14.6935 17.3358 12.559 18.4299ZM24.4547 9.42686C24.0864 8.94176 23.4589 8.56415 22.7908 8.43914C20.8271 8.06623 8.57606 8.06517 6.61338 8.43914C6.07762 8.53957 5.60054 8.78234 5.19071 9.15953C3.4639 10.7623 4.005 19.3573 4.42123 20.7496C4.59626 21.3522 4.82253 21.7868 5.10748 22.0721C5.47462 22.4493 5.97729 22.709 6.55467 22.8255C8.17156 23.1599 16.5015 23.3469 22.7566 22.8757C23.333 22.7753 23.8431 22.5072 24.2455 22.114C25.8421 20.5176 25.7332 11.4399 24.4547 9.42686Z" fill="#5C5C68"/>
</g>
<defs>
<clipPath id="clip0_0_1279">
<rect width="21.4286" height="15" fill="white" transform="translate(4 8.15906)"/>
</clipPath>
</defs>
</svg>
