<svg width="30" height="31" viewBox="0 0 30 31" fill="none" xmlns="http://www.w3.org/2000/svg">
<path d="M0 5.20117C0 2.43975 2.23858 0.201172 5 0.201172H25C27.7614 0.201172 30 2.43975 30 5.20117V25.2012C30 27.9626 27.7614 30.2012 25 30.2012H5C2.23858 30.2012 0 27.9626 0 25.2012V5.20117Z" fill="#EAEAFF"/>
<g clip-path="url(#clip0_0_1635)">
<path fill-rule="evenodd" clip-rule="evenodd" d="M12.559 18.4719V12.4592C14.6935 13.4636 16.3467 14.4339 18.3019 15.4799C16.6893 16.3743 14.6935 17.3777 12.559 18.4719ZM24.4547 9.46885C24.0864 8.98375 23.4589 8.60615 22.7908 8.48113C20.8271 8.10822 8.57606 8.10716 6.61338 8.48113C6.07762 8.58157 5.60054 8.82433 5.19071 9.20152C3.4639 10.8043 4.005 19.3993 4.42123 20.7916C4.59626 21.3942 4.82253 21.8288 5.10748 22.1141C5.47462 22.4913 5.97729 22.751 6.55467 22.8675C8.17156 23.2019 16.5015 23.3889 22.7566 22.9177C23.333 22.8173 23.8431 22.5492 24.2455 22.156C25.8421 20.5596 25.7332 11.4819 24.4547 9.46885Z" fill="#5C5C68"/>
</g>
<defs>
<clipPath id="clip0_0_1635">
<rect width="21.4286" height="15" fill="white" transform="translate(4 8.20105)"/>
</clipPath>
</defs>
</svg>
