<svg width="30" height="31" viewBox="0 0 30 31" fill="none" xmlns="http://www.w3.org/2000/svg">
<path d="M0 5.09375C0 2.33233 2.23858 0.09375 5 0.09375H25C27.7614 0.09375 30 2.33233 30 5.09375V25.0938C30 27.8552 27.7614 30.0938 25 30.0938H5C2.23858 30.0938 0 27.8552 0 25.0938V5.09375Z" fill="#EAEAFF"/>
<g clip-path="url(#clip0_0_2771)">
<path fill-rule="evenodd" clip-rule="evenodd" d="M12.559 18.3646V12.3519C14.6935 13.3563 16.3467 14.3266 18.3019 15.3726C16.6893 16.267 14.6935 17.2704 12.559 18.3646ZM24.4547 9.36155C24.0864 8.87645 23.4589 8.49885 22.7908 8.37383C20.8271 8.00092 8.57606 7.99986 6.61338 8.37383C6.07762 8.47427 5.60054 8.71703 5.19071 9.09422C3.4639 10.697 4.005 19.292 4.42123 20.6843C4.59626 21.2869 4.82253 21.7215 5.10748 22.0068C5.47462 22.384 5.97729 22.6437 6.55467 22.7602C8.17156 23.0946 16.5015 23.2816 22.7566 22.8104C23.333 22.71 23.8431 22.4419 24.2455 22.0487C25.8421 20.4523 25.7332 11.3746 24.4547 9.36155Z" fill="#5C5C68"/>
</g>
<defs>
<clipPath id="clip0_0_2771">
<rect width="21.4286" height="15" fill="white" transform="translate(4 8.09375)"/>
</clipPath>
</defs>
</svg>
