<svg width="30" height="30" viewBox="0 0 30 30" fill="none" xmlns="http://www.w3.org/2000/svg">
<path d="M0 5C0 2.23858 2.23858 0 5 0H25C27.7614 0 30 2.23858 30 5V25C30 27.7614 27.7614 30 25 30H5C2.23858 30 0 27.7614 0 25V5Z" fill="#EAEAFF"/>
<g clip-path="url(#clip0_0_905)">
<path fill-rule="evenodd" clip-rule="evenodd" d="M12.559 18.2708V12.2582C14.6935 13.2626 16.3467 14.2328 18.3019 15.2789C16.6893 16.1732 14.6935 17.1767 12.559 18.2708ZM24.4547 9.2678C24.0864 8.7827 23.4589 8.4051 22.7908 8.28008C20.8271 7.90717 8.57606 7.90611 6.61338 8.28008C6.07762 8.38052 5.60054 8.62328 5.19071 9.00047C3.4639 10.6032 4.005 19.1983 4.42123 20.5905C4.59626 21.1932 4.82253 21.6278 5.10748 21.9131C5.47462 22.2902 5.97729 22.55 6.55467 22.6664C8.17156 23.0009 16.5015 23.1879 22.7566 22.7166C23.333 22.6162 23.8431 22.3481 24.2455 21.9549C25.8421 20.3586 25.7332 11.2809 24.4547 9.2678Z" fill="#5C5C68"/>
</g>
<defs>
<clipPath id="clip0_0_905">
<rect width="21.4286" height="15" fill="white" transform="translate(4 8)"/>
</clipPath>
</defs>
</svg>
